<?xml version="1.0" standalone="no"?>
<!DOCTYPE svg PUBLIC "-//W3C//DTD SVG 1.1//EN" "http://www.w3.org/Graphics/SVG/1.1/DTD/svg11.dtd" >
<svg xmlns="http://www.w3.org/2000/svg" xmlns:xlink="http://www.w3.org/1999/xlink" version="1.1">
<metadata>
Created by FontForge 20190801 at Mon Dec 28 19:20:16 2015
 By Jimmy Wärting
Copyright (c) 2012 by Toni Hurme. All rights reserved.
</metadata>
<defs>
<font id="HurmeGeometricSans4W00-Rg" horiz-adv-x="814" >
  <font-face 
    font-family="HurmeGeometricSans4W00-Rg"
    font-weight="400"
    font-stretch="normal"
    units-per-em="1000"
    panose-1="2 11 5 0 2 0 0 0 0 0"
    ascent="800"
    descent="-200"
    x-height="504"
    cap-height="697"
    bbox="-63 -292 1419 1052"
    underline-thickness="50"
    underline-position="-125"
    unicode-range="U+0020-FB04"
  />
<missing-glyph horiz-adv-x="712" 
d="M0 0v697h712v-697h-712zM60 60h592v577h-592v-577zM131 163l185 185l-185 185l40 40l185 -185l185 185l40 -40l-185 -185l185 -185l-40 -40l-185 185l-185 -185z" />
    <glyph glyph-name="uniFB00" unicode="ff" horiz-adv-x="546" 
d="M112 0v435h-81v69h81v42q0 87 38.5 126.5t113.5 39.5q23 0 39 -4v-70q-19 5 -47 5q-36 0 -53 -20.5t-17 -66.5v-52h160v42q0 87 38.5 126.5t113.5 39.5q23 0 39 -4v-70q-19 5 -47 5q-36 0 -53 -20.5t-17 -66.5v-52h95v-69h-95v-435h-74v435h-160v-435h-74z" />
    <glyph glyph-name="f_j.liga" unicode="fj" horiz-adv-x="477" 
d="M112 0v435h-81v69h81v42q0 53 12 84.5t37 52.5q19 14 47 21.5t76 7.5q29 0 49 -4v-70q-22 5 -57 5q-47 0 -68.5 -20.5t-21.5 -66.5v-52h234v-556q0 -156 -152 -156l-27 2v70q17 -3 35 -3q36 0 53 20.5t17 66.5v487h-160v-435h-74z" />
    <glyph glyph-name="f_f_j.liga" unicode="ffj" horiz-adv-x="711" 
d="M112 0v435h-81v69h81v42q0 87 38.5 126.5t113.5 39.5q23 0 39 -4v-70q-19 5 -47 5q-36 0 -53 -20.5t-17 -66.5v-52h160v42q0 53 12 84.5t37 52.5q19 14 47 21.5t76 7.5q29 0 49 -4v-70q-22 5 -57 5q-47 0 -68.5 -20.5t-21.5 -66.5v-52h234v-556q0 -156 -152 -156l-27 2
v70q17 -3 35 -3q36 0 53 20.5t17 66.5v487h-160v-435h-74v435h-160v-435h-74z" />
    <glyph glyph-name=".notdef" horiz-adv-x="712" 
d="M0 0v697h712v-697h-712zM60 60h592v577h-592v-577zM131 163l185 185l-185 185l40 40l185 -185l185 185l40 -40l-185 -185l185 -185l-40 -40l-185 185l-185 -185z" />
    <glyph glyph-name="glyph1" horiz-adv-x="0" 
 />
    <glyph glyph-name="glyph2" horiz-adv-x="0" 
 />
    <glyph glyph-name="space" unicode=" " horiz-adv-x="412" 
 />
    <glyph glyph-name="exclam" unicode="!" horiz-adv-x="240" 
d="M89 155l-16 542h94l-16 -542h-62zM70 35q0 21 15 35.5t35 14.5t35 -14.5t15 -35.5t-15 -35.5t-35 -14.5t-35 14.5t-15 35.5z" />
    <glyph glyph-name="quotedbl" unicode="&#x22;" horiz-adv-x="289" 
d="M182 445l-12 252h75l-12 -252h-51zM56 445l-12 252h75l-12 -252h-51z" />
    <glyph glyph-name="numbersign" unicode="#" horiz-adv-x="547" 
d="M87 116l28 108h-88v62h104l30 118h-89v62h105l27 107h69l-28 -107h118l28 107h68l-27 -107h88v-62h-104l-30 -118h90v-62h-105l-28 -108h-69l28 108h-118l-28 -108h-69zM199 286h118l31 118h-119z" />
    <glyph glyph-name="dollar" unicode="$" horiz-adv-x="544" 
d="M45 155l73 34q18 -48 50.5 -81t77.5 -44v284q-94 43 -129 86.5t-35 108.5q0 68 46 114.5t118 53.5v96h64v-98q49 -7 86.5 -34.5t61.5 -71.5l-66 -34q-28 53 -82 66v-234q79 -35 118 -64t58 -66.5t19 -90.5q0 -79 -51.5 -132t-143.5 -59v-96h-64v98q-50 7 -92.5 32
t-69 61.5t-39.5 70.5zM246 430v209q-38 -5 -62 -30.5t-24 -65.5q0 -30 16 -57.5t70 -55.5zM310 61q27 2 54.5 13.5t45 39.5t17.5 66t-20.5 70.5t-96.5 68.5v-258z" />
    <glyph glyph-name="percent" unicode="%" horiz-adv-x="733" 
d="M192 400q-64 0 -110 46t-46 110t46 110t110 46t110 -46t46 -110t-46 -110t-110 -46zM104 0l451 697h77l-451 -697h-77zM192 461q17 0 38 9.5t36.5 33.5t15.5 52q0 18 -9 40t-32 38.5t-49 16.5q-17 0 -38 -9.5t-36.5 -33.5t-15.5 -52q0 -18 9 -40.5t31.5 -38.5t49.5 -16z
M385 141q0 64 46 110t110 46t110 -46t46 -110t-46 -110t-110 -46t-110 46t-46 110zM451 141q0 -18 9 -40.5t31.5 -38.5t49.5 -16q17 0 38 9.5t36.5 33.5t15.5 52q0 18 -9 40t-32 38.5t-49 16.5q-17 0 -38 -9.5t-36.5 -33.5t-15.5 -52z" />
    <glyph glyph-name="ampersand" unicode="&#x26;" horiz-adv-x="739" 
d="M42 223q0 33 11.5 73t45 76.5t82.5 60.5q-13 23 -21 51.5t-8 54.5q0 74 49 122.5t128 48.5q27 0 56.5 -8t58 -30t42.5 -55t14 -65q0 -24 -9 -48t-24 -39h244v-72h-135v-38q0 -136 -39 -222l120 -133h-100l-61 68q-75 -83 -199 -83q-56 0 -103.5 17.5t-81 49t-52 75.5
t-18.5 96zM320 372l159 -175q19 63 19 158v38h-149v48q16 3 34 15t30.5 35.5t12.5 51.5q0 19 -9.5 41.5t-34 38t-55.5 15.5q-22 0 -45.5 -11t-37.5 -34.5t-14 -53.5q0 -21 9 -48t29 -55t52 -64zM120 223q0 -76 48 -121t129 -45q99 0 147 68q-45 49 -81.5 89t-75 82t-64.5 75
q-103 -46 -103 -148z" />
    <glyph glyph-name="quotesingle" unicode="'" horiz-adv-x="163" 
d="M56 445l-12 252h75l-12 -252h-51z" />
    <glyph glyph-name="parenleft" unicode="(" horiz-adv-x="294" 
d="M47 309q0 138 57.5 260t168.5 220l37 -40q-94 -92 -141.5 -200t-47.5 -240t47.5 -240t141.5 -200l-37 -40q-111 98 -168.5 220t-57.5 260z" />
    <glyph glyph-name="parenright" unicode=")" horiz-adv-x="294" 
d="M-16 -131q94 92 141.5 200t47.5 240t-47.5 240t-141.5 200l37 40q111 -98 168.5 -220t57.5 -260t-57.5 -260t-168.5 -220z" />
    <glyph glyph-name="asterisk" unicode="*" horiz-adv-x="388" 
d="M126 415l-46 36l75 86l-110 34l21 56l104 -44l-5 114h59l-6 -114l105 44l20 -56l-110 -34l76 -86l-47 -36l-68 94z" />
    <glyph glyph-name="plus" unicode="+" horiz-adv-x="384" 
d="M154 190v123h-112v69h112v124h76v-124h112v-69h-112v-123h-76z" />
    <glyph glyph-name="comma" unicode="," horiz-adv-x="192" 
d="M-36 -128l90 239h99l-126 -239h-63z" />
    <glyph glyph-name="hyphen" unicode="-" horiz-adv-x="384" 
d="M42 229v69h300v-69h-300z" />
    <glyph glyph-name="period" unicode="." horiz-adv-x="188" 
d="M44 43q0 21 15 35.5t35 14.5t35 -14.5t15 -35.5t-15 -35.5t-35 -14.5t-35 14.5t-15 35.5z" />
    <glyph glyph-name="slash" unicode="/" horiz-adv-x="422" 
d="M1 -136l312 859h71l-314 -859h-69z" />
    <glyph glyph-name="zero" unicode="0" horiz-adv-x="554" 
d="M43 199q-3 33 -3 150q0 116 3 149q4 44 29.5 93.5t81.5 85t123 35.5q55 0 104.5 -25t86 -73.5t43.5 -115.5q3 -33 3 -149q0 -117 -3 -150q-4 -44 -29.5 -93.5t-81.5 -85t-123 -35.5q-55 0 -104.5 25t-86 73.5t-43.5 115.5zM117 204q6 -62 52 -103.5t108 -41.5t108 41.5
t52 103.5q3 29 3 145q0 115 -3 144q-6 62 -52 103.5t-108 41.5t-108 -41.5t-52 -103.5q-3 -29 -3 -144q0 -116 3 -145z" />
    <glyph glyph-name="one" unicode="1" horiz-adv-x="301" 
d="M134 0v625h-96v72h174v-697h-78z" />
    <glyph glyph-name="two" unicode="2" horiz-adv-x="502" 
d="M13 0v51l313 353q46 53 46 111q0 51 -36.5 87t-87.5 36t-87 -36.5t-36 -87.5h-77q0 29 10.5 62.5t39 67t70 51t81.5 17.5t77 -15.5t65 -43t43.5 -63.5t15.5 -76q0 -83 -72 -165l-249 -277h338v-72h-454z" />
    <glyph glyph-name="three" unicode="3" horiz-adv-x="561" 
d="M12 130l67 31q20 -47 71 -74.5t120 -27.5q77 0 126.5 44.5t49.5 115.5q0 69 -50.5 113t-135.5 44q-42 0 -80 -12l-28 50l225 211h-301v72h419v-52l-222 -206l20 2q46 0 88 -16.5t73 -46.5t48.5 -71t17.5 -88q0 -50 -18.5 -94t-52.5 -75t-80 -48t-99 -17q-91 0 -160 39
t-98 106z" />
    <glyph glyph-name="four" unicode="4" horiz-adv-x="571" 
d="M53 155v52l242 490h84l-233 -470h271v152h78v-379h-78v155h-364z" />
    <glyph glyph-name="five" unicode="5" horiz-adv-x="555" 
d="M28 127l67 32q16 -33 45.5 -57.5t61.5 -33.5t56 -9q25 0 54.5 9t56.5 30t46.5 54.5t19.5 75.5q0 25 -8.5 54t-32.5 58t-58.5 44t-67.5 15q-37 0 -71.5 -12.5t-58.5 -32.5l-55 13l59 330h323v-72h-257l-31 -171q41 19 90 19q41 0 84 -13.5t79.5 -45t60.5 -78.5t24 -102
q0 -40 -11.5 -77.5t-32.5 -67t-50 -51.5t-70.5 -37.5t-92.5 -15.5q-73 0 -136 39.5t-94 102.5z" />
    <glyph glyph-name="six" unicode="6" horiz-adv-x="563" 
d="M40 230q0 37 14.5 75t36 71.5t44.5 68.5l167 252h93l-160 -238q27 6 57 6q44 0 86.5 -18t75.5 -50t52 -75t19 -91q0 -24 -6 -55t-23 -63t-46.5 -61t-74 -48t-92.5 -19t-93 19t-78.5 52.5t-52.5 78.5t-19 95zM119 227q0 -72 47.5 -120t116.5 -48q42 0 82.5 22.5t63 63
t22.5 82.5t-22.5 82.5t-63 62.5t-82.5 22q-26 0 -54 -8.5t-52 -28.5t-41 -53t-17 -77z" />
    <glyph glyph-name="seven" unicode="7" horiz-adv-x="548" 
d="M111 0l308 625h-383v72h476v-54l-315 -643h-86z" />
    <glyph glyph-name="eight" unicode="8" horiz-adv-x="542" 
d="M38 211q0 70 35.5 120t88.5 72q-32 22 -51.5 56t-19.5 73q0 45 24 88.5t67.5 67.5t88.5 24t88.5 -24t67.5 -67.5t24 -88.5q0 -39 -19.5 -73t-51.5 -56q53 -22 88.5 -72t35.5 -120q0 -45 -18 -86.5t-50 -73t-75 -49t-90 -17.5t-90 17.5t-75 49t-50 73t-18 86.5zM271 426
q42 0 72.5 31.5t30.5 74.5t-30.5 74.5t-72.5 31.5t-72.5 -31.5t-30.5 -74.5t30.5 -74.5t72.5 -31.5zM116 211q0 -23 8 -48.5t27.5 -48t50 -39t69.5 -16.5q31 0 66.5 15t62 53t26.5 84q0 23 -8 48.5t-27.5 48t-50 39t-69.5 16.5q-31 0 -66.5 -15t-62 -53t-26.5 -84z" />
    <glyph glyph-name="nine" unicode="9" horiz-adv-x="552" 
d="M158 0l171 252q-31 -9 -60 -9q-42 0 -84 16.5t-74.5 47t-52 73t-19.5 91.5t18.5 93.5t51.5 77.5t76.5 51.5t90.5 18.5q51 0 95 -18.5t75.5 -51.5t49 -76.5t17.5 -90.5q0 -27 -9 -61.5t-31 -73t-62 -98.5l-160 -242h-93zM276 312q47 0 82.5 19t58 56t22.5 88q0 67 -48 115
t-115 48t-115 -48t-48 -115t48 -115t115 -48z" />
    <glyph glyph-name="colon" unicode=":" horiz-adv-x="188" 
d="M94 340q-20 0 -35 14.5t-15 35.5t15 35.5t35 14.5t35 -14.5t15 -35.5t-15 -35.5t-35 -14.5zM94 64q-20 0 -35 14.5t-15 35.5t15 35.5t35 14.5t35 -14.5t15 -35.5t-15 -35.5t-35 -14.5z" />
    <glyph glyph-name="semicolon" unicode=";" horiz-adv-x="228" 
d="M114 340q-20 0 -35 14.5t-15 35.5t15 35.5t35 14.5t35 -14.5t15 -35.5t-15 -35.5t-35 -14.5zM-15 -112l84 223h99l-117 -223h-66z" />
    <glyph glyph-name="less" unicode="&#x3c;" horiz-adv-x="414" 
d="M44 329v54l318 196v-78l-239 -145l239 -144v-78z" />
    <glyph glyph-name="equal" unicode="=" horiz-adv-x="426" 
d="M42 402v69h342v-69h-342zM42 238v69h342v-69h-342z" />
    <glyph glyph-name="greater" unicode="&#x3e;" horiz-adv-x="413" 
d="M52 134v78l239 144l-239 145v78l318 -196v-54z" />
    <glyph glyph-name="question" unicode="?" horiz-adv-x="396" 
d="M215 156q-60 0 -97 34t-37 89q0 74 89 138q50 35 70.5 53.5t31.5 41t11 53.5q0 13 -8 32.5t-30.5 31t-53.5 11.5q-75 0 -142 -65v88q61 49 142 49q23 0 53.5 -6t59.5 -27t43 -52.5t14 -58.5q0 -46 -13 -76.5t-38 -55t-87 -70.5q-38 -28 -51 -48.5t-13 -38.5q0 -51 56 -51
q40 0 71 18v-77q-30 -13 -71 -13zM142 35q0 21 15 35.5t35 14.5t35 -14.5t15 -35.5t-15 -35.5t-35 -14.5t-35 14.5t-15 35.5z" />
    <glyph glyph-name="at" unicode="@" horiz-adv-x="803" 
d="M38 292q0 68 26.5 134t69 111t89.5 72t94 37t84 10q70 0 136.5 -26t117.5 -73.5t80.5 -111.5t29.5 -136q0 -101 -40.5 -156t-111.5 -55q-38 0 -65 17.5t-40 49.5q-21 -25 -49.5 -39t-60.5 -14q-72 0 -122 50.5t-50 124.5t50 124.5t122 50.5q62 0 100 -44v35h68v-229
q0 -31 11 -47t36 -16q44 0 64 38t20 110q0 57 -23 109t-64 91.5t-95.5 61.5t-113.5 22t-113 -23.5t-95 -65t-64 -97t-23 -115.5t23 -115t64 -96.5t95 -65t113 -23.5q34 0 71 10.5t67 28.5l32 -60q-78 -42 -170 -42q-68 0 -134 27t-117.5 76t-81.5 116.5t-30 143.5zM293 287
q0 -22 10 -47.5t36 -43.5t59 -18q20 0 45 10.5t42.5 38t17.5 60.5q0 34 -17.5 61.5t-42 38t-45.5 10.5t-46 -10.5t-42 -37.5t-17 -62z" />
    <glyph glyph-name="A" unicode="A" horiz-adv-x="720" 
d="M35 0l295 697h60l295 -697h-84l-72 172h-338l-72 -172h-84zM221 244h278l-139 332z" />
    <glyph glyph-name="B" unicode="B" horiz-adv-x="592" 
d="M92 0v697h213q79 0 133 -51t54 -127q0 -49 -24 -86.5t-65 -53.5q69 -14 104.5 -61.5t35.5 -111.5q0 -43 -16 -81t-44.5 -66t-68 -43.5t-83.5 -15.5h-239zM170 406h130q36 0 64 18t39 44t11 48q0 34 -18.5 61t-45 37.5t-49.5 10.5h-131v-219zM170 72h156q59 0 99 38.5
t40 95.5q0 55 -40 92.5t-100 37.5h-155v-264z" />
    <glyph glyph-name="C" unicode="C" horiz-adv-x="711" 
d="M47 348q0 76 28 143t78 116t117 76t140 27q78 0 147.5 -31.5t118.5 -86.5l-53 -48q-38 44 -93.5 69t-119.5 25q-60 0 -112.5 -22t-91 -61t-60 -93t-21.5 -114t21.5 -114t60 -93t91 -61t112.5 -22q65 0 121.5 26t94.5 72l53 -48q-49 -57 -120 -89.5t-149 -32.5
q-73 0 -140 27t-117 76t-78 116t-28 143z" />
    <glyph glyph-name="D" unicode="D" horiz-adv-x="726" 
d="M92 0v697h224q82 0 149.5 -25.5t114.5 -72t71.5 -111t24.5 -140.5t-24.5 -140.5t-71 -111t-114 -71.5t-149.5 -25h-225zM170 72h141q70 0 125 20t90.5 57t53.5 88t18 111q0 61 -18 112t-54 88t-90.5 57t-125.5 20h-140v-553z" />
    <glyph glyph-name="E" unicode="E" horiz-adv-x="549" 
d="M92 0v697h394v-72h-316v-221h297v-72h-297v-260h323v-72h-401z" />
    <glyph glyph-name="F" unicode="F" horiz-adv-x="506" 
d="M92 0v697h364v-72h-286v-225h261v-72h-261v-328h-78z" />
    <glyph glyph-name="G" unicode="G" horiz-adv-x="740" 
d="M47 348q0 76 28 143t78 116t117 76t140 27q33 0 75.5 -7.5t86.5 -29.5t79 -54l-49 -54q-38 35 -87.5 54t-104.5 19q-60 0 -112.5 -22t-91 -61.5t-60 -93t-21.5 -113.5t21.5 -114t60 -93t91 -61t112.5 -22q54 0 103.5 18.5t87.5 51.5v180h-213v72h291v-279
q-50 -54 -120.5 -84.5t-148.5 -30.5q-73 0 -140 27t-117 76t-78 116t-28 143z" />
    <glyph glyph-name="H" unicode="H" horiz-adv-x="727" 
d="M92 0v697h78v-291h387v291h78v-697h-78v334h-387v-334h-78z" />
    <glyph glyph-name="I" unicode="I" horiz-adv-x="270" 
d="M96 0v697h78v-697h-78z" />
    <glyph glyph-name="J" unicode="J" horiz-adv-x="310" 
d="M14 -5v74q25 -10 53 -10q41 0 59.5 30t18.5 100v508h78v-505q0 -71 -12 -113t-45 -67.5t-94 -25.5q-29 0 -58 9z" />
    <glyph glyph-name="K" unicode="K" horiz-adv-x="638" 
d="M92 0v697h78v-370l335 370h96l-278 -304l286 -393h-94l-244 336l-101 -110v-226h-78z" />
    <glyph glyph-name="L" unicode="L" horiz-adv-x="496" 
d="M92 0v697h78v-625h287v-72h-365z" />
    <glyph glyph-name="M" unicode="M" horiz-adv-x="859" 
d="M92 0v697h72l266 -442l266 442h71v-697h-77v543l-260 -426l-261 425v-542h-77z" />
    <glyph glyph-name="N" unicode="N" horiz-adv-x="751" 
d="M92 0v697h68l421 -558v558h78v-697h-63l-426 564v-564h-78z" />
    <glyph glyph-name="O" unicode="O" horiz-adv-x="820" 
d="M47 348q0 76 28 143t78 116t117 76t140 27t140 -27t117 -76t78 -116t28 -143t-28 -143t-78 -116t-117 -76t-140 -27t-140 27t-117 76t-78 116t-28 143zM124 348q0 -60 21.5 -114t60.5 -93t91.5 -61t112.5 -22t112.5 22t91 61t60 93t21.5 114t-21.5 114t-60 93t-91 61
t-112.5 22t-112.5 -22t-91.5 -61t-60.5 -93t-21.5 -114z" />
    <glyph glyph-name="P" unicode="P" horiz-adv-x="573" 
d="M92 0v697h223q43 0 82 -16t68.5 -44.5t46 -68t16.5 -83.5q0 -33 -11 -69t-37.5 -67.5t-68.5 -53.5t-96 -22h-145v-273h-78zM170 345h142q58 0 98 40.5t40 99.5t-40 99.5t-98 40.5h-142v-280z" />
    <glyph glyph-name="Q" unicode="Q" horiz-adv-x="820" 
d="M47 348q0 76 28 143t78 116t117 76t140 27t140 -27t117 -76t78 -116t28 -143q0 -36 -9 -81.5t-33.5 -92t-59.5 -82.5l74 -91l-55 -45l-74 91q-43 -29 -96.5 -45t-109.5 -16q-73 0 -140 27t-117 76t-78 116t-28 143zM124 348q0 -60 21.5 -114t60.5 -93t91.5 -61t112.5 -22
q88 0 159 46l-114 140l55 45l113 -139q34 38 53 89.5t19 108.5q0 60 -21.5 114t-60 93t-91 61t-112.5 22t-112.5 -22t-91.5 -61t-60.5 -93t-21.5 -114z" />
    <glyph glyph-name="R" unicode="R" horiz-adv-x="606" 
d="M92 0v697h238q31 0 66 -10.5t70.5 -39t54 -72t18.5 -86.5q0 -67 -37 -121t-96 -77l168 -291h-89l-157 276h-1h-157v-276h-78zM170 348h152q61 0 100 41.5t39 99.5q0 57 -38.5 96.5t-95.5 39.5h-157v-277z" />
    <glyph glyph-name="S" unicode="S" horiz-adv-x="550" 
d="M41 153l67 31q24 -58 68 -92t107 -34q44 0 75.5 14.5t48 43t16.5 65.5t-15.5 62.5t-46.5 45t-94 47.5q-67 30 -104.5 55t-58 60.5t-20.5 85.5q0 27 9.5 56.5t32.5 55t61 43.5t88 18q128 0 188 -111l-67 -34q-20 37 -49 55t-73 18q-21 0 -47.5 -9.5t-45.5 -34t-19 -55.5
q0 -40 22 -64.5t51.5 -39.5t68.5 -33q80 -35 119 -64t58.5 -66t19.5 -90q0 -63 -29.5 -107t-77 -66.5t-112.5 -22.5q-83 0 -147 42t-94 125z" />
    <glyph glyph-name="T" unicode="T" horiz-adv-x="518" 
d="M220 0v625h-190v72h458v-72h-190v-625h-78z" />
    <glyph glyph-name="U" unicode="U" horiz-adv-x="696" 
d="M87 244v453h78v-445q0 -94 49 -143t134 -49t134 49t49 143v445h78v-453q0 -61 -19.5 -109.5t-54.5 -81t-83 -49t-104 -16.5t-104 16.5t-83 49t-54.5 81t-19.5 109.5z" />
    <glyph glyph-name="V" unicode="V" horiz-adv-x="709" 
d="M327 0l-292 697h85l235 -566l234 566h85l-292 -697h-55z" />
    <glyph glyph-name="W" unicode="W" horiz-adv-x="920" 
d="M231 0l-204 697h79l155 -527l172 527h54l172 -527l155 527h79l-204 -697h-50l-179 539l-179 -539h-50z" />
    <glyph glyph-name="X" unicode="X" horiz-adv-x="653" 
d="M42 0l234 361l-220 336h87l184 -283l183 283h84l-219 -337l236 -360h-88l-200 306l-198 -306h-83z" />
    <glyph glyph-name="Y" unicode="Y" horiz-adv-x="622" 
d="M273 0v286l-245 411h86l199 -334l197 334h84l-243 -411v-286h-78z" />
    <glyph glyph-name="Z" unicode="Z" horiz-adv-x="630" 
d="M44 0v48l428 577h-379v72h484v-52l-425 -573h432v-72h-540z" />
    <glyph glyph-name="bracketleft" unicode="[" horiz-adv-x="307" 
d="M162 -121h147v-72h-225v890h225v-72h-147v-746z" />
    <glyph glyph-name="backslash" unicode="\" horiz-adv-x="422" 
d="M340 -136l-314 859h69l314 -859h-69z" />
    <glyph glyph-name="bracketright" unicode="]" horiz-adv-x="307" 
d="M-2 -121h147v746h-147v72h225v-890h-225v72z" />
    <glyph glyph-name="asciicircum" unicode="^" horiz-adv-x="520" 
d="M23 350l209 347h56l209 -347h-79l-158 268l-159 -268h-78z" />
    <glyph glyph-name="underscore" unicode="_" horiz-adv-x="296" 
d="M-2 -124h300v-69h-300v69z" />
    <glyph glyph-name="grave" unicode="`" horiz-adv-x="538" 
d="M249 552l-93 145h99l53 -145h-59z" />
    <glyph glyph-name="a" unicode="a" horiz-adv-x="629" 
d="M35 252q0 56 20 105.5t55 85.5t82 56t98 20q36 0 72 -10t64 -32t43 -48v75h74v-391q0 -33 9 -48t29 -15l26 2v-56q-18 -8 -47 -8q-33 0 -53 14q-29 22 -34 72q-17 -27 -47 -49t-66.5 -31t-69.5 -9q-51 0 -98 20t-82 56t-55 85.5t-20 105.5zM109 252q0 -30 9 -64t34 -67
t62.5 -50t75.5 -17q49 0 94.5 25.5t69.5 73t24 99.5t-24 99.5t-69.5 73t-94.5 25.5q-28 0 -59 -10t-61 -37.5t-45.5 -68.5t-15.5 -82z" />
    <glyph glyph-name="b" unicode="b" horiz-adv-x="600" 
d="M57 0v697h74v-268q15 26 43 48t64 32t72 10q51 0 98 -20t82 -56t55 -85.5t20 -105.5t-20 -105.5t-55 -85.5t-82 -56t-98 -20q-36 0 -72 10t-64 32t-43 48v-75h-74zM122 252q0 -52 24 -99.5t69.5 -73t94.5 -25.5q28 0 59 10t61 37.5t45.5 68.5t15.5 82q0 30 -9 64t-34 67
t-62.5 50t-75.5 17q-49 0 -94.5 -25.5t-69.5 -73t-24 -99.5z" />
    <glyph glyph-name="c" unicode="c" horiz-adv-x="517" 
d="M35 252q0 56 21 105.5t58 85.5t86 56t103 20q56 0 105.5 -19.5t85.5 -56.5l-45 -52q-28 29 -66 44t-80 15q-30 0 -63 -10t-65.5 -37t-49 -68.5t-16.5 -82.5t14.5 -77.5t40.5 -63.5t62 -42t77 -15q42 0 80 15t66 44l45 -52q-36 -37 -85.5 -56.5t-105.5 -19.5
q-54 0 -103 20t-86 56t-58 85.5t-21 105.5z" />
    <glyph glyph-name="d" unicode="d" horiz-adv-x="629" 
d="M35 252q0 56 20 105.5t55 85.5t82 56t98 20q36 0 72 -10t64 -32t43 -48v268h74v-584q0 -33 9 -48t29 -15l26 2v-56q-18 -8 -47 -8q-33 0 -53 14q-29 22 -34 72q-17 -27 -47 -49t-66.5 -31t-69.5 -9q-51 0 -98 20t-82 56t-55 85.5t-20 105.5zM109 252q0 -30 9 -64t34 -67
t62.5 -50t75.5 -17q49 0 94.5 25.5t69.5 73t24 99.5t-24 99.5t-69.5 73t-94.5 25.5q-28 0 -59 -10t-61 -37.5t-45.5 -68.5t-15.5 -82z" />
    <glyph glyph-name="e" unicode="e" horiz-adv-x="551" 
d="M35 246v4q0 59 19 109.5t53 86t80.5 54.5t99.5 19q51 0 94 -19.5t74 -54t47.5 -80.5t16.5 -97l-1 -32h-409q3 -83 52 -132.5t128 -49.5q38 0 75.5 13t79.5 57l49 -48q-22 -24 -52.5 -46t-69.5 -32.5t-82 -10.5q-55 0 -102 18.5t-81 52.5t-52.5 82.5t-18.5 105.5zM114 301
h326q0 29 -15 63.5t-53 60t-85 25.5q-68 0 -118.5 -43.5t-54.5 -105.5z" />
    <glyph glyph-name="f" unicode="f" horiz-adv-x="313" 
d="M112 0v435h-81v69h81v42q0 53 12 84.5t37 52.5q33 29 103 29q23 0 39 -4v-70q-19 5 -47 5q-36 0 -53 -20.5t-17 -66.5v-52h95v-69h-95v-435h-74z" />
    <glyph glyph-name="g" unicode="g" horiz-adv-x="600" 
d="M92 -84q45 -33 93.5 -50t106.5 -17q79 0 125 37q23 19 37.5 55t14.5 101v42q-15 -26 -43 -48t-64 -32t-72 -10q-51 0 -98 19.5t-82 55t-55 84t-20 103.5q0 26 6.5 60t24.5 68t48.5 65t77.5 50.5t98 19.5q36 0 72 -10t64 -32t43 -48v75h74v-420q0 -118 -19.5 -168.5
t-60.5 -82.5q-32 -25 -76.5 -39t-93.5 -14q-133 0 -239 77zM109 256q0 -40 13.5 -76t38 -62t58 -40.5t71.5 -14.5q29 0 61 9.5t63.5 36t47.5 67t16 80.5q0 30 -9.5 63t-32.5 62t-60 49t-86 20q-38 0 -71.5 -14.5t-58 -41t-38 -62.5t-13.5 -76z" />
    <glyph glyph-name="h" unicode="h" horiz-adv-x="547" 
d="M57 0v697h74v-278q19 42 60 67.5t95 25.5q83 0 132 -52.5t49 -137.5v-208q0 -22 5 -37.5t30 -15.5l19 2v-61q-12 -5 -32 -5q-96 0 -96 112v197q0 29 -11 62t-41 54t-73 21q-60 0 -98.5 -39.5t-38.5 -102.5v-301h-74z" />
    <glyph glyph-name="i" unicode="i" horiz-adv-x="212" 
d="M58 95v409h74v-396q0 -28 8.5 -40.5t29.5 -12.5l26 2v-61q-18 -8 -47 -8q-91 0 -91 107zM95 588q-20 0 -35 14.5t-15 35.5t15 35.5t35 14.5t35 -14.5t15 -35.5t-15 -35.5t-35 -14.5z" />
    <glyph glyph-name="j" unicode="j" horiz-adv-x="188" 
d="M94 586q-20 0 -35 14.5t-15 35.5t15 35.5t35 14.5t35 -14.5t15 -35.5t-15 -35.5t-35 -14.5zM57 -52v556h74v-556q0 -156 -152 -156l-27 2v70q17 -3 35 -3q36 0 53 20.5t17 66.5z" />
    <glyph glyph-name="k" unicode="k" horiz-adv-x="466" 
d="M57 0v697h74v-442l216 249h85l-191 -221l218 -283h-88l-177 230l-63 -73v-157h-74z" />
    <glyph glyph-name="l" unicode="l" horiz-adv-x="260" 
d="M58 127v570h74v-565q0 -41 14.5 -59.5t48.5 -18.5q25 0 36 2v-63q-14 -8 -46 -8q-69 0 -98 38t-29 104z" />
    <glyph glyph-name="m" unicode="m" horiz-adv-x="822" 
d="M57 0v504h74v-85q18 42 55 67.5t87 25.5q52 0 90.5 -26.5t57.5 -73.5q21 47 62 73.5t95 26.5q75 0 119.5 -52.5t44.5 -137.5v-208q0 -22 5 -37.5t30 -15.5l19 2v-61q-12 -5 -32 -5q-96 0 -96 112v197q0 62 -29.5 99.5t-80.5 37.5t-85.5 -40t-34.5 -102v-301h-74v306
q0 63 -30 100t-82 37t-86.5 -39.5t-34.5 -102.5v-301h-74z" />
    <glyph glyph-name="n" unicode="n" horiz-adv-x="554" 
d="M57 0v504h74v-85q15 30 42 53t58.5 31.5t58.5 8.5q84 0 134 -52.5t50 -137.5v-208q0 -30 7 -41.5t28 -11.5l19 2v-61q-12 -5 -32 -5q-96 0 -96 112v197q0 63 -34.5 100t-94.5 37q-62 0 -101 -39.5t-39 -102.5v-301h-74z" />
    <glyph glyph-name="o" unicode="o" horiz-adv-x="606" 
d="M35 252q0 56 21 105.5t58 85.5t86 56t103 20t103 -20t86 -56t58 -85.5t21 -105.5t-21 -105.5t-58 -85.5t-86 -56t-103 -20t-103 20t-86 56t-58 85.5t-21 105.5zM109 252q0 -41 14.5 -77.5t40.5 -63.5t62 -42t77 -15q30 0 63 10t65.5 37t49 68.5t16.5 82.5t-14.5 77.5
t-40.5 63.5t-62 42t-77 15q-30 0 -63 -10t-65.5 -37t-49 -68.5t-16.5 -82.5z" />
    <glyph glyph-name="p" unicode="p" horiz-adv-x="600" 
d="M57 -193v697h74v-75q15 26 43 48t64 32t72 10q51 0 98 -20t82 -56t55 -85.5t20 -105.5t-20 -105.5t-55 -85.5t-82 -56t-98 -20q-36 0 -72 10t-64 32t-43 48v-268h-74zM122 252q0 -52 24 -99.5t69.5 -73t94.5 -25.5q28 0 59 10t61 37.5t45.5 68.5t15.5 82q0 30 -9 64
t-34 67t-62.5 50t-75.5 17q-49 0 -94.5 -25.5t-69.5 -73t-24 -99.5z" />
    <glyph glyph-name="q" unicode="q" horiz-adv-x="600" 
d="M35 252q0 56 20 105.5t55 85.5t82 56t98 20q36 0 72 -10t64 -32t43 -48v75h74v-697h-74v268q-15 -26 -43 -48t-64 -32t-72 -10q-51 0 -98 20t-82 56t-55 85.5t-20 105.5zM109 252q0 -30 9 -64t34 -67t62.5 -50t75.5 -17q49 0 94.5 25.5t69.5 73t24 99.5t-24 99.5
t-69.5 73t-94.5 25.5q-28 0 -59 -10t-61 -37.5t-45.5 -68.5t-15.5 -82z" />
    <glyph glyph-name="r" unicode="r" horiz-adv-x="361" 
d="M57 0v504h74v-85q19 42 60 67.5t95 25.5l31 -2v-80q-20 5 -50 5q-59 0 -97.5 -39.5t-38.5 -102.5v-293h-74z" />
    <glyph glyph-name="s" unicode="s" horiz-adv-x="414" 
d="M18 109l63 24q7 -22 27 -41t47.5 -27t52.5 -8q55 0 83 21.5t28 55.5q0 28 -18 47t-46 32t-62 26q-49 20 -78 40t-44 45.5t-15 61.5q0 58 42.5 95.5t109.5 37.5q50 0 87 -22.5t59 -64.5l-60 -31q-27 50 -85 50q-34 0 -56.5 -17.5t-22.5 -47.5q0 -15 9.5 -31.5t34 -30
t66.5 -29.5q76 -29 114.5 -66.5t38.5 -94.5q0 -43 -23.5 -76t-64 -51.5t-97.5 -18.5q-70 0 -122.5 32t-67.5 89z" />
    <glyph glyph-name="t" unicode="t" horiz-adv-x="308" 
d="M89 141v294h-59v69h59v193h74v-193h117v-69h-117v-294q0 -47 17 -67t53 -20q28 0 47 3v-64q-17 -8 -56 -8q-135 0 -135 156z" />
    <glyph glyph-name="u" unicode="u" horiz-adv-x="547" 
d="M51 182v322h74v-306q0 -29 11 -62t41 -54t73 -21q60 0 98.5 39.5t38.5 102.5v301h74v-387q0 -33 9 -48t29 -15l26 2v-56q-16 -8 -47 -8q-41 0 -62 23q-18 19 -23 50q-14 -21 -40 -39.5t-58.5 -26t-62.5 -7.5q-83 0 -132 52.5t-49 137.5z" />
    <glyph glyph-name="v" unicode="v" horiz-adv-x="512" 
d="M231 0l-216 504h78l163 -384l163 384h79l-216 -504h-51z" />
    <glyph glyph-name="w" unicode="w" horiz-adv-x="746" 
d="M197 0l-182 504h76l130 -364l126 364h52l125 -364l130 364h77l-182 -504h-49l-127 367l-127 -367h-49z" />
    <glyph glyph-name="x" unicode="x" horiz-adv-x="513" 
d="M25 0l192 268l-176 236h82l133 -179l133 179h82l-175 -235l192 -269h-81l-150 211l-151 -211h-81z" />
    <glyph glyph-name="y" unicode="y" horiz-adv-x="504" 
d="M64 -132q21 -8 50 -8q26 0 43 11q22 16 40 61l22 57l-204 515h74l166 -425l160 425h74l-228 -590q-21 -55 -49 -85q-37 -38 -98 -38q-29 0 -50 9v68z" />
    <glyph glyph-name="z" unicode="z" horiz-adv-x="499" 
d="M28 0v44l309 391h-276v69h381v-49l-307 -386h323v-69h-430z" />
    <glyph glyph-name="braceleft" unicode="{" horiz-adv-x="318" 
d="M113 -65v190q0 65 -40 89q-6 3 -19 8t-26 6v48q6 0 19 3.5t26 10.5q40 24 40 89v190q0 26 11.5 56t41 51t67.5 21h45v-59h-37q-27 0 -40.5 -20.5t-13.5 -48.5v-179q0 -76 -34 -110q-17 -17 -40 -28q8 -4 20.5 -12.5t19.5 -15.5q34 -34 34 -110v-179q0 -28 13.5 -48.5
t40.5 -20.5h37v-59h-45q-38 0 -67.5 21t-41 51t-11.5 56z" />
    <glyph glyph-name="bar" unicode="|" horiz-adv-x="248" 
d="M87 -25v747h74v-747h-74z" />
    <glyph glyph-name="braceright" unicode="}" horiz-adv-x="318" 
d="M40 -134h37q27 0 40.5 20.5t13.5 48.5v179q0 76 34 110q7 7 19.5 15.5t20.5 12.5q-22 11 -40 28q-34 34 -34 110v179q0 28 -13.5 48.5t-40.5 20.5h-37v59h45q38 0 67.5 -21t41 -51t11.5 -56v-190q0 -65 40 -89q6 -3 19 -8t26 -6v-48q-6 0 -19 -3.5t-26 -10.5
q-40 -24 -40 -89v-190q0 -26 -11.5 -56t-41 -51t-67.5 -21h-45v59z" />
    <glyph glyph-name="asciitilde" unicode="~" horiz-adv-x="418" 
d="M28 303q4 29 20 51.5t38 31.5t42 9q36 0 85 -19.5t72 -19.5q42 0 56 41l49 -4q-13 -98 -102 -98q-38 0 -86.5 19.5t-71.5 19.5q-43 0 -53 -35z" />
    <glyph glyph-name="exclamdown" unicode="&#xa1;" horiz-adv-x="240" 
d="M120 411q-20 0 -35 14.5t-15 35.5t15 35.5t35 14.5t35 -14.5t15 -35.5t-15 -35.5t-35 -14.5zM73 -201l16 542h62l16 -542h-94z" />
    <glyph glyph-name="cent" unicode="&#xa2;" horiz-adv-x="533" 
d="M188 0l22 102q-77 27 -124.5 94.5t-47.5 154.5q0 68 26 120t67 84t87.5 47.5t88.5 15.5h10l16 79h68l-19 -88q34 -8 64 -24t53 -39l-45 -52q-35 35 -86 47l-80 -387l23 -2q33 0 71.5 12.5t70.5 43.5l46 -53q-21 -20 -53 -37.5t-70.5 -25.5t-70.5 -8l-31 2l-18 -86h-68z
M224 170l79 379h-1q-30 -1 -62 -11t-60.5 -34t-48 -63t-19.5 -90q0 -29 10 -64.5t37.5 -68t64.5 -48.5z" />
    <glyph glyph-name="sterling" unicode="&#xa3;" horiz-adv-x="586" 
d="M40 0v67h9q60 0 97.5 20t55 53.5t17.5 76.5q0 30 -25 80h-103v72h63q-48 83 -48 138q0 41 16 78.5t44.5 66t66 44.5t78.5 16t78.5 -16t66 -44.5t44.5 -66t16 -78.5h-77q0 26 -12.5 56.5t-44 53.5t-70.5 23q-53 0 -90.5 -39t-37.5 -94q0 -48 56 -138h153v-72h-115
q19 -45 19 -80q0 -52 -17 -90t-42 -55h304v-72h-502z" />
    <glyph glyph-name="currency" unicode="&#xa4;" horiz-adv-x="645" 
d="M53 104l87 81q-52 63 -52 148q0 40 13.5 78.5t38.5 69.5l-87 82l51 50l79 -91q63 47 140 47t141 -47l79 91l51 -50l-88 -81q25 -31 39 -70t14 -79t-14 -79t-39 -69l88 -82l-51 -49l-80 89q-60 -45 -140 -45t-141 47l-78 -91zM323 163q25 0 52.5 9t52.5 30t43 54.5
t18 76.5q0 34 -13 65.5t-36 55t-53.5 37t-63.5 13.5q-41 0 -81 -22.5t-62 -64t-22 -84.5q0 -25 8.5 -53.5t32 -57.5t57.5 -44t67 -15z" />
    <glyph glyph-name="yen" unicode="&#xa5;" horiz-adv-x="614" 
d="M269 0v211h-212v72h214l-53 88h-161v72h119l-152 254h86l199 -334l197 334h84l-150 -254h119v-72h-162l-52 -88h214v-72h-212v-211h-78z" />
    <glyph glyph-name="brokenbar" unicode="&#xa6;" horiz-adv-x="248" 
d="M87 415v282h74v-282h-74zM87 0v294h74v-294h-74z" />
    <glyph glyph-name="section" unicode="&#xa7;" horiz-adv-x="517" 
d="M82 -23h78q0 -51 24 -82t73 -31q39 0 67.5 23t28.5 66q0 31 -17.5 53.5t-42.5 37t-54 29.5q-107 54 -143 86q-65 58 -65 137q0 27 9.5 56t31.5 51.5t48 35.5q-43 44 -43 112q0 70 50 115.5t124 45.5q52 0 94 -24t61.5 -68.5t19.5 -92.5h-78q0 51 -24 82t-73 31
q-39 0 -67.5 -23t-28.5 -66q0 -20 8 -39.5t28.5 -35t59.5 -35.5q119 -61 161 -96q65 -58 65 -137q0 -25 -9 -54t-31 -52t-49 -37q43 -44 43 -112q0 -44 -20.5 -79t-60 -58.5t-93.5 -23.5q-51 0 -89 21t-62 62.5t-24 101.5zM263 143l49 -26q87 20 87 91q0 25 -13 49t-45.5 47
t-95.5 57l-49 26q-87 -20 -87 -91q0 -25 13 -49t45.5 -47t95.5 -57z" />
    <glyph glyph-name="dieresis" unicode="&#xa8;" horiz-adv-x="606" 
d="M406 586q-20 0 -35 14.5t-15 35.5t15 35.5t35 14.5t35 -14.5t15 -35.5t-15 -35.5t-35 -14.5zM200 586q-20 0 -35 14.5t-15 35.5t15 35.5t35 14.5t35 -14.5t15 -35.5t-15 -35.5t-35 -14.5z" />
    <glyph glyph-name="copyright" unicode="&#xa9;" horiz-adv-x="812" 
d="M42 348q0 73 28.5 139.5t79 116.5t117 78.5t139.5 28.5t139.5 -28.5t117 -78.5t79 -116.5t28.5 -139.5t-28.5 -139.5t-79 -117t-117 -79t-139.5 -28.5t-139.5 28.5t-117 79t-79 117t-28.5 139.5zM86 348q0 -65 25 -124t69.5 -104t103 -70t122.5 -25t122.5 25t103 70
t69.5 104t25 124t-25 124t-69.5 103.5t-103 69.5t-122.5 25t-122.5 -25t-103 -69.5t-69.5 -103.5t-25 -124zM209 353q0 42 13.5 74.5t35.5 58.5t62 47t92 21q88 0 152 -62l-46 -50q-20 18 -48.5 31t-57.5 13q-28 0 -58 -13.5t-51 -46t-21 -73.5q0 -26 12.5 -57.5t45 -53.5
t72.5 -22q28 0 56.5 12t49.5 33l46 -53q-30 -30 -69.5 -45.5t-82.5 -15.5q-52 0 -101 26t-75.5 74.5t-26.5 101.5z" />
    <glyph glyph-name="ordfeminine" unicode="&#xaa;" horiz-adv-x="447" 
d="M47 425q0 51 39 82.5t112 33.5q62 2 76 15t14 35q0 17 -9.5 31t-28 20t-35.5 6q-60 0 -103 -53l-43 36q25 36 63 55.5t83 19.5q59 0 94 -31.5t35 -83.5v-197q0 -11 5 -17.5t11 -6.5h21v-41q-15 -10 -37 -10q-4 0 -15 2t-18 10q-10 11 -14 27q-14 -16 -43 -29.5t-76 -13.5
q-57 0 -94 30.5t-37 79.5zM104 427q0 -26 21.5 -41t57.5 -15q49 0 77 21t28 56v59q-21 -18 -90 -19q-94 -3 -94 -61z" />
    <glyph glyph-name="guillemotleft" unicode="&#xab;" horiz-adv-x="414" 
d="M301 78l-110 175l110 175h78l-110 -175l110 -175h-78zM145 78l-110 175l110 175h78l-110 -175l110 -175h-78z" />
    <glyph glyph-name="logicalnot" unicode="&#xac;" horiz-adv-x="568" 
d="M42 382v69h484v-270h-76v201h-408z" />
    <glyph glyph-name="registered" unicode="&#xae;" horiz-adv-x="394" 
d="M196 394q-24 0 -51 8t-51.5 27t-41.5 50.5t-17 73.5q0 25 8.5 52t28.5 51t51.5 40t72.5 16q33 0 70.5 -15t65 -54t27.5 -90q0 -34 -16 -70.5t-56.5 -62.5t-90.5 -26zM196 424q56 0 93 36.5t37 92.5q0 58 -37 94.5t-93 36.5t-92.5 -36.5t-36.5 -94.5q0 -26 12.5 -56.5
t44.5 -51.5t72 -21zM137 465v183h65q26 0 42.5 -16t16.5 -41q0 -16 -8.5 -30.5t-21.5 -22.5l44 -73h-40l-40 67h-24v-67h-34zM171 560h30q10 0 18 9t8 20t-8 19t-18 8h-30v-56z" />
    <glyph glyph-name="macron" unicode="&#xaf;" horiz-adv-x="620" 
d="M163 628v69h294v-69h-294z" />
    <glyph glyph-name="degree" unicode="&#xb0;" horiz-adv-x="360" 
d="M180 436q-25 0 -56 13t-53.5 46.5t-22.5 72.5q0 25 13 56t46.5 53.5t72.5 22.5q25 0 56 -13t53.5 -46.5t22.5 -72.5q0 -25 -13 -56t-46.5 -53.5t-72.5 -22.5zM180 502q24 0 42.5 19.5t18.5 46.5t-18.5 46.5t-42.5 19.5t-42.5 -19.5t-18.5 -46.5t18.5 -46.5t42.5 -19.5z
" />
    <glyph glyph-name="plusminus" unicode="&#xb1;" horiz-adv-x="384" 
d="M154 190v123h-112v69h112v124h76v-124h112v-69h-112v-123h-76zM42 0v69h300v-69h-300z" />
    <glyph glyph-name="uni00B2" unicode="&#xb2;" horiz-adv-x="325" 
d="M44 328v40l153 177q24 29 24 52q0 22 -16 38t-38 16t-38 -19t-16 -44h-56q0 22 11 49.5t38.5 47.5t60.5 20t61 -18.5t39 -43.5t11 -46q0 -22 -6 -41t-28 -45l-116 -129h159v-54h-243z" />
    <glyph glyph-name="uni00B3" unicode="&#xb3;" horiz-adv-x="346" 
d="M164 320q-48 0 -85.5 25t-52.5 66l50 19q10 -25 33.5 -40t54.5 -15q37 0 60.5 20.5t23.5 52.5t-24.5 54t-63.5 22q-13 0 -29 -2.5t-23 -5.5l-20 26l106 102h-133v53h224v-33l-101 -93q21 0 40 -6q34 -13 56.5 -45.5t22.5 -71.5q0 -27 -13 -56.5t-48 -50.5t-78 -21z" />
    <glyph glyph-name="acute" unicode="&#xb4;" horiz-adv-x="538" 
d="M231 552l53 145h99l-93 -145h-59z" />
    <glyph glyph-name="paragraph" unicode="&#xb6;" horiz-adv-x="539" 
d="M232 0v267q-31 2 -65 14t-65 39t-52.5 68.5t-21.5 93.5q0 32 11 68t41.5 72.5t75 55.5t87.5 19h285v-72h-66v-625h-78v625h-74v-625h-78z" />
    <glyph glyph-name="periodcentered" unicode="&#xb7;" horiz-adv-x="188" 
d="M94 202q-20 0 -35 14.5t-15 35.5t15 35.5t35 14.5t35 -14.5t15 -35.5t-15 -35.5t-35 -14.5z" />
    <glyph glyph-name="cedilla" unicode="&#xb8;" horiz-adv-x="529" 
d="M220 -76l32 76h56l-21 -46q27 0 46.5 -19.5t19.5 -51.5q0 -41 -27.5 -61t-75.5 -20q-19 0 -41 7.5t-33 15.5l19 39q28 -17 54 -17q19 0 31.5 10t12.5 26q0 18 -13.5 29.5t-59.5 11.5z" />
    <glyph glyph-name="uni00B9" unicode="&#xb9;" horiz-adv-x="222" 
d="M88 328v316h-48v53h105v-369h-57z" />
    <glyph glyph-name="ordmasculine" unicode="&#xba;" horiz-adv-x="456" 
d="M228 318q-39 0 -75 15t-63 41.5t-42 62.5t-15 75t15 75t42 62.5t63 41.5t75 15t75 -15t63 -41.5t42 -62.5t15 -75t-15 -75t-42 -62.5t-63 -41.5t-75 -15zM228 379q27 0 56.5 14t51 47t21.5 72t-21.5 72t-51 47t-56.5 14t-56.5 -14t-51 -47t-21.5 -72t21.5 -72t51 -47
t56.5 -14z" />
    <glyph glyph-name="guillemotright" unicode="&#xbb;" horiz-adv-x="414" 
d="M191 78l110 175l-110 175h78l110 -175l-110 -175h-78zM35 78l110 175l-110 175h78l110 -175l-110 -175h-78z" />
    <glyph glyph-name="onequarter" unicode="&#xbc;" horiz-adv-x="672" 
d="M78 0l390 697h74l-390 -697h-74zM108 328v316h-48v53h105v-369h-57zM343 73v39l128 257h59l-121 -242h138v74h57v-201h-57v73h-204z" />
    <glyph glyph-name="onehalf" unicode="&#xbd;" horiz-adv-x="704" 
d="M78 0l390 697h74l-390 -697h-74zM108 328v316h-48v53h105v-369h-57zM403 0v40l153 177q24 29 24 52q0 22 -16 38t-38 16t-38 -19t-16 -44h-56q0 22 11 49.5t38.5 47.5t60.5 20t61 -18.5t39 -43.5t11 -46q0 -22 -6 -41t-28 -45l-116 -129h159v-54h-243z" />
    <glyph glyph-name="threequarters" unicode="&#xbe;" horiz-adv-x="770" 
d="M176 0l390 697h74l-390 -697h-74zM174 320q-48 0 -85.5 25t-52.5 66l50 19q10 -25 33.5 -40t54.5 -15q37 0 60.5 20.5t23.5 52.5t-24.5 54t-63.5 22q-13 0 -29 -2.5t-23 -5.5l-20 26l106 102h-133v53h224v-33l-101 -93q21 0 40 -6q34 -13 56.5 -45.5t22.5 -71.5
q0 -27 -13 -56.5t-48 -50.5t-78 -21zM441 73v39l128 257h59l-121 -242h138v74h57v-201h-57v73h-204z" />
    <glyph glyph-name="questiondown" unicode="&#xbf;" horiz-adv-x="396" 
d="M204 411q-20 0 -35 14.5t-15 35.5t15 35.5t35 14.5t35 -14.5t15 -35.5t-15 -35.5t-35 -14.5zM35 -72q0 46 13 76.5t38 55t87 70.5q38 28 51 48.5t13 38.5q0 51 -56 51q-40 0 -71 -18v77q30 13 71 13q60 0 97 -34t37 -89q0 -74 -89 -138q-50 -35 -70.5 -53.5t-31.5 -41
t-11 -53.5q0 -13 8 -32.5t30.5 -31t53.5 -11.5q75 0 142 65v-88q-61 -49 -142 -49q-23 0 -53.5 6t-59.5 27t-43 52.5t-14 58.5z" />
    <glyph glyph-name="Agrave" unicode="&#xc0;" horiz-adv-x="720" 
d="M337 745l-93 145h99l53 -145h-59zM35 0l295 697h60l295 -697h-84l-72 172h-338l-72 -172h-84zM221 244h278l-139 332z" />
    <glyph glyph-name="Aacute" unicode="&#xc1;" horiz-adv-x="720" 
d="M321 745l53 145h99l-93 -145h-59zM35 0l295 697h60l295 -697h-84l-72 172h-338l-72 -172h-84zM221 244h278l-139 332z" />
    <glyph glyph-name="Acircumflex" unicode="&#xc2;" horiz-adv-x="720" 
d="M203 769l126 121h62l126 -121h-91l-66 66l-66 -66h-91zM35 0l295 697h60l295 -697h-84l-72 172h-338l-72 -172h-84zM221 244h278l-139 332z" />
    <glyph glyph-name="Atilde" unicode="&#xc3;" horiz-adv-x="720" 
d="M213 762q3 29 17.5 51.5t34.5 31.5t38 9q27 0 63.5 -19.5t53.5 -19.5q36 0 46 41l49 -4q-5 -46 -28 -72t-64 -26q-28 0 -64.5 19.5t-53.5 19.5q-16 0 -27.5 -8.5t-15.5 -26.5zM35 0l295 697h60l295 -697h-84l-72 172h-338l-72 -172h-84zM221 244h278l-139 332z" />
    <glyph glyph-name="Adieresis" unicode="&#xc4;" horiz-adv-x="720" 
d="M463 744q-20 0 -35 14.5t-15 35.5t15 35.5t35 14.5t35 -14.5t15 -35.5t-15 -35.5t-35 -14.5zM257 744q-20 0 -35 14.5t-15 35.5t15 35.5t35 14.5t35 -14.5t15 -35.5t-15 -35.5t-35 -14.5zM35 0l295 697h60l295 -697h-84l-72 172h-338l-72 -172h-84zM221 244h278l-139 332
z" />
    <glyph glyph-name="Aring" unicode="&#xc5;" horiz-adv-x="701" 
d="M35 0l290 665q-31 8 -51.5 34.5t-20.5 59.5q0 40 29 68.5t69 28.5t68.5 -28.5t28.5 -68.5q0 -34 -21 -60.5t-52 -34.5l291 -664h-85l-75 172h-314l-75 -172h-82zM351 712q18 0 32 14t14 33q0 18 -14 32t-32 14q-19 0 -33 -14t-14 -32t14.5 -32.5t32.5 -14.5zM223 244h252
l-126 296z" />
    <glyph glyph-name="AE" unicode="&#xc6;" horiz-adv-x="890" 
d="M-16 0l534 697h310v-72h-252v-221h233v-72h-233v-260h259v-72h-337v172h-284l-132 -172h-98zM269 244h229v305z" />
    <glyph glyph-name="Ccedilla" unicode="&#xc7;" horiz-adv-x="711" 
d="M47 348q0 76 28 143t78 116t117 76t140 27q78 0 147.5 -31.5t118.5 -86.5l-53 -48q-38 44 -93.5 69t-119.5 25q-60 0 -112.5 -22t-91 -61t-60 -93t-21.5 -114t21.5 -114t60 -93t91 -61t112.5 -22q65 0 121.5 26t94.5 72l53 -48q-49 -57 -120 -89.5t-149 -32.5l-26 1
l-15 -33q27 0 46.5 -19.5t19.5 -51.5q0 -41 -27.5 -61t-75.5 -20q-19 0 -41 7.5t-33 15.5l19 39q28 -17 54 -17q19 0 31.5 10t12.5 26q0 18 -13.5 29.5t-59.5 11.5l29 70q-44 9 -92.5 33t-96 73t-71.5 115.5t-24 132.5z" />
    <glyph glyph-name="Egrave" unicode="&#xc8;" horiz-adv-x="549" 
d="M277 745l-93 145h99l53 -145h-59zM92 0v697h394v-72h-316v-221h297v-72h-297v-260h323v-72h-401z" />
    <glyph glyph-name="Eacute" unicode="&#xc9;" horiz-adv-x="549" 
d="M249 745l53 145h99l-93 -145h-59zM92 0v697h394v-72h-316v-221h297v-72h-297v-260h323v-72h-401z" />
    <glyph glyph-name="Ecircumflex" unicode="&#xca;" horiz-adv-x="549" 
d="M133 769l126 121h62l126 -121h-91l-66 66l-66 -66h-91zM92 0v697h394v-72h-316v-221h297v-72h-297v-260h323v-72h-401z" />
    <glyph glyph-name="Edieresis" unicode="&#xcb;" horiz-adv-x="549" 
d="M393 763q-20 0 -35 14.5t-15 35.5t15 35.5t35 14.5t35 -14.5t15 -35.5t-15 -35.5t-35 -14.5zM187 763q-20 0 -35 14.5t-15 35.5t15 35.5t35 14.5t35 -14.5t15 -35.5t-15 -35.5t-35 -14.5zM92 0v697h394v-72h-316v-221h297v-72h-297v-260h323v-72h-401z" />
    <glyph glyph-name="Igrave" unicode="&#xcc;" horiz-adv-x="270" 
d="M106 745l-93 145h99l53 -145h-59zM96 0v697h78v-697h-78z" />
    <glyph glyph-name="Iacute" unicode="&#xcd;" horiz-adv-x="270" 
d="M104 745l53 145h99l-93 -145h-59zM96 0v697h78v-697h-78z" />
    <glyph glyph-name="Icircumflex" unicode="&#xce;" horiz-adv-x="270" 
d="M-22 769l126 121h62l126 -121h-91l-66 66l-66 -66h-91zM96 0v697h78v-697h-78z" />
    <glyph glyph-name="Idieresis" unicode="&#xcf;" horiz-adv-x="270" 
d="M228 763q-20 0 -35 14.5t-15 35.5t15 35.5t35 14.5t35 -14.5t15 -35.5t-15 -35.5t-35 -14.5zM42 763q-20 0 -35 14.5t-15 35.5t15 35.5t35 14.5t35 -14.5t15 -35.5t-15 -35.5t-35 -14.5zM96 0v697h78v-697h-78z" />
    <glyph glyph-name="Eth" unicode="&#xd0;" horiz-adv-x="722" 
d="M92 0v322h-65v72h65v303h224q82 0 149.5 -25.5t114.5 -72t71.5 -111t24.5 -140.5t-24.5 -140.5t-71 -111t-114 -71.5t-149.5 -25h-225zM170 72h141q70 0 125 20t90.5 57t53.5 88t18 111q0 61 -18 112t-54 88t-90.5 57t-125.5 20h-140v-231h145v-72h-145v-250z" />
    <glyph glyph-name="Ntilde" unicode="&#xd1;" horiz-adv-x="751" 
d="M224 762q3 29 17.5 51.5t34.5 31.5t38 9q27 0 63.5 -19.5t53.5 -19.5q36 0 46 41l49 -4q-5 -46 -28 -72t-64 -26q-28 0 -64.5 19.5t-53.5 19.5q-16 0 -27.5 -8.5t-15.5 -26.5zM92 0v697h68l421 -558v558h78v-697h-63l-426 564v-564h-78z" />
    <glyph glyph-name="Ograve" unicode="&#xd2;" horiz-adv-x="820" 
d="M385 745l-93 145h99l53 -145h-59zM47 348q0 76 28 143t78 116t117 76t140 27t140 -27t117 -76t78 -116t28 -143t-28 -143t-78 -116t-117 -76t-140 -27t-140 27t-117 76t-78 116t-28 143zM124 348q0 -60 21.5 -114t60.5 -93t91.5 -61t112.5 -22t112.5 22t91 61t60 93
t21.5 114t-21.5 114t-60 93t-91 61t-112.5 22t-112.5 -22t-91.5 -61t-60.5 -93t-21.5 -114z" />
    <glyph glyph-name="Oacute" unicode="&#xd3;" horiz-adv-x="820" 
d="M366 745l53 145h99l-93 -145h-59zM47 348q0 76 28 143t78 116t117 76t140 27t140 -27t117 -76t78 -116t28 -143t-28 -143t-78 -116t-117 -76t-140 -27t-140 27t-117 76t-78 116t-28 143zM124 348q0 -60 21.5 -114t60.5 -93t91.5 -61t112.5 -22t112.5 22t91 61t60 93
t21.5 114t-21.5 114t-60 93t-91 61t-112.5 22t-112.5 -22t-91.5 -61t-60.5 -93t-21.5 -114z" />
    <glyph glyph-name="Ocircumflex" unicode="&#xd4;" horiz-adv-x="820" 
d="M253 769l126 121h62l126 -121h-91l-66 66l-66 -66h-91zM47 348q0 76 28 143t78 116t117 76t140 27t140 -27t117 -76t78 -116t28 -143t-28 -143t-78 -116t-117 -76t-140 -27t-140 27t-117 76t-78 116t-28 143zM124 348q0 -60 21.5 -114t60.5 -93t91.5 -61t112.5 -22
t112.5 22t91 61t60 93t21.5 114t-21.5 114t-60 93t-91 61t-112.5 22t-112.5 -22t-91.5 -61t-60.5 -93t-21.5 -114z" />
    <glyph glyph-name="Otilde" unicode="&#xd5;" horiz-adv-x="820" 
d="M259 762q3 29 17.5 51.5t34.5 31.5t38 9q27 0 63.5 -19.5t53.5 -19.5q36 0 46 41l49 -4q-5 -46 -28 -72t-64 -26q-28 0 -64.5 19.5t-53.5 19.5q-16 0 -27.5 -8.5t-15.5 -26.5zM47 348q0 76 28 143t78 116t117 76t140 27t140 -27t117 -76t78 -116t28 -143t-28 -143
t-78 -116t-117 -76t-140 -27t-140 27t-117 76t-78 116t-28 143zM124 348q0 -60 21.5 -114t60.5 -93t91.5 -61t112.5 -22t112.5 22t91 61t60 93t21.5 114t-21.5 114t-60 93t-91 61t-112.5 22t-112.5 -22t-91.5 -61t-60.5 -93t-21.5 -114z" />
    <glyph glyph-name="Odieresis" unicode="&#xd6;" horiz-adv-x="820" 
d="M513 744q-20 0 -35 14.5t-15 35.5t15 35.5t35 14.5t35 -14.5t15 -35.5t-15 -35.5t-35 -14.5zM307 744q-20 0 -35 14.5t-15 35.5t15 35.5t35 14.5t35 -14.5t15 -35.5t-15 -35.5t-35 -14.5zM47 348q0 76 28 143t78 116t117 76t140 27t140 -27t117 -76t78 -116t28 -143
t-28 -143t-78 -116t-117 -76t-140 -27t-140 27t-117 76t-78 116t-28 143zM124 348q0 -60 21.5 -114t60.5 -93t91.5 -61t112.5 -22t112.5 22t91 61t60 93t21.5 114t-21.5 114t-60 93t-91 61t-112.5 22t-112.5 -22t-91.5 -61t-60.5 -93t-21.5 -114z" />
    <glyph glyph-name="multiply" unicode="&#xd7;" horiz-adv-x="384" 
d="M83 178l-45 47l108 108l-108 108l45 46l109 -109l108 109l46 -46l-108 -108l108 -108l-46 -47l-108 109z" />
    <glyph glyph-name="Oslash" unicode="&#xd8;" horiz-adv-x="820" 
d="M114 0l55 74q-57 50 -89.5 120.5t-32.5 153.5q0 76 28 143t78 116t117 76t140 27q105 0 194 -54l58 78l57 -43l-58 -78q52 -49 82 -118t30 -147q0 -76 -28 -143t-78 -116t-117 -76t-140 -27q-98 0 -183 47l-56 -75zM213 133l348 464q-68 41 -151 41q-60 0 -112.5 -22
t-91.5 -61t-60.5 -93t-21.5 -114q0 -64 23.5 -120t65.5 -95zM271 92q29 -16 66 -25t73 -9q60 0 112.5 22t91 61t60 93t21.5 114t-21 113t-58 92z" />
    <glyph glyph-name="Ugrave" unicode="&#xd9;" horiz-adv-x="696" 
d="M325 745l-93 145h99l53 -145h-59zM87 244v453h78v-445q0 -94 49 -143t134 -49t134 49t49 143v445h78v-453q0 -61 -19.5 -109.5t-54.5 -81t-83 -49t-104 -16.5t-104 16.5t-83 49t-54.5 81t-19.5 109.5z" />
    <glyph glyph-name="Uacute" unicode="&#xda;" horiz-adv-x="696" 
d="M315 745l53 145h99l-93 -145h-59zM87 244v453h78v-445q0 -94 49 -143t134 -49t134 49t49 143v445h78v-453q0 -61 -19.5 -109.5t-54.5 -81t-83 -49t-104 -16.5t-104 16.5t-83 49t-54.5 81t-19.5 109.5z" />
    <glyph glyph-name="Ucircumflex" unicode="&#xdb;" horiz-adv-x="696" 
d="M191 769l126 121h62l126 -121h-91l-66 66l-66 -66h-91zM87 244v453h78v-445q0 -94 49 -143t134 -49t134 49t49 143v445h78v-453q0 -61 -19.5 -109.5t-54.5 -81t-83 -49t-104 -16.5t-104 16.5t-83 49t-54.5 81t-19.5 109.5z" />
    <glyph glyph-name="Udieresis" unicode="&#xdc;" horiz-adv-x="696" 
d="M451 744q-20 0 -35 14.5t-15 35.5t15 35.5t35 14.5t35 -14.5t15 -35.5t-15 -35.5t-35 -14.5zM245 744q-20 0 -35 14.5t-15 35.5t15 35.5t35 14.5t35 -14.5t15 -35.5t-15 -35.5t-35 -14.5zM87 244v453h78v-445q0 -94 49 -143t134 -49t134 49t49 143v445h78v-453
q0 -61 -19.5 -109.5t-54.5 -81t-83 -49t-104 -16.5t-104 16.5t-83 49t-54.5 81t-19.5 109.5z" />
    <glyph glyph-name="Yacute" unicode="&#xdd;" horiz-adv-x="622" 
d="M279 745l53 145h99l-93 -145h-59zM273 0v286l-245 411h86l199 -334l197 334h84l-243 -411v-286h-78z" />
    <glyph glyph-name="Thorn" unicode="&#xde;" horiz-adv-x="490" 
d="M92 0v697h78v-149h65q51 0 91.5 -15.5t67.5 -43t41 -65t14 -81.5q0 -64 -27.5 -108.5t-72.5 -67t-107 -22.5h-72v-145h-78zM170 218h65q49 0 79 18t43.5 46t13.5 64q0 27 -7.5 49t-21 38.5t-40 29t-68.5 12.5h-64v-257z" />
    <glyph glyph-name="germandbls" unicode="&#xdf;" horiz-adv-x="550" 
d="M56 0v540q0 72 50 122t122 50q43 0 84.5 -22.5t64 -64t22.5 -84.5q0 -65 -45 -110q45 -9 83 -38.5t60.5 -74t22.5 -100.5q0 -48 -18 -91t-50.5 -74.5t-77.5 -49.5t-96 -18q-23 0 -51 5v76q24 -9 51 -9q67 0 115.5 47.5t48.5 113.5q0 24 -8.5 50.5t-29 50.5t-53 41
t-73.5 17q-10 0 -26 -3t-25 -6v70q44 8 69 34.5t25 67.5q0 19 -9.5 42.5t-32.5 40.5t-51 17q-18 0 -40.5 -10t-38 -35t-15.5 -55v-540h-78z" />
    <glyph glyph-name="agrave" unicode="&#xe0;" horiz-adv-x="629" 
d="M266 552l-93 145h99l53 -145h-59zM35 252q0 56 20 105.5t55 85.5t82 56t98 20q36 0 72 -10t64 -32t43 -48v75h74v-391q0 -33 9 -48t29 -15l26 2v-56q-18 -8 -47 -8q-33 0 -53 14q-29 22 -34 72q-17 -27 -47 -49t-66.5 -31t-69.5 -9q-51 0 -98 20t-82 56t-55 85.5
t-20 105.5zM109 252q0 -30 9 -64t34 -67t62.5 -50t75.5 -17q49 0 94.5 25.5t69.5 73t24 99.5t-24 99.5t-69.5 73t-94.5 25.5q-28 0 -59 -10t-61 -37.5t-45.5 -68.5t-15.5 -82z" />
    <glyph glyph-name="aacute" unicode="&#xe1;" horiz-adv-x="629" 
d="M261 552l53 145h99l-93 -145h-59zM35 252q0 56 20 105.5t55 85.5t82 56t98 20q36 0 72 -10t64 -32t43 -48v75h74v-391q0 -33 9 -48t29 -15l26 2v-56q-18 -8 -47 -8q-33 0 -53 14q-29 22 -34 72q-17 -27 -47 -49t-66.5 -31t-69.5 -9q-51 0 -98 20t-82 56t-55 85.5
t-20 105.5zM109 252q0 -30 9 -64t34 -67t62.5 -50t75.5 -17q49 0 94.5 25.5t69.5 73t24 99.5t-24 99.5t-69.5 73t-94.5 25.5q-28 0 -59 -10t-61 -37.5t-45.5 -68.5t-15.5 -82z" />
    <glyph glyph-name="acircumflex" unicode="&#xe2;" horiz-adv-x="629" 
d="M150 576l126 121h62l126 -121h-91l-66 66l-66 -66h-91zM35 252q0 56 20 105.5t55 85.5t82 56t98 20q36 0 72 -10t64 -32t43 -48v75h74v-391q0 -33 9 -48t29 -15l26 2v-56q-18 -8 -47 -8q-33 0 -53 14q-29 22 -34 72q-17 -27 -47 -49t-66.5 -31t-69.5 -9q-51 0 -98 20
t-82 56t-55 85.5t-20 105.5zM109 252q0 -30 9 -64t34 -67t62.5 -50t75.5 -17q49 0 94.5 25.5t69.5 73t24 99.5t-24 99.5t-69.5 73t-94.5 25.5q-28 0 -59 -10t-61 -37.5t-45.5 -68.5t-15.5 -82z" />
    <glyph glyph-name="atilde" unicode="&#xe3;" horiz-adv-x="629" 
d="M153 598q3 29 17.5 51.5t34.5 31.5t38 9q27 0 63.5 -19.5t53.5 -19.5q36 0 46 41l49 -4q-5 -46 -28 -72t-64 -26q-28 0 -64.5 19.5t-53.5 19.5q-16 0 -27.5 -8.5t-15.5 -26.5zM35 252q0 56 20 105.5t55 85.5t82 56t98 20q36 0 72 -10t64 -32t43 -48v75h74v-391
q0 -33 9 -48t29 -15l26 2v-56q-18 -8 -47 -8q-33 0 -53 14q-29 22 -34 72q-17 -27 -47 -49t-66.5 -31t-69.5 -9q-51 0 -98 20t-82 56t-55 85.5t-20 105.5zM109 252q0 -30 9 -64t34 -67t62.5 -50t75.5 -17q49 0 94.5 25.5t69.5 73t24 99.5t-24 99.5t-69.5 73t-94.5 25.5
q-28 0 -59 -10t-61 -37.5t-45.5 -68.5t-15.5 -82z" />
    <glyph glyph-name="adieresis" unicode="&#xe4;" horiz-adv-x="629" 
d="M405 586q-20 0 -35 14.5t-15 35.5t15 35.5t35 14.5t35 -14.5t15 -35.5t-15 -35.5t-35 -14.5zM199 586q-20 0 -35 14.5t-15 35.5t15 35.5t35 14.5t35 -14.5t15 -35.5t-15 -35.5t-35 -14.5zM35 252q0 56 20 105.5t55 85.5t82 56t98 20q36 0 72 -10t64 -32t43 -48v75h74
v-391q0 -33 9 -48t29 -15l26 2v-56q-18 -8 -47 -8q-33 0 -53 14q-29 22 -34 72q-17 -27 -47 -49t-66.5 -31t-69.5 -9q-51 0 -98 20t-82 56t-55 85.5t-20 105.5zM109 252q0 -30 9 -64t34 -67t62.5 -50t75.5 -17q49 0 94.5 25.5t69.5 73t24 99.5t-24 99.5t-69.5 73t-94.5 25.5
q-28 0 -59 -10t-61 -37.5t-45.5 -68.5t-15.5 -82z" />
    <glyph glyph-name="aring" unicode="&#xe5;" horiz-adv-x="629" 
d="M305 556q-40 0 -69 29t-29 69t29 68.5t69 28.5t68.5 -28.5t28.5 -68.5t-28.5 -69t-68.5 -29zM305 607q18 0 32 14t14 33q0 18 -14 32t-32 14q-19 0 -33 -14t-14 -32t14.5 -32.5t32.5 -14.5zM35 252q0 56 20 105.5t55 85.5t82 56t98 20q36 0 72 -10t64 -32t43 -48v75h74
v-391q0 -33 9 -48t29 -15l26 2v-56q-18 -8 -47 -8q-33 0 -53 14q-29 22 -34 72q-17 -27 -47 -49t-66.5 -31t-69.5 -9q-51 0 -98 20t-82 56t-55 85.5t-20 105.5zM109 252q0 -30 9 -64t34 -67t62.5 -50t75.5 -17q49 0 94.5 25.5t69.5 73t24 99.5t-24 99.5t-69.5 73t-94.5 25.5
q-28 0 -59 -10t-61 -37.5t-45.5 -68.5t-15.5 -82z" />
    <glyph glyph-name="ae" unicode="&#xe6;" horiz-adv-x="999" 
d="M35 252q0 56 20 105.5t55 85.5t82 56t98 20q36 0 72 -10t64 -32t43 -48v75h74v-90q12 21 37 45.5t65.5 42t82.5 17.5q47 0 90.5 -20t76.5 -56t51.5 -85.5t18.5 -105.5l-1 -16h-409q3 -83 50.5 -132.5t124.5 -49.5q40 0 76.5 12.5t83.5 57.5l49 -48q-46 -50 -97 -70.5
t-112 -20.5q-63 0 -112 25t-75 68v-78h-74v75q-15 -26 -43 -48t-64 -32t-72 -10q-51 0 -98 20t-82 56t-55 85.5t-20 105.5zM109 252q0 -30 9 -64t34 -67t62.5 -50t75.5 -17q49 0 94.5 25.5t69.5 73t24 99.5t-24 99.5t-69.5 73t-94.5 25.5q-28 0 -59 -10t-61 -37.5
t-45.5 -68.5t-15.5 -82zM560 301h326q-9 48 -34.5 82t-56.5 50.5t-67 16.5q-62 0 -108.5 -42t-59.5 -107z" />
    <glyph glyph-name="ccedilla" unicode="&#xe7;" horiz-adv-x="517" 
d="M35 252q0 56 21 105.5t58 85.5t86 56t103 20q56 0 105.5 -19.5t85.5 -56.5l-45 -52q-28 29 -66 44t-80 15q-30 0 -63 -10t-65.5 -37t-49 -68.5t-16.5 -82.5t14.5 -77.5t40.5 -63.5t62 -42t77 -15q42 0 80 15t66 44l45 -52q-36 -37 -85.5 -56.5t-105.5 -19.5h-9l-14 -31
q27 0 46.5 -19.5t19.5 -51.5q0 -41 -27.5 -61t-75.5 -20q-19 0 -41 7.5t-33 15.5l19 39q28 -17 54 -17q19 0 31.5 10t12.5 26q0 18 -13.5 29.5t-59.5 11.5l28 68q-66 15 -112.5 55.5t-70 92.5t-23.5 112z" />
    <glyph glyph-name="egrave" unicode="&#xe8;" horiz-adv-x="551" 
d="M272 552l-93 145h99l53 -145h-59zM35 246v4q0 59 19 109.5t53 86t80.5 54.5t99.5 19q51 0 94 -19.5t74 -54t47.5 -80.5t16.5 -97l-1 -32h-409q3 -83 52 -132.5t128 -49.5q38 0 75.5 13t79.5 57l49 -48q-22 -24 -52.5 -46t-69.5 -32.5t-82 -10.5q-55 0 -102 18.5t-81 52.5
t-52.5 82.5t-18.5 105.5zM114 301h326q0 29 -15 63.5t-53 60t-85 25.5q-68 0 -118.5 -43.5t-54.5 -105.5z" />
    <glyph glyph-name="eacute" unicode="&#xe9;" horiz-adv-x="551" 
d="M258 552l53 145h99l-93 -145h-59zM35 246v4q0 59 19 109.5t53 86t80.5 54.5t99.5 19q51 0 94 -19.5t74 -54t47.5 -80.5t16.5 -97l-1 -32h-409q3 -83 52 -132.5t128 -49.5q38 0 75.5 13t79.5 57l49 -48q-22 -24 -52.5 -46t-69.5 -32.5t-82 -10.5q-55 0 -102 18.5t-81 52.5
t-52.5 82.5t-18.5 105.5zM114 301h326q0 29 -15 63.5t-53 60t-85 25.5q-68 0 -118.5 -43.5t-54.5 -105.5z" />
    <glyph glyph-name="ecircumflex" unicode="&#xea;" horiz-adv-x="551" 
d="M132 576l126 121h62l126 -121h-91l-66 66l-66 -66h-91zM35 246v4q0 59 19 109.5t53 86t80.5 54.5t99.5 19q51 0 94 -19.5t74 -54t47.5 -80.5t16.5 -97l-1 -32h-409q3 -83 52 -132.5t128 -49.5q38 0 75.5 13t79.5 57l49 -48q-22 -24 -52.5 -46t-69.5 -32.5t-82 -10.5
q-55 0 -102 18.5t-81 52.5t-52.5 82.5t-18.5 105.5zM114 301h326q0 29 -15 63.5t-53 60t-85 25.5q-68 0 -118.5 -43.5t-54.5 -105.5z" />
    <glyph glyph-name="edieresis" unicode="&#xeb;" horiz-adv-x="551" 
d="M391 586q-20 0 -35 14.5t-15 35.5t15 35.5t35 14.5t35 -14.5t15 -35.5t-15 -35.5t-35 -14.5zM185 586q-20 0 -35 14.5t-15 35.5t15 35.5t35 14.5t35 -14.5t15 -35.5t-15 -35.5t-35 -14.5zM35 246v4q0 59 19 109.5t53 86t80.5 54.5t99.5 19q51 0 94 -19.5t74 -54
t47.5 -80.5t16.5 -97l-1 -32h-409q3 -83 52 -132.5t128 -49.5q38 0 75.5 13t79.5 57l49 -48q-22 -24 -52.5 -46t-69.5 -32.5t-82 -10.5q-55 0 -102 18.5t-81 52.5t-52.5 82.5t-18.5 105.5zM114 301h326q0 29 -15 63.5t-53 60t-85 25.5q-68 0 -118.5 -43.5t-54.5 -105.5z" />
    <glyph glyph-name="igrave" unicode="&#xec;" horiz-adv-x="212" 
d="M72 552l-93 145h99l53 -145h-59zM58 95v409h74v-396q0 -28 8.5 -40.5t29.5 -12.5l26 2v-61q-18 -8 -47 -8q-91 0 -91 107z" />
    <glyph glyph-name="iacute" unicode="&#xed;" horiz-adv-x="212" 
d="M60 552l53 145h99l-93 -145h-59zM58 95v409h74v-396q0 -28 8.5 -40.5t29.5 -12.5l26 2v-61q-18 -8 -47 -8q-91 0 -91 107z" />
    <glyph glyph-name="icircumflex" unicode="&#xee;" horiz-adv-x="212" 
d="M-37 576l101 121h62l101 -121h-86l-46 72l-46 -72h-86zM58 95v409h74v-396q0 -28 8.5 -40.5t29.5 -12.5l26 2v-61q-18 -8 -47 -8q-91 0 -91 107z" />
    <glyph glyph-name="idieresis" unicode="&#xef;" horiz-adv-x="212" 
d="M167 586q-20 0 -35 14.5t-15 35.5t15 35.5t35 14.5t35 -14.5t15 -35.5t-15 -35.5t-35 -14.5zM23 586q-20 0 -35 14.5t-15 35.5t15 35.5t35 14.5t35 -14.5t15 -35.5t-15 -35.5t-35 -14.5zM58 95v409h74v-396q0 -28 8.5 -40.5t29.5 -12.5l26 2v-61q-18 -8 -47 -8
q-91 0 -91 107z" />
    <glyph glyph-name="eth" unicode="&#xf0;" horiz-adv-x="536" 
d="M35 217q0 48 18 91t49.5 74.5t72 49t83.5 17.5q47 0 90 -19t66 -51q-16 49 -54 98t-77 79l-78 -74l-48 51l67 64q-60 35 -119 46l14 70q35 -6 78.5 -23.5t81.5 -40.5l85 80l48 -51l-75 -71q58 -48 99 -115t56 -147q9 -53 9 -101q0 -27 -5 -60.5t-19 -67t-40.5 -63.5
t-70.5 -49t-98 -19q-35 0 -74 11.5t-78.5 43.5t-60 80t-20.5 97zM113 217q0 -68 44.5 -114t110.5 -46t110.5 46t44.5 114t-44.5 114t-110.5 46t-110.5 -46t-44.5 -114z" />
    <glyph glyph-name="ntilde" unicode="&#xf1;" horiz-adv-x="554" 
d="M128 598q3 29 17.5 51.5t34.5 31.5t38 9q27 0 63.5 -19.5t53.5 -19.5q36 0 46 41l49 -4q-5 -46 -28 -72t-64 -26q-28 0 -64.5 19.5t-53.5 19.5q-16 0 -27.5 -8.5t-15.5 -26.5zM57 0v504h74v-85q15 30 42 53t58.5 31.5t58.5 8.5q84 0 134 -52.5t50 -137.5v-208
q0 -30 7 -41.5t28 -11.5l19 2v-61q-12 -5 -32 -5q-96 0 -96 112v197q0 63 -34.5 100t-94.5 37q-62 0 -101 -39.5t-39 -102.5v-301h-74z" />
    <glyph glyph-name="ograve" unicode="&#xf2;" horiz-adv-x="606" 
d="M272 552l-93 145h99l53 -145h-59zM35 252q0 56 21 105.5t58 85.5t86 56t103 20t103 -20t86 -56t58 -85.5t21 -105.5t-21 -105.5t-58 -85.5t-86 -56t-103 -20t-103 20t-86 56t-58 85.5t-21 105.5zM109 252q0 -41 14.5 -77.5t40.5 -63.5t62 -42t77 -15q30 0 63 10t65.5 37
t49 68.5t16.5 82.5t-14.5 77.5t-40.5 63.5t-62 42t-77 15q-30 0 -63 -10t-65.5 -37t-49 -68.5t-16.5 -82.5z" />
    <glyph glyph-name="oacute" unicode="&#xf3;" horiz-adv-x="606" 
d="M275 552l53 145h99l-93 -145h-59zM35 252q0 56 21 105.5t58 85.5t86 56t103 20t103 -20t86 -56t58 -85.5t21 -105.5t-21 -105.5t-58 -85.5t-86 -56t-103 -20t-103 20t-86 56t-58 85.5t-21 105.5zM109 252q0 -41 14.5 -77.5t40.5 -63.5t62 -42t77 -15q30 0 63 10t65.5 37
t49 68.5t16.5 82.5t-14.5 77.5t-40.5 63.5t-62 42t-77 15q-30 0 -63 -10t-65.5 -37t-49 -68.5t-16.5 -82.5z" />
    <glyph glyph-name="ocircumflex" unicode="&#xf4;" horiz-adv-x="606" 
d="M146 576l126 121h62l126 -121h-91l-66 66l-66 -66h-91zM35 252q0 56 21 105.5t58 85.5t86 56t103 20t103 -20t86 -56t58 -85.5t21 -105.5t-21 -105.5t-58 -85.5t-86 -56t-103 -20t-103 20t-86 56t-58 85.5t-21 105.5zM109 252q0 -41 14.5 -77.5t40.5 -63.5t62 -42t77 -15
q30 0 63 10t65.5 37t49 68.5t16.5 82.5t-14.5 77.5t-40.5 63.5t-62 42t-77 15q-30 0 -63 -10t-65.5 -37t-49 -68.5t-16.5 -82.5z" />
    <glyph glyph-name="otilde" unicode="&#xf5;" horiz-adv-x="606" 
d="M151 598q3 29 17.5 51.5t34.5 31.5t38 9q27 0 63.5 -19.5t53.5 -19.5q36 0 46 41l49 -4q-5 -46 -28 -72t-64 -26q-28 0 -64.5 19.5t-53.5 19.5q-16 0 -27.5 -8.5t-15.5 -26.5zM35 252q0 56 21 105.5t58 85.5t86 56t103 20t103 -20t86 -56t58 -85.5t21 -105.5t-21 -105.5
t-58 -85.5t-86 -56t-103 -20t-103 20t-86 56t-58 85.5t-21 105.5zM109 252q0 -41 14.5 -77.5t40.5 -63.5t62 -42t77 -15q30 0 63 10t65.5 37t49 68.5t16.5 82.5t-14.5 77.5t-40.5 63.5t-62 42t-77 15q-30 0 -63 -10t-65.5 -37t-49 -68.5t-16.5 -82.5z" />
    <glyph glyph-name="odieresis" unicode="&#xf6;" horiz-adv-x="606" 
d="M406 586q-20 0 -35 14.5t-15 35.5t15 35.5t35 14.5t35 -14.5t15 -35.5t-15 -35.5t-35 -14.5zM200 586q-20 0 -35 14.5t-15 35.5t15 35.5t35 14.5t35 -14.5t15 -35.5t-15 -35.5t-35 -14.5zM35 252q0 56 21 105.5t58 85.5t86 56t103 20t103 -20t86 -56t58 -85.5t21 -105.5
t-21 -105.5t-58 -85.5t-86 -56t-103 -20t-103 20t-86 56t-58 85.5t-21 105.5zM109 252q0 -41 14.5 -77.5t40.5 -63.5t62 -42t77 -15q30 0 63 10t65.5 37t49 68.5t16.5 82.5t-14.5 77.5t-40.5 63.5t-62 42t-77 15q-30 0 -63 -10t-65.5 -37t-49 -68.5t-16.5 -82.5z" />
    <glyph glyph-name="divide" unicode="&#xf7;" horiz-adv-x="426" 
d="M213 436q-20 0 -35 14.5t-15 35.5t15 35.5t35 14.5t35 -14.5t15 -35.5t-15 -35.5t-35 -14.5zM42 313v69h342v-69h-342zM213 159q-20 0 -35 14.5t-15 35.5t15 35.5t35 14.5t35 -14.5t15 -35.5t-15 -35.5t-35 -14.5z" />
    <glyph glyph-name="oslash" unicode="&#xf8;" horiz-adv-x="606" 
d="M79 1l40 54q-39 36 -61.5 87.5t-22.5 109.5q0 56 21 105.5t58 85.5t86 56t103 20q33 0 68.5 -9t63.5 -24l37 51l54 -39l-38 -50q38 -36 60.5 -87.5t22.5 -108.5q0 -56 -21 -105.5t-58 -85.5t-86 -56t-103 -20q-32 0 -67.5 9t-62.5 23l-41 -56zM162 113l231 316
q-42 21 -90 21q-30 0 -63 -10t-65.5 -37t-49 -68.5t-16.5 -82.5q0 -40 14 -76.5t39 -62.5zM215 74q40 -20 88 -20q30 0 63 10t65.5 37t49 68.5t16.5 82.5q0 39 -13.5 75t-37.5 62z" />
    <glyph glyph-name="ugrave" unicode="&#xf9;" horiz-adv-x="547" 
d="M237 552l-93 145h99l53 -145h-59zM51 182v322h74v-306q0 -29 11 -62t41 -54t73 -21q60 0 98.5 39.5t38.5 102.5v301h74v-387q0 -33 9 -48t29 -15l26 2v-56q-16 -8 -47 -8q-41 0 -62 23q-18 19 -23 50q-14 -21 -40 -39.5t-58.5 -26t-62.5 -7.5q-83 0 -132 52.5t-49 137.5z
" />
    <glyph glyph-name="uacute" unicode="&#xfa;" horiz-adv-x="547" 
d="M228 552l53 145h99l-93 -145h-59zM51 182v322h74v-306q0 -29 11 -62t41 -54t73 -21q60 0 98.5 39.5t38.5 102.5v301h74v-387q0 -33 9 -48t29 -15l26 2v-56q-16 -8 -47 -8q-41 0 -62 23q-18 19 -23 50q-14 -21 -40 -39.5t-58.5 -26t-62.5 -7.5q-83 0 -132 52.5t-49 137.5z
" />
    <glyph glyph-name="ucircumflex" unicode="&#xfb;" horiz-adv-x="547" 
d="M106 576l126 121h62l126 -121h-91l-66 66l-66 -66h-91zM51 182v322h74v-306q0 -29 11 -62t41 -54t73 -21q60 0 98.5 39.5t38.5 102.5v301h74v-387q0 -33 9 -48t29 -15l26 2v-56q-16 -8 -47 -8q-41 0 -62 23q-18 19 -23 50q-14 -21 -40 -39.5t-58.5 -26t-62.5 -7.5
q-83 0 -132 52.5t-49 137.5z" />
    <glyph glyph-name="udieresis" unicode="&#xfc;" horiz-adv-x="547" 
d="M366 586q-20 0 -35 14.5t-15 35.5t15 35.5t35 14.5t35 -14.5t15 -35.5t-15 -35.5t-35 -14.5zM160 586q-20 0 -35 14.5t-15 35.5t15 35.5t35 14.5t35 -14.5t15 -35.5t-15 -35.5t-35 -14.5zM51 182v322h74v-306q0 -29 11 -62t41 -54t73 -21q60 0 98.5 39.5t38.5 102.5v301
h74v-387q0 -33 9 -48t29 -15l26 2v-56q-16 -8 -47 -8q-41 0 -62 23q-18 19 -23 50q-14 -21 -40 -39.5t-58.5 -26t-62.5 -7.5q-83 0 -132 52.5t-49 137.5z" />
    <glyph glyph-name="yacute" unicode="&#xfd;" horiz-adv-x="502" 
d="M223 552l53 145h99l-93 -145h-59zM64 -132q21 -8 50 -8q26 0 43 11q22 16 40 61l22 57l-204 515h74l166 -425l160 425h74l-228 -590q-21 -55 -49 -85q-37 -38 -98 -38q-29 0 -50 9v68z" />
    <glyph glyph-name="thorn" unicode="&#xfe;" horiz-adv-x="600" 
d="M57 -193v890h74v-268q15 26 43 48t64 32t72 10q51 0 98 -20t82 -56t55 -85.5t20 -105.5t-20 -105.5t-55 -85.5t-82 -56t-98 -20q-36 0 -72 10t-64 32t-43 48v-268h-74zM122 252q0 -52 24 -99.5t69.5 -73t94.5 -25.5q28 0 59 10t61 37.5t45.5 68.5t15.5 82q0 30 -9 64
t-34 67t-62.5 50t-75.5 17q-49 0 -94.5 -25.5t-69.5 -73t-24 -99.5z" />
    <glyph glyph-name="ydieresis" unicode="&#xff;" horiz-adv-x="502" 
d="M361 586q-20 0 -35 14.5t-15 35.5t15 35.5t35 14.5t35 -14.5t15 -35.5t-15 -35.5t-35 -14.5zM155 586q-20 0 -35 14.5t-15 35.5t15 35.5t35 14.5t35 -14.5t15 -35.5t-15 -35.5t-35 -14.5zM64 -132q21 -8 50 -8q26 0 43 11q22 16 40 61l22 57l-204 515h74l166 -425
l160 425h74l-228 -590q-21 -55 -49 -85q-37 -38 -98 -38q-29 0 -50 9v68z" />
    <glyph glyph-name="Amacron" unicode="&#x100;" horiz-adv-x="720" 
d="M213 769v69h294v-69h-294zM35 0l295 697h60l295 -697h-84l-72 172h-338l-72 -172h-84zM221 244h278l-139 332z" />
    <glyph glyph-name="amacron" unicode="&#x101;" horiz-adv-x="629" 
d="M160 601v69h294v-69h-294zM35 252q0 56 20 105.5t55 85.5t82 56t98 20q36 0 72 -10t64 -32t43 -48v75h74v-391q0 -33 9 -48t29 -15l26 2v-56q-18 -8 -47 -8q-33 0 -53 14q-29 22 -34 72q-17 -27 -47 -49t-66.5 -31t-69.5 -9q-51 0 -98 20t-82 56t-55 85.5t-20 105.5z
M109 252q0 -30 9 -64t34 -67t62.5 -50t75.5 -17q49 0 94.5 25.5t69.5 73t24 99.5t-24 99.5t-69.5 73t-94.5 25.5q-28 0 -59 -10t-61 -37.5t-45.5 -68.5t-15.5 -82z" />
    <glyph glyph-name="Abreve" unicode="&#x102;" horiz-adv-x="720" 
d="M360 751q-27 0 -60.5 12.5t-61.5 45.5t-34 81h69q23 -73 87 -73t87 73h69q-6 -48 -34 -81t-61.5 -45.5t-60.5 -12.5zM35 0l295 697h60l295 -697h-84l-72 172h-338l-72 -172h-84zM221 244h278l-139 332z" />
    <glyph glyph-name="abreve" unicode="&#x103;" horiz-adv-x="629" 
d="M291 558q-27 0 -60.5 12.5t-61.5 45.5t-34 81h69q23 -73 87 -73t87 73h69q-6 -48 -34 -81t-61.5 -45.5t-60.5 -12.5zM35 252q0 56 20 105.5t55 85.5t82 56t98 20q36 0 72 -10t64 -32t43 -48v75h74v-391q0 -33 9 -48t29 -15l26 2v-56q-18 -8 -47 -8q-33 0 -53 14
q-29 22 -34 72q-17 -27 -47 -49t-66.5 -31t-69.5 -9q-51 0 -98 20t-82 56t-55 85.5t-20 105.5zM109 252q0 -30 9 -64t34 -67t62.5 -50t75.5 -17q49 0 94.5 25.5t69.5 73t24 99.5t-24 99.5t-69.5 73t-94.5 25.5q-28 0 -59 -10t-61 -37.5t-45.5 -68.5t-15.5 -82z" />
    <glyph glyph-name="Aogonek" unicode="&#x104;" horiz-adv-x="720" 
d="M35 0l295 697h60l295 -697q-21 -7 -42 -25.5t-30.5 -37t-9.5 -32.5q0 -22 14.5 -33.5t35.5 -11.5q31 0 58 15l-13 -59q-28 -14 -57 -14t-54.5 14t-36 35t-10.5 40q0 23 14 49.5t50 51.5l-1 2l-75 178h-337l-72 -172h-84zM221 244h277l-138 332z" />
    <glyph glyph-name="aogonek" unicode="&#x105;" horiz-adv-x="629" 
d="M35 252q0 56 20 105.5t55 85.5t82 56t98 20q36 0 72 -10t64 -32t43 -48v75h74v-391q0 -33 9 -48t29 -15l26 2v-56q-27 -10 -51.5 -26.5t-34.5 -33.5t-10 -31q0 -22 14.5 -33.5t35.5 -11.5q31 0 58 15l-13 -59q-28 -14 -57 -14t-54.5 14t-36 35t-10.5 40q0 35 22 62t54 40
l-17 9q-29 22 -34 72q-17 -27 -47 -49t-66.5 -31t-69.5 -9q-51 0 -98 20t-82 56t-55 85.5t-20 105.5zM109 252q0 -30 9 -64t34 -67t62.5 -50t75.5 -17q49 0 94.5 25.5t69.5 73t24 99.5t-24 99.5t-69.5 73t-94.5 25.5q-28 0 -59 -10t-61 -37.5t-45.5 -68.5t-15.5 -82z" />
    <glyph glyph-name="Cacute" unicode="&#x106;" horiz-adv-x="711" 
d="M376 745l53 145h99l-93 -145h-59zM47 348q0 76 28 143t78 116t117 76t140 27q78 0 147.5 -31.5t118.5 -86.5l-53 -48q-38 44 -93.5 69t-119.5 25q-60 0 -112.5 -22t-91 -61t-60 -93t-21.5 -114t21.5 -114t60 -93t91 -61t112.5 -22q65 0 121.5 26t94.5 72l53 -48
q-49 -57 -120 -89.5t-149 -32.5q-73 0 -140 27t-117 76t-78 116t-28 143z" />
    <glyph glyph-name="cacute" unicode="&#x107;" horiz-adv-x="517" 
d="M270 552l53 145h99l-93 -145h-59zM35 252q0 56 21 105.5t58 85.5t86 56t103 20q56 0 105.5 -19.5t85.5 -56.5l-45 -52q-28 29 -66 44t-80 15q-30 0 -63 -10t-65.5 -37t-49 -68.5t-16.5 -82.5t14.5 -77.5t40.5 -63.5t62 -42t77 -15q42 0 80 15t66 44l45 -52
q-36 -37 -85.5 -56.5t-105.5 -19.5q-54 0 -103 20t-86 56t-58 85.5t-21 105.5z" />
    <glyph glyph-name="Ccircumflex" unicode="&#x108;" horiz-adv-x="711" 
d="M261 769l126 121h62l126 -121h-91l-66 66l-66 -66h-91zM47 348q0 76 28 143t78 116t117 76t140 27q78 0 147.5 -31.5t118.5 -86.5l-53 -48q-38 44 -93.5 69t-119.5 25q-60 0 -112.5 -22t-91 -61t-60 -93t-21.5 -114t21.5 -114t60 -93t91 -61t112.5 -22q65 0 121.5 26
t94.5 72l53 -48q-49 -57 -120 -89.5t-149 -32.5q-73 0 -140 27t-117 76t-78 116t-28 143z" />
    <glyph glyph-name="ccircumflex" unicode="&#x109;" horiz-adv-x="517" 
d="M147 576l126 121h62l126 -121h-91l-66 66l-66 -66h-91zM35 252q0 56 21 105.5t58 85.5t86 56t103 20q56 0 105.5 -19.5t85.5 -56.5l-45 -52q-28 29 -66 44t-80 15q-30 0 -63 -10t-65.5 -37t-49 -68.5t-16.5 -82.5t14.5 -77.5t40.5 -63.5t62 -42t77 -15q42 0 80 15t66 44
l45 -52q-36 -37 -85.5 -56.5t-105.5 -19.5q-54 0 -103 20t-86 56t-58 85.5t-21 105.5z" />
    <glyph glyph-name="Cdotaccent" unicode="&#x10a;" horiz-adv-x="711" 
d="M405 763q-20 0 -35 14.5t-15 35.5t15 35.5t35 14.5t35 -14.5t15 -35.5t-15 -35.5t-35 -14.5zM47 348q0 76 28 143t78 116t117 76t140 27q78 0 147.5 -31.5t118.5 -86.5l-53 -48q-38 44 -93.5 69t-119.5 25q-60 0 -112.5 -22t-91 -61t-60 -93t-21.5 -114t21.5 -114t60 -93
t91 -61t112.5 -22q65 0 121.5 26t94.5 72l53 -48q-49 -57 -120 -89.5t-149 -32.5q-73 0 -140 27t-117 76t-78 116t-28 143z" />
    <glyph glyph-name="cdotaccent" unicode="&#x10b;" horiz-adv-x="517" 
d="M300 576q-20 0 -35 14.5t-15 35.5t15 35.5t35 14.5t35 -14.5t15 -35.5t-15 -35.5t-35 -14.5zM35 252q0 56 21 105.5t58 85.5t86 56t103 20q56 0 105.5 -19.5t85.5 -56.5l-45 -52q-28 29 -66 44t-80 15q-30 0 -63 -10t-65.5 -37t-49 -68.5t-16.5 -82.5t14.5 -77.5
t40.5 -63.5t62 -42t77 -15q42 0 80 15t66 44l45 -52q-36 -37 -85.5 -56.5t-105.5 -19.5q-54 0 -103 20t-86 56t-58 85.5t-21 105.5z" />
    <glyph glyph-name="Ccaron" unicode="&#x10c;" horiz-adv-x="711" 
d="M380 769l-126 121h91l66 -66l66 66h91l-126 -121h-62zM47 348q0 76 28 143t78 116t117 76t140 27q78 0 147.5 -31.5t118.5 -86.5l-53 -48q-38 44 -93.5 69t-119.5 25q-60 0 -112.5 -22t-91 -61t-60 -93t-21.5 -114t21.5 -114t60 -93t91 -61t112.5 -22q65 0 121.5 26
t94.5 72l53 -48q-49 -57 -120 -89.5t-149 -32.5q-73 0 -140 27t-117 76t-78 116t-28 143z" />
    <glyph glyph-name="ccaron" unicode="&#x10d;" horiz-adv-x="517" 
d="M269 576l-126 121h91l66 -66l66 66h91l-126 -121h-62zM35 252q0 56 21 105.5t58 85.5t86 56t103 20q56 0 105.5 -19.5t85.5 -56.5l-45 -52q-28 29 -66 44t-80 15q-30 0 -63 -10t-65.5 -37t-49 -68.5t-16.5 -82.5t14.5 -77.5t40.5 -63.5t62 -42t77 -15q42 0 80 15t66 44
l45 -52q-36 -37 -85.5 -56.5t-105.5 -19.5q-54 0 -103 20t-86 56t-58 85.5t-21 105.5z" />
    <glyph glyph-name="Dcaron" unicode="&#x10e;" horiz-adv-x="726" 
d="M324 769l-126 121h91l66 -66l66 66h91l-126 -121h-62zM92 0v697h224q82 0 149.5 -25.5t114.5 -72t71.5 -111t24.5 -140.5t-24.5 -140.5t-71 -111t-114 -71.5t-149.5 -25h-225zM170 72h141q70 0 125 20t90.5 57t53.5 88t18 111q0 61 -18 112t-54 88t-90.5 57t-125.5 20
h-140v-553z" />
    <glyph glyph-name="dcaron" unicode="&#x10f;" horiz-adv-x="777" 
d="M578 552l53 145h99l-93 -145h-59zM35 252q0 56 20 105.5t55 85.5t82 56t98 20q36 0 72 -10t64 -32t43 -48v268h74v-584q0 -33 9 -48t29 -15l26 2v-56q-18 -8 -47 -8q-33 0 -53 14q-29 22 -34 72q-17 -27 -47 -49t-66.5 -31t-69.5 -9q-51 0 -98 20t-82 56t-55 85.5
t-20 105.5zM109 252q0 -30 9 -64t34 -67t62.5 -50t75.5 -17q49 0 94.5 25.5t69.5 73t24 99.5t-24 99.5t-69.5 73t-94.5 25.5q-28 0 -59 -10t-61 -37.5t-45.5 -68.5t-15.5 -82z" />
    <glyph glyph-name="Dcroat" unicode="&#x110;" horiz-adv-x="722" 
d="M92 0v322h-65v72h65v303h224q82 0 149.5 -25.5t114.5 -72t71.5 -111t24.5 -140.5t-24.5 -140.5t-71 -111t-114 -71.5t-149.5 -25h-225zM170 72h141q70 0 125 20t90.5 57t53.5 88t18 111q0 61 -18 112t-54 88t-90.5 57t-125.5 20h-140v-231h145v-72h-145v-250z" />
    <glyph glyph-name="dcroat" unicode="&#x111;" horiz-adv-x="629" 
d="M35 252q0 56 20 105.5t55 85.5t82 56t98 20q36 0 72 -10t64 -32t43 -48v146h-198v60h198v62h74v-62h57v-60h-57v-462q0 -33 9 -48t29 -15l26 2v-56q-18 -8 -47 -8q-33 0 -53 14q-29 22 -34 72q-17 -27 -47 -49t-66.5 -31t-69.5 -9q-51 0 -98 20t-82 56t-55 85.5
t-20 105.5zM109 252q0 -30 9 -64t34 -67t62.5 -50t75.5 -17q49 0 94.5 25.5t69.5 73t24 99.5t-24 99.5t-69.5 73t-94.5 25.5q-28 0 -59 -10t-61 -37.5t-45.5 -68.5t-15.5 -82z" />
    <glyph glyph-name="Emacron" unicode="&#x112;" horiz-adv-x="549" 
d="M140 769v69h294v-69h-294zM92 0v697h394v-72h-316v-221h297v-72h-297v-260h323v-72h-401z" />
    <glyph glyph-name="emacron" unicode="&#x113;" horiz-adv-x="551" 
d="M142 601v69h294v-69h-294zM35 246v4q0 59 19 109.5t53 86t80.5 54.5t99.5 19q51 0 94 -19.5t74 -54t47.5 -80.5t16.5 -97l-1 -32h-409q3 -83 52 -132.5t128 -49.5q38 0 75.5 13t79.5 57l49 -48q-22 -24 -52.5 -46t-69.5 -32.5t-82 -10.5q-55 0 -102 18.5t-81 52.5
t-52.5 82.5t-18.5 105.5zM114 301h326q0 29 -15 63.5t-53 60t-85 25.5q-68 0 -118.5 -43.5t-54.5 -105.5z" />
    <glyph glyph-name="Ebreve" unicode="&#x114;" horiz-adv-x="549" 
d="M292 751q-27 0 -60.5 12.5t-61.5 45.5t-34 81h69q23 -73 87 -73t87 73h69q-6 -48 -34 -81t-61.5 -45.5t-60.5 -12.5zM92 0v697h394v-72h-316v-221h297v-72h-297v-260h323v-72h-401z" />
    <glyph glyph-name="ebreve" unicode="&#x115;" horiz-adv-x="551" 
d="M288 558q-27 0 -60.5 12.5t-61.5 45.5t-34 81h69q23 -73 87 -73t87 73h69q-6 -48 -34 -81t-61.5 -45.5t-60.5 -12.5zM35 246v4q0 59 19 109.5t53 86t80.5 54.5t99.5 19q51 0 94 -19.5t74 -54t47.5 -80.5t16.5 -97l-1 -32h-409q3 -83 52 -132.5t128 -49.5q38 0 75.5 13
t79.5 57l49 -48q-22 -24 -52.5 -46t-69.5 -32.5t-82 -10.5q-55 0 -102 18.5t-81 52.5t-52.5 82.5t-18.5 105.5zM114 301h326q0 29 -15 63.5t-53 60t-85 25.5q-68 0 -118.5 -43.5t-54.5 -105.5z" />
    <glyph glyph-name="Edotaccent" unicode="&#x116;" horiz-adv-x="549" 
d="M293 763q-20 0 -35 14.5t-15 35.5t15 35.5t35 14.5t35 -14.5t15 -35.5t-15 -35.5t-35 -14.5zM92 0v697h394v-72h-316v-221h297v-72h-297v-260h323v-72h-401z" />
    <glyph glyph-name="edotaccent" unicode="&#x117;" horiz-adv-x="551" 
d="M288 586q-20 0 -35 14.5t-15 35.5t15 35.5t35 14.5t35 -14.5t15 -35.5t-15 -35.5t-35 -14.5zM35 246v4q0 59 19 109.5t53 86t80.5 54.5t99.5 19q51 0 94 -19.5t74 -54t47.5 -80.5t16.5 -97l-1 -32h-409q3 -83 52 -132.5t128 -49.5q38 0 75.5 13t79.5 57l49 -48
q-22 -24 -52.5 -46t-69.5 -32.5t-82 -10.5q-55 0 -102 18.5t-81 52.5t-52.5 82.5t-18.5 105.5zM114 301h326q0 29 -15 63.5t-53 60t-85 25.5q-68 0 -118.5 -43.5t-54.5 -105.5z" />
    <glyph glyph-name="Eogonek" unicode="&#x118;" horiz-adv-x="549" 
d="M92 0v697h394v-72h-316v-221h297v-72h-297v-260h323v-72q-40 -25 -58 -50t-18 -45q0 -22 14.5 -33.5t35.5 -11.5q31 0 58 15l-13 -59q-28 -14 -57 -14t-54.5 14t-36 35t-10.5 40q0 25 17 54t58 55h-337z" />
    <glyph glyph-name="eogonek" unicode="&#x119;" horiz-adv-x="551" 
d="M35 246v4q0 59 19 109.5t53 86t80.5 54.5t99.5 19q51 0 94 -19.5t74 -54t47.5 -80.5t16.5 -97l-1 -32h-409q3 -83 52 -132.5t128 -49.5q38 0 75.5 13t79.5 57l49 -48q-27 -28 -79 -62q-1 -1 -25 -15.5t-37.5 -27t-22 -28t-8.5 -34.5q0 -22 14 -33.5t34 -11.5q29 0 56 15
l-13 -59q-28 -14 -55 -14q-28 0 -53 14t-35.5 35t-10.5 40q0 52 51 92h-1q-61 0 -111.5 16.5t-86.5 49.5t-55.5 82t-19.5 111zM114 301h326q0 29 -15 63.5t-53 60t-85 25.5q-68 0 -118.5 -43.5t-54.5 -105.5z" />
    <glyph glyph-name="Ecaron" unicode="&#x11a;" horiz-adv-x="549" 
d="M266 769l-126 121h91l66 -66l66 66h91l-126 -121h-62zM92 0v697h394v-72h-316v-221h297v-72h-297v-260h323v-72h-401z" />
    <glyph glyph-name="ecaron" unicode="&#x11b;" horiz-adv-x="551" 
d="M253 576l-126 121h91l66 -66l66 66h91l-126 -121h-62zM35 246v4q0 59 19 109.5t53 86t80.5 54.5t99.5 19q51 0 94 -19.5t74 -54t47.5 -80.5t16.5 -97l-1 -32h-409q3 -83 52 -132.5t128 -49.5q38 0 75.5 13t79.5 57l49 -48q-22 -24 -52.5 -46t-69.5 -32.5t-82 -10.5
q-55 0 -102 18.5t-81 52.5t-52.5 82.5t-18.5 105.5zM114 301h326q0 29 -15 63.5t-53 60t-85 25.5q-68 0 -118.5 -43.5t-54.5 -105.5z" />
    <glyph glyph-name="Gcircumflex" unicode="&#x11c;" horiz-adv-x="740" 
d="M252 769l126 121h62l126 -121h-91l-66 66l-66 -66h-91zM47 348q0 76 28 143t78 116t117 76t140 27q33 0 75.5 -7.5t86.5 -29.5t79 -54l-49 -54q-38 35 -87.5 54t-104.5 19q-60 0 -112.5 -22t-91 -61.5t-60 -93t-21.5 -113.5t21.5 -114t60 -93t91 -61t112.5 -22
q54 0 103.5 18.5t87.5 51.5v180h-213v72h291v-279q-50 -54 -120.5 -84.5t-148.5 -30.5q-73 0 -140 27t-117 76t-78 116t-28 143z" />
    <glyph glyph-name="gcircumflex" unicode="&#x11d;" horiz-adv-x="600" 
d="M143 576l126 121h62l126 -121h-91l-66 66l-66 -66h-91zM92 -84q45 -33 93.5 -50t106.5 -17q79 0 125 37q23 19 37.5 55t14.5 101v42q-15 -26 -43 -48t-64 -32t-72 -10q-51 0 -98 19.5t-82 55t-55 84t-20 103.5q0 26 6.5 60t24.5 68t48.5 65t77.5 50.5t98 19.5
q36 0 72 -10t64 -32t43 -48v75h74v-420q0 -118 -19.5 -168.5t-60.5 -82.5q-32 -25 -76.5 -39t-93.5 -14q-133 0 -239 77zM109 256q0 -40 13.5 -76t38 -62t58 -40.5t71.5 -14.5q29 0 61 9.5t63.5 36t47.5 67t16 80.5q0 30 -9.5 63t-32.5 62t-60 49t-86 20q-38 0 -71.5 -14.5
t-58 -41t-38 -62.5t-13.5 -76z" />
    <glyph glyph-name="Gbreve" unicode="&#x11e;" horiz-adv-x="740" 
d="M407 751q-27 0 -60.5 12.5t-61.5 45.5t-34 81h69q23 -73 87 -73t87 73h69q-6 -48 -34 -81t-61.5 -45.5t-60.5 -12.5zM47 348q0 76 28 143t78 116t117 76t140 27q33 0 75.5 -7.5t86.5 -29.5t79 -54l-49 -54q-38 35 -87.5 54t-104.5 19q-60 0 -112.5 -22t-91 -61.5t-60 -93
t-21.5 -113.5t21.5 -114t60 -93t91 -61t112.5 -22q54 0 103.5 18.5t87.5 51.5v180h-213v72h291v-279q-50 -54 -120.5 -84.5t-148.5 -30.5q-73 0 -140 27t-117 76t-78 116t-28 143z" />
    <glyph glyph-name="gbreve" unicode="&#x11f;" horiz-adv-x="600" 
d="M293 558q-27 0 -60.5 12.5t-61.5 45.5t-34 81h69q23 -73 87 -73t87 73h69q-6 -48 -34 -81t-61.5 -45.5t-60.5 -12.5zM92 -84q45 -33 93.5 -50t106.5 -17q79 0 125 37q23 19 37.5 55t14.5 101v42q-15 -26 -43 -48t-64 -32t-72 -10q-51 0 -98 19.5t-82 55t-55 84t-20 103.5
q0 26 6.5 60t24.5 68t48.5 65t77.5 50.5t98 19.5q36 0 72 -10t64 -32t43 -48v75h74v-420q0 -118 -19.5 -168.5t-60.5 -82.5q-32 -25 -76.5 -39t-93.5 -14q-133 0 -239 77zM109 256q0 -40 13.5 -76t38 -62t58 -40.5t71.5 -14.5q29 0 61 9.5t63.5 36t47.5 67t16 80.5
q0 30 -9.5 63t-32.5 62t-60 49t-86 20q-38 0 -71.5 -14.5t-58 -41t-38 -62.5t-13.5 -76z" />
    <glyph glyph-name="Gdotaccent" unicode="&#x120;" horiz-adv-x="740" 
d="M411 763q-20 0 -35 14.5t-15 35.5t15 35.5t35 14.5t35 -14.5t15 -35.5t-15 -35.5t-35 -14.5zM47 348q0 76 28 143t78 116t117 76t140 27q33 0 75.5 -7.5t86.5 -29.5t79 -54l-49 -54q-38 35 -87.5 54t-104.5 19q-60 0 -112.5 -22t-91 -61.5t-60 -93t-21.5 -113.5
t21.5 -114t60 -93t91 -61t112.5 -22q54 0 103.5 18.5t87.5 51.5v180h-213v72h291v-279q-50 -54 -120.5 -84.5t-148.5 -30.5q-73 0 -140 27t-117 76t-78 116t-28 143z" />
    <glyph glyph-name="gdotaccent" unicode="&#x121;" horiz-adv-x="600" 
d="M300 586q-20 0 -35 14.5t-15 35.5t15 35.5t35 14.5t35 -14.5t15 -35.5t-15 -35.5t-35 -14.5zM92 -84q45 -33 93.5 -50t106.5 -17q79 0 125 37q23 19 37.5 55t14.5 101v42q-15 -26 -43 -48t-64 -32t-72 -10q-51 0 -98 19.5t-82 55t-55 84t-20 103.5q0 26 6.5 60t24.5 68
t48.5 65t77.5 50.5t98 19.5q36 0 72 -10t64 -32t43 -48v75h74v-420q0 -118 -19.5 -168.5t-60.5 -82.5q-32 -25 -76.5 -39t-93.5 -14q-133 0 -239 77zM109 256q0 -40 13.5 -76t38 -62t58 -40.5t71.5 -14.5q29 0 61 9.5t63.5 36t47.5 67t16 80.5q0 30 -9.5 63t-32.5 62t-60 49
t-86 20q-38 0 -71.5 -14.5t-58 -41t-38 -62.5t-13.5 -76z" />
    <glyph glyph-name="Gcommaaccent" unicode="&#x122;" horiz-adv-x="740" 
d="M47 348q0 76 28 143t78 116t117 76t140 27q33 0 75.5 -7.5t86.5 -29.5t79 -54l-49 -54q-38 35 -87.5 54t-104.5 19q-60 0 -112.5 -22t-91 -61.5t-60 -93t-21.5 -113.5t21.5 -114t60 -93t91 -61t112.5 -22q54 0 103.5 18.5t87.5 51.5v180h-213v72h291v-279
q-50 -54 -120.5 -84.5t-148.5 -30.5q-73 0 -140 27t-117 76t-78 116t-28 143zM309 -193l53 145h99l-93 -145h-59z" />
    <glyph glyph-name="gcommaaccent" unicode="&#x123;" horiz-adv-x="600" 
d="M255 552l53 145h99l-93 -145h-59zM92 -84q45 -33 93.5 -50t106.5 -17q79 0 125 37q23 19 37.5 55t14.5 101v42q-15 -26 -43 -48t-64 -32t-72 -10q-51 0 -98 19.5t-82 55t-55 84t-20 103.5q0 26 6.5 60t24.5 68t48.5 65t77.5 50.5t98 19.5q36 0 72 -10t64 -32t43 -48v75
h74v-420q0 -118 -19.5 -168.5t-60.5 -82.5q-32 -25 -76.5 -39t-93.5 -14q-133 0 -239 77zM109 256q0 -40 13.5 -76t38 -62t58 -40.5t71.5 -14.5q29 0 61 9.5t63.5 36t47.5 67t16 80.5q0 30 -9.5 63t-32.5 62t-60 49t-86 20q-38 0 -71.5 -14.5t-58 -41t-38 -62.5t-13.5 -76z
" />
    <glyph glyph-name="Hcircumflex" unicode="&#x124;" horiz-adv-x="727" 
d="M206 769l126 121h62l126 -121h-91l-66 66l-66 -66h-91zM92 0v697h78v-291h387v291h78v-697h-78v334h-387v-334h-78z" />
    <glyph glyph-name="hcircumflex" unicode="&#x125;" horiz-adv-x="547" 
d="M-63 721l126 121h62l126 -121h-91l-66 66l-66 -66h-91zM57 0v697h74v-278q19 42 60 67.5t95 25.5q83 0 132 -52.5t49 -137.5v-208q0 -22 5 -37.5t30 -15.5l19 2v-61q-12 -5 -32 -5q-96 0 -96 112v197q0 29 -11 62t-41 54t-73 21q-60 0 -98.5 -39.5t-38.5 -102.5v-301h-74
z" />
    <glyph glyph-name="Hbar" unicode="&#x126;" horiz-adv-x="727" 
d="M92 0v504h-59v69h59v124h78v-124h387v124h78v-124h59v-69h-59v-504h-78v334h-387v-334h-78zM170 406h387v98h-387v-98z" />
    <glyph glyph-name="hbar" unicode="&#x127;" horiz-adv-x="547" 
d="M57 0v573h-57v60h57v64h74v-64h198v-60h-198v-154q19 42 60 67.5t95 25.5q83 0 132 -52.5t49 -137.5v-208q0 -22 5 -37.5t30 -15.5l19 2v-61q-12 -5 -32 -5q-96 0 -96 112v197q0 29 -11 62t-41 54t-73 21q-60 0 -98.5 -39.5t-38.5 -102.5v-301h-74z" />
    <glyph glyph-name="Itilde" unicode="&#x128;" horiz-adv-x="270" 
d="M33 758l-49 4q3 29 17.5 51.5t34.5 31.5t38 9q27 0 63.5 -19.5t53.5 -19.5q36 0 46 41l49 -4q-5 -46 -28 -72t-64 -26q-28 0 -64.5 19.5t-53.5 19.5q-16 0 -27.5 -8.5t-15.5 -26.5zM96 0v697h78v-697h-78z" />
    <glyph glyph-name="itilde" unicode="&#x129;" horiz-adv-x="212" 
d="M13 596l-48 4q5 39 25.5 64.5t52.5 25.5q20 0 53 -19.5t43 -19.5q29 0 37 41l47 -4q-10 -96 -79 -96q-20 0 -53 19.5t-44 19.5q-12 0 -21.5 -8t-12.5 -27zM58 95v409h74v-396q0 -28 8.5 -40.5t29.5 -12.5l26 2v-61q-18 -8 -47 -8q-91 0 -91 107z" />
    <glyph glyph-name="Imacron" unicode="&#x12a;" horiz-adv-x="270" 
d="M-2 769v69h274v-69h-274zM96 0v697h78v-697h-78z" />
    <glyph glyph-name="imacron" unicode="&#x12b;" horiz-adv-x="212" 
d="M-24 601v69h238v-69h-238zM58 95v409h74v-396q0 -28 8.5 -40.5t29.5 -12.5l26 2v-61q-18 -8 -47 -8q-91 0 -91 107z" />
    <glyph glyph-name="Ibreve" unicode="&#x12c;" horiz-adv-x="270" 
d="M135 751q-27 0 -60.5 12.5t-61.5 45.5t-34 81h69q23 -73 87 -73t87 73h69q-6 -48 -34 -81t-61.5 -45.5t-60.5 -12.5zM96 0v697h78v-697h-78z" />
    <glyph glyph-name="ibreve" unicode="&#x12d;" horiz-adv-x="212" 
d="M95 564q-26 0 -55.5 12t-50 44.5t-22.5 76.5h69q2 -30 17 -48.5t42 -18.5t42 18.5t17 48.5h69q-1 -28 -13.5 -60t-43.5 -52.5t-71 -20.5zM58 95v409h74v-396q0 -28 8.5 -40.5t29.5 -12.5l26 2v-61q-18 -8 -47 -8q-91 0 -91 107z" />
    <glyph glyph-name="Iogonek" unicode="&#x12e;" horiz-adv-x="270" 
d="M96 -6v703h78v-697q-18 -7 -39.5 -25.5t-31 -37.5t-9.5 -32q0 -22 14.5 -33.5t35.5 -11.5q31 0 58 15l-13 -59q-28 -14 -57 -14t-54.5 14t-36 35t-10.5 40q0 58 65 102v1z" />
    <glyph glyph-name="iogonek" unicode="&#x12f;" horiz-adv-x="212" 
d="M58 95v409h74v-396q0 -28 8.5 -40.5t29.5 -12.5l26 2v-61q-40 -25 -58 -50t-18 -45q0 -22 14.5 -33.5t35.5 -11.5q31 0 58 15l-13 -59q-28 -14 -57 -14t-54.5 14t-36 35t-10.5 40q0 59 66 104q-65 12 -65 104zM95 586q-20 0 -35 14.5t-15 35.5t15 35.5t35 14.5t35 -14.5
t15 -35.5t-15 -35.5t-35 -14.5z" />
    <glyph glyph-name="Idotaccent" unicode="&#x130;" horiz-adv-x="270" 
d="M135 763q-20 0 -35 14.5t-15 35.5t15 35.5t35 14.5t35 -14.5t15 -35.5t-15 -35.5t-35 -14.5zM96 0v697h78v-697h-78z" />
    <glyph glyph-name="dotlessi" unicode="&#x131;" horiz-adv-x="212" 
d="M58 95v409h74v-396q0 -28 8.5 -40.5t29.5 -12.5l26 2v-61q-18 -8 -47 -8q-91 0 -91 107z" />
    <glyph glyph-name="IJ" unicode="&#x132;" horiz-adv-x="475" 
d="M96 -7v72q41 -7 109 -7q37 0 59 12.5t34 38t12 95.5v493h78v-483q0 -92 -20.5 -139.5t-60 -68t-94.5 -20.5q-69 0 -117 7zM96 141v556h78v-556h-78z" />
    <glyph glyph-name="ij" unicode="&#x133;" horiz-adv-x="365" 
d="M270 586q-20 0 -35 14.5t-15 35.5t15 35.5t35 14.5t35 -14.5t15 -35.5t-15 -35.5t-35 -14.5zM95 586q-20 0 -35 14.5t-15 35.5t15 35.5t35 14.5t35 -14.5t15 -35.5t-15 -35.5t-35 -14.5zM60 -3v70q42 -13 95 -13q39 0 58.5 22t19.5 71v357h74v-357q0 -37 -9.5 -72.5
t-40.5 -59.5q-17 -14 -41.5 -22t-68.5 -8q-23 0 -48 3.5t-39 8.5zM58 138v366h74v-366h-74z" />
    <glyph glyph-name="Jcircumflex" unicode="&#x134;" horiz-adv-x="310" 
d="M27 769l126 121h62l126 -121h-91l-66 66l-66 -66h-91zM14 -5v74q25 -10 53 -10q41 0 59.5 30t18.5 100v508h78v-505q0 -71 -12 -113t-45 -67.5t-94 -25.5q-29 0 -58 9z" />
    <glyph glyph-name="jcircumflex" unicode="&#x135;" horiz-adv-x="208" 
d="M-28 576l101 121h62l101 -121h-86l-46 72l-46 -72h-86zM67 -52v556h74v-556q0 -156 -152 -156l-27 2v70q17 -3 35 -3q36 0 53 20.5t17 66.5z" />
    <glyph glyph-name="Kcommaaccent" unicode="&#x136;" horiz-adv-x="638" 
d="M92 0v697h78v-370l335 370h96l-278 -304l286 -393h-94l-244 336l-101 -110v-226h-78zM220 -193l53 145h99l-93 -145h-59z" />
    <glyph glyph-name="kcommaaccent" unicode="&#x137;" horiz-adv-x="466" 
d="M57 0v697h74v-442l216 249h85l-191 -221l218 -283h-88l-177 230l-63 -73v-157h-74zM190 -48h99l-93 -145h-59z" />
    <glyph glyph-name="Lacute" unicode="&#x139;" horiz-adv-x="496" 
d="M110 745l53 145h99l-93 -145h-59zM92 0v697h78v-625h287v-72h-365z" />
    <glyph glyph-name="lacute" unicode="&#x13a;" horiz-adv-x="260" 
d="M59 722l53 145h99l-93 -145h-59zM58 697v-570q0 -66 29 -104t98 -38q32 0 46 8v63q-11 -2 -36 -2q-34 0 -48.5 18.5t-14.5 59.5v565h-74z" />
    <glyph glyph-name="Lcommaaccent" unicode="&#x13b;" horiz-adv-x="496" 
d="M92 0v697h78v-625h287v-72h-365zM236 -48h99l-93 -145h-59z" />
    <glyph glyph-name="lcommaaccent" unicode="&#x13c;" horiz-adv-x="260" 
d="M58 127v570h74v-565q0 -41 14.5 -59.5t48.5 -18.5q25 0 36 2v-63q-14 -8 -46 -8q-69 0 -98 38t-29 104zM56 -48h99l-93 -145h-59z" />
    <glyph glyph-name="Lcaron" unicode="&#x13d;" horiz-adv-x="496" 
d="M92 0v697h78v-625h287v-72h-365zM252 552l53 145h99l-93 -145h-59z" />
    <glyph glyph-name="lcaron" unicode="&#x13e;" horiz-adv-x="315" 
d="M58 127v570h74v-565q0 -41 14.5 -59.5t48.5 -18.5q25 0 36 2v-63q-14 -8 -46 -8q-69 0 -98 38t-29 104zM171 552l53 145h99l-93 -145h-59z" />
    <glyph glyph-name="Ldot" unicode="&#x13f;" horiz-adv-x="496" 
d="M92 0v697h78v-625h287v-72h-365zM321 321q-20 0 -35 14.5t-15 35.5t15 35.5t35 14.5t35 -14.5t15 -35.5t-15 -35.5t-35 -14.5z" />
    <glyph glyph-name="ldot" unicode="&#x140;" horiz-adv-x="315" 
d="M58 127v570h74v-565q0 -41 14.5 -59.5t48.5 -18.5q25 0 36 2v-63q-14 -8 -46 -8q-69 0 -98 38t-29 104zM235 318q-20 0 -35 14.5t-15 35.5t15 35.5t35 14.5t35 -14.5t15 -35.5t-15 -35.5t-35 -14.5z" />
    <glyph glyph-name="Lslash" unicode="&#x141;" horiz-adv-x="495" 
d="M92 0v282l-67 -37v76l67 37v339h78v-296l140 79v-76l-140 -78v-254h287v-72h-365z" />
    <glyph glyph-name="lslash" unicode="&#x142;" horiz-adv-x="274" 
d="M72 127v183l-68 -40v77l68 40v310h74v-266l85 51v-77l-85 -51v-222q0 -41 14.5 -59.5t48.5 -18.5q25 0 36 2v-63q-14 -8 -46 -8q-69 0 -98 38t-29 104z" />
    <glyph glyph-name="Nacute" unicode="&#x143;" horiz-adv-x="751" 
d="M333 745l53 145h99l-93 -145h-59zM92 0v697h68l421 -558v558h78v-697h-63l-426 564v-564h-78z" />
    <glyph glyph-name="nacute" unicode="&#x144;" horiz-adv-x="554" 
d="M257 552l53 145h99l-93 -145h-59zM57 0v504h74v-85q15 30 42 53t58.5 31.5t58.5 8.5q84 0 134 -52.5t50 -137.5v-208q0 -30 7 -41.5t28 -11.5l19 2v-61q-12 -5 -32 -5q-96 0 -96 112v197q0 63 -34.5 100t-94.5 37q-62 0 -101 -39.5t-39 -102.5v-301h-74z" />
    <glyph glyph-name="Ncommaaccent" unicode="&#x145;" horiz-adv-x="751" 
d="M292 -193l53 145h99l-93 -145h-59zM92 0v697h68l421 -558v558h78v-697h-63l-426 564v-564h-78z" />
    <glyph glyph-name="ncommaaccent" unicode="&#x146;" horiz-adv-x="554" 
d="M226 -48h99l-93 -145h-59zM57 0v504h74v-85q15 30 42 53t58.5 31.5t58.5 8.5q84 0 134 -52.5t50 -137.5v-208q0 -30 7 -41.5t28 -11.5l19 2v-61q-12 -5 -32 -5q-96 0 -96 112v197q0 63 -34.5 100t-94.5 37q-62 0 -101 -39.5t-39 -102.5v-301h-74z" />
    <glyph glyph-name="Ncaron" unicode="&#x147;" horiz-adv-x="751" 
d="M344 769l-126 121h91l66 -66l66 66h91l-126 -121h-62zM92 0v697h68l421 -558v558h78v-697h-63l-426 564v-564h-78z" />
    <glyph glyph-name="ncaron" unicode="&#x148;" horiz-adv-x="554" 
d="M245 576l-126 121h91l66 -66l66 66h91l-126 -121h-62zM57 0v504h74v-85q15 30 42 53t58.5 31.5t58.5 8.5q84 0 134 -52.5t50 -137.5v-208q0 -30 7 -41.5t28 -11.5l19 2v-61q-12 -5 -32 -5q-96 0 -96 112v197q0 63 -34.5 100t-94.5 37q-62 0 -101 -39.5t-39 -102.5v-301
h-74z" />
    <glyph glyph-name="Eng" unicode="&#x14a;" horiz-adv-x="751" 
d="M92 0v697h68l421 -575v575h78v-697q0 -112 -39.5 -160t-116.5 -48q-27 0 -53 9v73q26 -10 53 -10q42 0 60 34t18 102v1l-411 561v-562h-78z" />
    <glyph glyph-name="eng" unicode="&#x14b;" horiz-adv-x="519" 
d="M57 0v504h74v-85q19 42 60 67.5t95 25.5q83 0 132 -52.5t49 -137.5v-374q0 -75 -35 -115q-35 -39 -107 -41l-37 2v70q17 -3 35 -3q36 0 53 20.5t17 66.5v358q0 29 -11 62t-41 54t-74 21q-59 0 -97.5 -39.5t-38.5 -102.5v-301h-74z" />
    <glyph glyph-name="Omacron" unicode="&#x14c;" horiz-adv-x="820" 
d="M263 770v69h294v-69h-294zM47 348q0 76 28 143t78 116t117 76t140 27t140 -27t117 -76t78 -116t28 -143t-28 -143t-78 -116t-117 -76t-140 -27t-140 27t-117 76t-78 116t-28 143zM124 348q0 -60 21.5 -114t60.5 -93t91.5 -61t112.5 -22t112.5 22t91 61t60 93t21.5 114
t-21.5 114t-60 93t-91 61t-112.5 22t-112.5 -22t-91.5 -61t-60.5 -93t-21.5 -114z" />
    <glyph glyph-name="omacron" unicode="&#x14d;" horiz-adv-x="606" 
d="M158 601v69h294v-69h-294zM35 252q0 56 21 105.5t58 85.5t86 56t103 20t103 -20t86 -56t58 -85.5t21 -105.5t-21 -105.5t-58 -85.5t-86 -56t-103 -20t-103 20t-86 56t-58 85.5t-21 105.5zM109 252q0 -41 14.5 -77.5t40.5 -63.5t62 -42t77 -15q30 0 63 10t65.5 37t49 68.5
t16.5 82.5t-14.5 77.5t-40.5 63.5t-62 42t-77 15q-30 0 -63 -10t-65.5 -37t-49 -68.5t-16.5 -82.5z" />
    <glyph glyph-name="Obreve" unicode="&#x14e;" horiz-adv-x="820" 
d="M410 751q-27 0 -60.5 12.5t-61.5 45.5t-34 81h69q23 -73 87 -73t87 73h69q-6 -48 -34 -81t-61.5 -45.5t-60.5 -12.5zM47 348q0 76 28 143t78 116t117 76t140 27t140 -27t117 -76t78 -116t28 -143t-28 -143t-78 -116t-117 -76t-140 -27t-140 27t-117 76t-78 116t-28 143z
M124 348q0 -60 21.5 -114t60.5 -93t91.5 -61t112.5 -22t112.5 22t91 61t60 93t21.5 114t-21.5 114t-60 93t-91 61t-112.5 22t-112.5 -22t-91.5 -61t-60.5 -93t-21.5 -114z" />
    <glyph glyph-name="obreve" unicode="&#x14f;" horiz-adv-x="606" 
d="M303 558q-27 0 -60.5 12.5t-61.5 45.5t-34 81h69q23 -73 87 -73t87 73h69q-6 -48 -34 -81t-61.5 -45.5t-60.5 -12.5zM35 252q0 56 21 105.5t58 85.5t86 56t103 20t103 -20t86 -56t58 -85.5t21 -105.5t-21 -105.5t-58 -85.5t-86 -56t-103 -20t-103 20t-86 56t-58 85.5
t-21 105.5zM109 252q0 -41 14.5 -77.5t40.5 -63.5t62 -42t77 -15q30 0 63 10t65.5 37t49 68.5t16.5 82.5t-14.5 77.5t-40.5 63.5t-62 42t-77 15q-30 0 -63 -10t-65.5 -37t-49 -68.5t-16.5 -82.5z" />
    <glyph glyph-name="Ohungarumlaut" unicode="&#x150;" horiz-adv-x="820" 
d="M459 745l63 145h95l-103 -145h-55zM305 745l63 145h95l-103 -145h-55zM47 348q0 76 28 143t78 116t117 76t140 27t140 -27t117 -76t78 -116t28 -143t-28 -143t-78 -116t-117 -76t-140 -27t-140 27t-117 76t-78 116t-28 143zM124 348q0 -60 21.5 -114t60.5 -93t91.5 -61
t112.5 -22t112.5 22t91 61t60 93t21.5 114t-21.5 114t-60 93t-91 61t-112.5 22t-112.5 -22t-91.5 -61t-60.5 -93t-21.5 -114z" />
    <glyph glyph-name="ohungarumlaut" unicode="&#x151;" horiz-adv-x="606" 
d="M350 552l63 145h95l-103 -145h-55zM196 552l63 145h95l-103 -145h-55zM35 252q0 56 21 105.5t58 85.5t86 56t103 20t103 -20t86 -56t58 -85.5t21 -105.5t-21 -105.5t-58 -85.5t-86 -56t-103 -20t-103 20t-86 56t-58 85.5t-21 105.5zM109 252q0 -41 14.5 -77.5t40.5 -63.5
t62 -42t77 -15q30 0 63 10t65.5 37t49 68.5t16.5 82.5t-14.5 77.5t-40.5 63.5t-62 42t-77 15q-30 0 -63 -10t-65.5 -37t-49 -68.5t-16.5 -82.5z" />
    <glyph glyph-name="OE" unicode="&#x152;" horiz-adv-x="1084" 
d="M47 348q0 76 28 143t78 116t117 76t140 27q95 0 165.5 -39t115.5 -108v134h330v-72h-252v-221h233v-72h-233v-260h259v-72h-337v137q-16 -27 -40 -53.5t-57.5 -48t-79 -35.5t-104.5 -14q-73 0 -140 27t-117 76t-78 116t-28 143zM124 348q0 -60 21.5 -114t60.5 -93
t91.5 -61t112.5 -22t112.5 22t91 61t60 93t21.5 114t-21.5 114t-60 93t-91 61t-112.5 22t-112.5 -22t-91.5 -61t-60.5 -93t-21.5 -114z" />
    <glyph glyph-name="oe" unicode="&#x153;" horiz-adv-x="1017" 
d="M35 252q0 56 21 105.5t58 85.5t86 56t103 20q35 0 78.5 -11.5t84 -43.5t65.5 -76q24 44 62.5 76t79 43.5t73.5 11.5q51 0 97 -20t81 -56t54.5 -85.5t19.5 -105.5l-1 -16h-429q3 -82 53 -129.5t132 -47.5q53 0 98.5 18t74.5 49l50 -54q-41 -41 -99.5 -64t-123.5 -23
q-57 0 -105 19t-76.5 49.5t-42.5 58.5q-34 -59 -94 -93t-132 -34q-54 0 -103 20t-86 56t-58 85.5t-21 105.5zM573 301h346q-6 31 -26 65.5t-58.5 59t-88.5 24.5t-88.5 -24.5t-58.5 -59t-26 -65.5zM109 252q0 -41 14.5 -77.5t40.5 -63.5t62 -42t77 -15q30 0 63 10t65.5 37
t49 68.5t16.5 82.5t-14.5 77.5t-40.5 63.5t-62 42t-77 15q-30 0 -63 -10t-65.5 -37t-49 -68.5t-16.5 -82.5z" />
    <glyph glyph-name="Racute" unicode="&#x154;" horiz-adv-x="606" 
d="M248 745l53 145h99l-93 -145h-59zM92 0v697h238q31 0 66 -10.5t70.5 -39t54 -72t18.5 -86.5q0 -67 -37 -121t-96 -77l168 -291h-89l-157 276h-1h-157v-276h-78zM170 348h152q61 0 100 41.5t39 99.5q0 57 -38.5 96.5t-95.5 39.5h-157v-277z" />
    <glyph glyph-name="racute" unicode="&#x155;" horiz-adv-x="361" 
d="M129 552l53 145h99l-93 -145h-59zM57 0v504h74v-85q19 42 60 67.5t95 25.5l31 -2v-80q-20 5 -50 5q-59 0 -97.5 -39.5t-38.5 -102.5v-293h-74z" />
    <glyph glyph-name="Rcommaaccent" unicode="&#x156;" horiz-adv-x="606" 
d="M92 0v697h238q31 0 66 -10.5t70.5 -39t54 -72t18.5 -86.5q0 -67 -37 -121t-96 -77l168 -291h-89l-157 276h-1h-157v-276h-78zM170 348h152q61 0 100 41.5t39 99.5q0 57 -38.5 96.5t-95.5 39.5h-157v-277zM280 -48h99l-93 -145h-59z" />
    <glyph glyph-name="rcommaaccent" unicode="&#x157;" horiz-adv-x="361" 
d="M57 0v504h74v-85q19 42 60 67.5t95 25.5l31 -2v-80q-20 5 -50 5q-59 0 -97.5 -39.5t-38.5 -102.5v-293h-74zM57 -48h99l-93 -145h-59z" />
    <glyph glyph-name="Rcaron" unicode="&#x158;" horiz-adv-x="606" 
d="M261 769l-126 121h91l66 -66l66 66h91l-126 -121h-62zM92 0v697h238q31 0 66 -10.5t70.5 -39t54 -72t18.5 -86.5q0 -67 -37 -121t-96 -77l168 -291h-89l-157 276h-1h-157v-276h-78zM170 348h152q61 0 100 41.5t39 99.5q0 57 -38.5 96.5t-95.5 39.5h-157v-277z" />
    <glyph glyph-name="rcaron" unicode="&#x159;" horiz-adv-x="361" 
d="M147 576l-126 121h91l66 -66l66 66h91l-126 -121h-62zM57 0v504h74v-85q19 42 60 67.5t95 25.5l31 -2v-80q-20 5 -50 5q-59 0 -97.5 -39.5t-38.5 -102.5v-293h-74z" />
    <glyph glyph-name="Sacute" unicode="&#x15a;" horiz-adv-x="550" 
d="M239 745l53 145h99l-93 -145h-59zM41 153l67 31q24 -58 68 -92t107 -34q44 0 75.5 14.5t48 43t16.5 65.5t-15.5 62.5t-46.5 45t-94 47.5q-67 30 -104.5 55t-58 60.5t-20.5 85.5q0 27 9.5 56.5t32.5 55t61 43.5t88 18q128 0 188 -111l-67 -34q-20 37 -49 55t-73 18
q-21 0 -47.5 -9.5t-45.5 -34t-19 -55.5q0 -40 22 -64.5t51.5 -39.5t68.5 -33q80 -35 119 -64t58.5 -66t19.5 -90q0 -63 -29.5 -107t-77 -66.5t-112.5 -22.5q-83 0 -147 42t-94 125z" />
    <glyph glyph-name="sacute" unicode="&#x15b;" horiz-adv-x="414" 
d="M160 552l53 145h99l-93 -145h-59zM18 109l63 24q7 -22 27 -41t47.5 -27t52.5 -8q55 0 83 21.5t28 55.5q0 28 -18 47t-46 32t-62 26q-49 20 -78 40t-44 45.5t-15 61.5q0 58 42.5 95.5t109.5 37.5q50 0 87 -22.5t59 -64.5l-60 -31q-27 50 -85 50q-34 0 -56.5 -17.5
t-22.5 -47.5q0 -15 9.5 -31.5t34 -30t66.5 -29.5q76 -29 114.5 -66.5t38.5 -94.5q0 -43 -23.5 -76t-64 -51.5t-97.5 -18.5q-70 0 -122.5 32t-67.5 89z" />
    <glyph glyph-name="Scircumflex" unicode="&#x15c;" horiz-adv-x="550" 
d="M132 769l126 121h62l126 -121h-91l-66 66l-66 -66h-91zM41 153l67 31q24 -58 68 -92t107 -34q44 0 75.5 14.5t48 43t16.5 65.5t-15.5 62.5t-46.5 45t-94 47.5q-67 30 -104.5 55t-58 60.5t-20.5 85.5q0 27 9.5 56.5t32.5 55t61 43.5t88 18q128 0 188 -111l-67 -34
q-20 37 -49 55t-73 18q-21 0 -47.5 -9.5t-45.5 -34t-19 -55.5q0 -40 22 -64.5t51.5 -39.5t68.5 -33q80 -35 119 -64t58.5 -66t19.5 -90q0 -63 -29.5 -107t-77 -66.5t-112.5 -22.5q-83 0 -147 42t-94 125z" />
    <glyph glyph-name="scircumflex" unicode="&#x15d;" horiz-adv-x="414" 
d="M56 576l126 121h62l126 -121h-91l-66 66l-66 -66h-91zM18 109l63 24q7 -22 27 -41t47.5 -27t52.5 -8q55 0 83 21.5t28 55.5q0 28 -18 47t-46 32t-62 26q-49 20 -78 40t-44 45.5t-15 61.5q0 58 42.5 95.5t109.5 37.5q50 0 87 -22.5t59 -64.5l-60 -31q-27 50 -85 50
q-34 0 -56.5 -17.5t-22.5 -47.5q0 -15 9.5 -31.5t34 -30t66.5 -29.5q76 -29 114.5 -66.5t38.5 -94.5q0 -43 -23.5 -76t-64 -51.5t-97.5 -18.5q-70 0 -122.5 32t-67.5 89z" />
    <glyph glyph-name="Scedilla" unicode="&#x15e;" horiz-adv-x="550" 
d="M41 153l67 31q24 -58 68 -92t107 -34q44 0 75.5 14.5t48 43t16.5 65.5t-15.5 62.5t-46.5 45t-94 47.5q-67 30 -104.5 55t-58 60.5t-20.5 85.5q0 27 9.5 56.5t32.5 55t61 43.5t88 18q128 0 188 -111l-67 -34q-20 37 -49 55t-73 18q-21 0 -47.5 -9.5t-45.5 -34t-19 -55.5
q0 -40 22 -64.5t51.5 -39.5t68.5 -33q80 -35 119 -64t58.5 -66t19.5 -90q0 -30 -9 -63t-33 -62t-66.5 -49.5t-105.5 -21.5l-15 -34q27 0 46.5 -19.5t19.5 -51.5q0 -41 -27.5 -61t-75.5 -20q-19 0 -41 7.5t-33 15.5l19 39q28 -17 54 -17q19 0 31.5 10t12.5 26
q0 18 -13.5 29.5t-59.5 11.5l28 68q-65 11 -116 52.5t-76 110.5z" />
    <glyph glyph-name="scedilla" unicode="&#x15f;" horiz-adv-x="414" 
d="M18 109l63 24q7 -22 27 -41t47.5 -27t52.5 -8q55 0 83 21.5t28 55.5q0 28 -18 47t-46 32t-62 26q-49 20 -78 40t-44 45.5t-15 61.5q0 58 42.5 95.5t109.5 37.5q50 0 87 -22.5t59 -64.5l-60 -31q-27 50 -85 50q-34 0 -56.5 -17.5t-22.5 -47.5q0 -15 9.5 -31.5t34 -30
t66.5 -29.5q76 -29 114.5 -66.5t38.5 -94.5q0 -10 -5 -35t-25 -49t-45 -37t-48.5 -18t-43.5 -6l-19 -35q30 0 51 -19.5t21 -51.5q0 -20 -9.5 -39.5t-35 -30.5t-61.5 -11q-20 0 -43.5 7t-35.5 16l20 39q29 -17 58 -17q20 0 33.5 10t13.5 26q0 18 -14.5 29.5t-64.5 11.5l31 67
q-57 7 -98.5 38t-54.5 80z" />
    <glyph glyph-name="Scaron" unicode="&#x160;" horiz-adv-x="550" 
d="M260 769l-126 121h91l66 -66l66 66h91l-126 -121h-62zM41 153l67 31q24 -58 68 -92t107 -34q44 0 75.5 14.5t48 43t16.5 65.5t-15.5 62.5t-46.5 45t-94 47.5q-67 30 -104.5 55t-58 60.5t-20.5 85.5q0 27 9.5 56.5t32.5 55t61 43.5t88 18q128 0 188 -111l-67 -34
q-20 37 -49 55t-73 18q-21 0 -47.5 -9.5t-45.5 -34t-19 -55.5q0 -40 22 -64.5t51.5 -39.5t68.5 -33q80 -35 119 -64t58.5 -66t19.5 -90q0 -63 -29.5 -107t-77 -66.5t-112.5 -22.5q-83 0 -147 42t-94 125z" />
    <glyph glyph-name="scaron" unicode="&#x161;" horiz-adv-x="414" 
d="M185 576l-126 121h91l66 -66l66 66h91l-126 -121h-62zM18 109l63 24q7 -22 27 -41t47.5 -27t52.5 -8q55 0 83 21.5t28 55.5q0 28 -18 47t-46 32t-62 26q-49 20 -78 40t-44 45.5t-15 61.5q0 58 42.5 95.5t109.5 37.5q50 0 87 -22.5t59 -64.5l-60 -31q-27 50 -85 50
q-34 0 -56.5 -17.5t-22.5 -47.5q0 -15 9.5 -31.5t34 -30t66.5 -29.5q76 -29 114.5 -66.5t38.5 -94.5q0 -43 -23.5 -76t-64 -51.5t-97.5 -18.5q-70 0 -122.5 32t-67.5 89z" />
    <glyph glyph-name="Tcommaaccent" unicode="&#x162;" horiz-adv-x="518" 
d="M220 0v625h-190v72h458v-72h-190v-625h-78zM211 -48h99l-93 -145h-59z" />
    <glyph glyph-name="tcommaaccent" unicode="&#x163;" horiz-adv-x="308" 
d="M89 141v294h-59v69h59v193h74v-193h117v-69h-117v-294q0 -47 17 -67t53 -20q28 0 47 3v-64q-17 -8 -56 -8q-135 0 -135 156zM94 -48h99l-93 -145h-59z" />
    <glyph glyph-name="Tcaron" unicode="&#x164;" horiz-adv-x="518" 
d="M227 769l-126 121h91l66 -66l66 66h91l-126 -121h-62zM220 0v625h-190v72h458v-72h-190v-625h-78z" />
    <glyph glyph-name="tcaron" unicode="&#x165;" horiz-adv-x="335" 
d="M89 141v294h-59v69h59v193h74v-193h117v-69h-117v-294q0 -47 17 -67t53 -20q28 0 47 3v-64q-17 -8 -56 -8q-135 0 -135 156zM221 552l53 145h99l-93 -145h-59z" />
    <glyph glyph-name="Tbar" unicode="&#x166;" horiz-adv-x="518" 
d="M220 0v361h-108v69h108v195h-190v72h458v-72h-190v-195h108v-69h-108v-361h-78z" />
    <glyph glyph-name="tbar" unicode="&#x167;" horiz-adv-x="308" 
d="M89 141v153h-64v69h64v72h-59v69h59v193h74v-193h117v-69h-117v-72h112v-69h-112v-153q0 -47 17 -67t53 -20q28 0 47 3v-64q-17 -8 -56 -8q-135 0 -135 156z" />
    <glyph glyph-name="Utilde" unicode="&#x168;" horiz-adv-x="696" 
d="M199 762q3 29 17.5 51.5t34.5 31.5t38 9q27 0 63.5 -19.5t53.5 -19.5q36 0 46 41l49 -4q-5 -46 -28 -72t-64 -26q-28 0 -64.5 19.5t-53.5 19.5q-16 0 -27.5 -8.5t-15.5 -26.5zM87 244v453h78v-445q0 -94 49 -143t134 -49t134 49t49 143v445h78v-453q0 -61 -19.5 -109.5
t-54.5 -81t-83 -49t-104 -16.5t-104 16.5t-83 49t-54.5 81t-19.5 109.5z" />
    <glyph glyph-name="utilde" unicode="&#x169;" horiz-adv-x="547" 
d="M112 598q3 29 17.5 51.5t34.5 31.5t38 9q27 0 63.5 -19.5t53.5 -19.5q36 0 46 41l49 -4q-5 -46 -28 -72t-64 -26q-28 0 -64.5 19.5t-53.5 19.5q-16 0 -27.5 -8.5t-15.5 -26.5zM51 182v322h74v-306q0 -29 11 -62t41 -54t73 -21q60 0 98.5 39.5t38.5 102.5v301h74v-387
q0 -33 9 -48t29 -15l26 2v-56q-16 -8 -47 -8q-41 0 -62 23q-18 19 -23 50q-14 -21 -40 -39.5t-58.5 -26t-62.5 -7.5q-83 0 -132 52.5t-49 137.5z" />
    <glyph glyph-name="Umacron" unicode="&#x16a;" horiz-adv-x="696" 
d="M201 770v69h294v-69h-294zM87 244v453h78v-445q0 -94 49 -143t134 -49t134 49t49 143v445h78v-453q0 -61 -19.5 -109.5t-54.5 -81t-83 -49t-104 -16.5t-104 16.5t-83 49t-54.5 81t-19.5 109.5z" />
    <glyph glyph-name="umacron" unicode="&#x16b;" horiz-adv-x="547" 
d="M116 601v69h294v-69h-294zM51 182v322h74v-306q0 -29 11 -62t41 -54t73 -21q60 0 98.5 39.5t38.5 102.5v301h74v-387q0 -33 9 -48t29 -15l26 2v-56q-16 -8 -47 -8q-41 0 -62 23q-18 19 -23 50q-14 -21 -40 -39.5t-58.5 -26t-62.5 -7.5q-83 0 -132 52.5t-49 137.5z" />
    <glyph glyph-name="Ubreve" unicode="&#x16c;" horiz-adv-x="696" 
d="M348 751q-27 0 -60.5 12.5t-61.5 45.5t-34 81h69q23 -73 87 -73t87 73h69q-6 -48 -34 -81t-61.5 -45.5t-60.5 -12.5zM87 244v453h78v-445q0 -94 49 -143t134 -49t134 49t49 143v445h78v-453q0 -61 -19.5 -109.5t-54.5 -81t-83 -49t-104 -16.5t-104 16.5t-83 49t-54.5 81
t-19.5 109.5z" />
    <glyph glyph-name="ubreve" unicode="&#x16d;" horiz-adv-x="547" 
d="M263 558q-27 0 -60.5 12.5t-61.5 45.5t-34 81h69q23 -73 87 -73t87 73h69q-6 -48 -34 -81t-61.5 -45.5t-60.5 -12.5zM51 182v322h74v-306q0 -29 11 -62t41 -54t73 -21q60 0 98.5 39.5t38.5 102.5v301h74v-387q0 -33 9 -48t29 -15l26 2v-56q-16 -8 -47 -8q-41 0 -62 23
q-18 19 -23 50q-14 -21 -40 -39.5t-58.5 -26t-62.5 -7.5q-83 0 -132 52.5t-49 137.5z" />
    <glyph glyph-name="Uring" unicode="&#x16e;" horiz-adv-x="696" 
d="M349 710q-40 0 -69 29t-29 69t29 68.5t69 28.5t68.5 -28.5t28.5 -68.5t-28.5 -69t-68.5 -29zM349 761q18 0 32 14t14 33q0 18 -14 32t-32 14q-19 0 -33 -14t-14 -32t14.5 -32.5t32.5 -14.5zM87 244v453h78v-445q0 -94 49 -143t134 -49t134 49t49 143v445h78v-453
q0 -61 -19.5 -109.5t-54.5 -81t-83 -49t-104 -16.5t-104 16.5t-83 49t-54.5 81t-19.5 109.5z" />
    <glyph glyph-name="uring" unicode="&#x16f;" horiz-adv-x="547" 
d="M263 517q-40 0 -69 29t-29 69t29 68.5t69 28.5t68.5 -28.5t28.5 -68.5t-28.5 -69t-68.5 -29zM263 568q18 0 32 14t14 33q0 18 -14 32t-32 14q-19 0 -33 -14t-14 -32t14.5 -32.5t32.5 -14.5zM51 182v322h74v-306q0 -29 11 -62t41 -54t73 -21q60 0 98.5 39.5t38.5 102.5
v301h74v-387q0 -33 9 -48t29 -15l26 2v-56q-16 -8 -47 -8q-41 0 -62 23q-18 19 -23 50q-14 -21 -40 -39.5t-58.5 -26t-62.5 -7.5q-83 0 -132 52.5t-49 137.5z" />
    <glyph glyph-name="Uhungarumlaut" unicode="&#x170;" horiz-adv-x="696" 
d="M394 745l63 145h95l-103 -145h-55zM240 745l63 145h95l-103 -145h-55zM87 244v453h78v-445q0 -94 49 -143t134 -49t134 49t49 143v445h78v-453q0 -61 -19.5 -109.5t-54.5 -81t-83 -49t-104 -16.5t-104 16.5t-83 49t-54.5 81t-19.5 109.5z" />
    <glyph glyph-name="uhungarumlaut" unicode="&#x171;" horiz-adv-x="547" 
d="M307 552l63 145h95l-103 -145h-55zM153 552l63 145h95l-103 -145h-55zM51 182v322h74v-306q0 -29 11 -62t41 -54t73 -21q60 0 98.5 39.5t38.5 102.5v301h74v-387q0 -33 9 -48t29 -15l26 2v-56q-16 -8 -47 -8q-41 0 -62 23q-18 19 -23 50q-14 -21 -40 -39.5t-58.5 -26
t-62.5 -7.5q-83 0 -132 52.5t-49 137.5z" />
    <glyph glyph-name="Uogonek" unicode="&#x172;" horiz-adv-x="696" 
d="M87 244v453h78v-445q0 -94 49 -143t134 -49t134 49t49 143v445h78v-451q0 -140 -96 -209q-1 -1 -3 -2t-44 -27t-63 -53t-21 -50q0 -22 14.5 -33.5t35.5 -11.5q31 0 58 15l-13 -59q-28 -14 -57 -14t-54.5 14t-36 35t-10.5 40q0 55 61 99l-36 -2q-55 0 -102 16.5t-82 49
t-54 81t-19 109.5z" />
    <glyph glyph-name="uogonek" unicode="&#x173;" horiz-adv-x="547" 
d="M51 182v322h74v-306q0 -29 11 -62t41 -54t73 -21q60 0 98.5 39.5t38.5 102.5v301h74v-387q0 -33 9 -48t29 -15l26 2v-56q-27 -10 -51.5 -26.5t-34.5 -33.5t-10 -31q0 -22 14.5 -33.5t35.5 -11.5q31 0 58 15l-13 -59q-28 -14 -57 -14t-54.5 14t-36 35t-10.5 40q0 35 22 63
t55 40q-22 7 -34 25q-12 17 -16 42q-14 -21 -40 -39.5t-58.5 -26t-62.5 -7.5q-83 0 -132 52.5t-49 137.5z" />
    <glyph glyph-name="Wcircumflex" unicode="&#x174;" horiz-adv-x="920" 
d="M303 769l126 121h62l126 -121h-91l-66 66l-66 -66h-91zM231 0l-204 697h79l155 -527l172 527h54l172 -527l155 527h79l-204 -697h-50l-179 539l-179 -539h-50z" />
    <glyph glyph-name="wcircumflex" unicode="&#x175;" horiz-adv-x="746" 
d="M216 576l126 121h62l126 -121h-91l-66 66l-66 -66h-91zM197 0l-182 504h76l130 -364l126 364h52l125 -364l130 364h77l-182 -504h-49l-127 367l-127 -367h-49z" />
    <glyph glyph-name="Ycircumflex" unicode="&#x176;" horiz-adv-x="622" 
d="M157 769l126 121h62l126 -121h-91l-66 66l-66 -66h-91zM273 0v286l-245 411h86l199 -334l197 334h84l-243 -411v-286h-78z" />
    <glyph glyph-name="ycircumflex" unicode="&#x177;" horiz-adv-x="502" 
d="M99 576l126 121h62l126 -121h-91l-66 66l-66 -66h-91zM64 -132q21 -8 50 -8q26 0 43 11q22 16 40 61l22 57l-204 515h74l166 -425l160 425h74l-228 -590q-21 -55 -49 -85q-37 -38 -98 -38q-29 0 -50 9v68z" />
    <glyph glyph-name="Ydieresis" unicode="&#x178;" horiz-adv-x="622" 
d="M414 743q-20 0 -35 14.5t-15 35.5t15 35.5t35 14.5t35 -14.5t15 -35.5t-15 -35.5t-35 -14.5zM208 743q-20 0 -35 14.5t-15 35.5t15 35.5t35 14.5t35 -14.5t15 -35.5t-15 -35.5t-35 -14.5zM273 0v286l-245 411h86l199 -334l197 334h84l-243 -411v-286h-78z" />
    <glyph glyph-name="Zacute" unicode="&#x179;" horiz-adv-x="630" 
d="M297 745l53 145h99l-93 -145h-59zM44 0v48l427 577h-378v72h484v-52l-424 -573h431v-72h-540z" />
    <glyph glyph-name="zacute" unicode="&#x17a;" horiz-adv-x="499" 
d="M210 552l53 145h99l-93 -145h-59zM28 0v44l309 391h-276v69h381v-49l-307 -386h323v-69h-430z" />
    <glyph glyph-name="Zdotaccent" unicode="&#x17b;" horiz-adv-x="630" 
d="M344 763q-20 0 -35 14.5t-15 35.5t15 35.5t35 14.5t35 -14.5t15 -35.5t-15 -35.5t-35 -14.5zM44 0v48l427 577h-378v72h484v-52l-424 -573h431v-72h-540z" />
    <glyph glyph-name="zdotaccent" unicode="&#x17c;" horiz-adv-x="499" 
d="M264 586q-20 0 -35 14.5t-15 35.5t15 35.5t35 14.5t35 -14.5t15 -35.5t-15 -35.5t-35 -14.5zM28 0v44l309 391h-276v69h381v-49l-307 -386h323v-69h-430z" />
    <glyph glyph-name="Zcaron" unicode="&#x17d;" horiz-adv-x="630" 
d="M316 769l-126 121h91l66 -66l66 66h91l-126 -121h-62zM44 0v48l427 577h-378v72h484v-52l-424 -573h431v-72h-540z" />
    <glyph glyph-name="zcaron" unicode="&#x17e;" horiz-adv-x="499" 
d="M232 576l-126 121h91l66 -66l66 66h91l-126 -121h-62zM28 0v44l309 391h-276v69h381v-49l-307 -386h323v-69h-430z" />
    <glyph glyph-name="florin" unicode="&#x192;" horiz-adv-x="375" 
d="M24 -101l101 475h-76l13 63h76l23 107q9 40 27 78.5t55.5 64t105.5 25.5q25 0 46 -4l-14 -68q-23 3 -51 3q-40 0 -61.5 -22t-31.5 -68l-25 -116h100l-13 -63h-100l-101 -475h-74z" />
    <glyph glyph-name="Aringacute" unicode="&#x1fa;" horiz-adv-x="701" 
d="M329 907l53 145h99l-93 -145h-59zM35 0l290 665q-31 8 -51.5 34.5t-20.5 59.5q0 40 29 68.5t69 28.5t68.5 -28.5t28.5 -68.5q0 -34 -21 -60.5t-52 -34.5l291 -664h-85l-75 172h-314l-75 -172h-82zM351 712q18 0 32 14t14 33q0 18 -14 32t-32 14q-19 0 -33 -14t-14 -32
t14.5 -32.5t32.5 -14.5zM223 244h252l-126 296z" />
    <glyph glyph-name="aringacute" unicode="&#x1fb;" horiz-adv-x="629" 
d="M268 788l53 145h99l-93 -145h-59zM300 556q-40 0 -69 29t-29 69t29 68.5t69 28.5t68.5 -28.5t28.5 -68.5t-28.5 -69t-68.5 -29zM300 607q18 0 32 14t14 33q0 18 -14 32t-32 14q-19 0 -33 -14t-14 -32t14.5 -32.5t32.5 -14.5zM35 252q0 56 20 105.5t55 85.5t82 56t98 20
q36 0 72 -10t64 -32t43 -48v75h74v-391q0 -33 9 -48t29 -15l26 2v-56q-18 -8 -47 -8q-33 0 -53 14q-29 22 -34 72q-17 -27 -47 -49t-66.5 -31t-69.5 -9q-51 0 -98 20t-82 56t-55 85.5t-20 105.5zM109 252q0 -30 9 -64t34 -67t62.5 -50t75.5 -17q49 0 94.5 25.5t69.5 73
t24 99.5t-24 99.5t-69.5 73t-94.5 25.5q-28 0 -59 -10t-61 -37.5t-45.5 -68.5t-15.5 -82z" />
    <glyph glyph-name="AEacute" unicode="&#x1fc;" horiz-adv-x="890" 
d="M477 745l53 145h99l-93 -145h-59zM-16 0l534 697h310v-72h-252v-221h233v-72h-233v-260h259v-72h-337v172h-284l-132 -172h-98zM269 244h229v305z" />
    <glyph glyph-name="aeacute" unicode="&#x1fd;" horiz-adv-x="999" 
d="M468 552l53 145h99l-93 -145h-59zM35 252q0 56 20 105.5t55 85.5t82 56t98 20q36 0 72 -10t64 -32t43 -48v75h74v-90q12 21 37 45.5t65.5 42t82.5 17.5q47 0 90.5 -20t76.5 -56t51.5 -85.5t18.5 -105.5l-1 -16h-409q3 -83 50.5 -132.5t124.5 -49.5q40 0 76.5 12.5
t83.5 57.5l49 -48q-46 -50 -97 -70.5t-112 -20.5q-63 0 -112 25t-75 68v-78h-74v75q-15 -26 -43 -48t-64 -32t-72 -10q-51 0 -98 20t-82 56t-55 85.5t-20 105.5zM109 252q0 -30 9 -64t34 -67t62.5 -50t75.5 -17q49 0 94.5 25.5t69.5 73t24 99.5t-24 99.5t-69.5 73
t-94.5 25.5q-28 0 -59 -10t-61 -37.5t-45.5 -68.5t-15.5 -82zM560 301h326q-9 48 -34.5 82t-56.5 50.5t-67 16.5q-62 0 -108.5 -42t-59.5 -107z" />
    <glyph glyph-name="Oslashacute" unicode="&#x1fe;" horiz-adv-x="820" 
d="M385 745l53 145h99l-93 -145h-59zM114 0l55 74q-57 50 -89.5 120.5t-32.5 153.5q0 76 28 143t78 116t117 76t140 27q105 0 194 -54l58 78l57 -43l-58 -78q52 -49 82 -118t30 -147q0 -76 -28 -143t-78 -116t-117 -76t-140 -27q-98 0 -183 47l-56 -75zM213 133l348 464
q-68 41 -151 41q-60 0 -112.5 -22t-91.5 -61t-60.5 -93t-21.5 -114q0 -64 23.5 -120t65.5 -95zM271 92q29 -16 66 -25t73 -9q60 0 112.5 22t91 61t60 93t21.5 114t-21 113t-58 92z" />
    <glyph glyph-name="oslashacute" unicode="&#x1ff;" horiz-adv-x="606" 
d="M283 552l53 145h99l-93 -145h-59zM79 1l40 54q-39 36 -61.5 87.5t-22.5 109.5q0 56 21 105.5t58 85.5t86 56t103 20q33 0 68.5 -9t63.5 -24l37 51l54 -39l-38 -50q38 -36 60.5 -87.5t22.5 -108.5q0 -56 -21 -105.5t-58 -85.5t-86 -56t-103 -20q-32 0 -67.5 9t-62.5 23
l-41 -56zM162 113l231 316q-42 21 -90 21q-30 0 -63 -10t-65.5 -37t-49 -68.5t-16.5 -82.5q0 -40 14 -76.5t39 -62.5zM215 74q40 -20 88 -20q30 0 63 10t65.5 37t49 68.5t16.5 82.5q0 39 -13.5 75t-37.5 62z" />
    <glyph glyph-name="Scommaaccent" unicode="&#x218;" horiz-adv-x="550" 
d="M41 153l67 31q24 -58 68 -92t107 -34q44 0 75.5 14.5t48 43t16.5 65.5t-15.5 62.5t-46.5 45t-94 47.5q-67 30 -104.5 55t-58 60.5t-20.5 85.5q0 27 9.5 56.5t32.5 55t61 43.5t88 18q128 0 188 -111l-67 -34q-20 37 -49 55t-73 18q-21 0 -47.5 -9.5t-45.5 -34t-19 -55.5
q0 -40 22 -64.5t51.5 -39.5t68.5 -33q80 -35 119 -64t58.5 -66t19.5 -90q0 -63 -29.5 -107t-77 -66.5t-112.5 -22.5q-83 0 -147 42t-94 125zM171 -193l53 145h99l-93 -145h-59z" />
    <glyph glyph-name="scommaaccent" unicode="&#x219;" horiz-adv-x="414" 
d="M18 109l63 24q7 -22 27 -41t47.5 -27t52.5 -8q55 0 83 21.5t28 55.5q0 28 -18 47t-46 32t-62 26q-49 20 -78 40t-44 45.5t-15 61.5q0 58 42.5 95.5t109.5 37.5q50 0 87 -22.5t59 -64.5l-60 -31q-27 50 -85 50q-34 0 -56.5 -17.5t-22.5 -47.5q0 -15 9.5 -31.5t34 -30
t66.5 -29.5q76 -29 114.5 -66.5t38.5 -94.5q0 -43 -23.5 -76t-64 -51.5t-97.5 -18.5q-70 0 -122.5 32t-67.5 89zM142 -48h99l-93 -145h-59z" />
    <glyph glyph-name="circumflex" unicode="&#x2c6;" horiz-adv-x="610" 
d="M139 576l122 121h88l122 -121h-91l-75 74l-75 -74h-91z" />
    <glyph glyph-name="caron" unicode="&#x2c7;" horiz-adv-x="610" 
d="M261 576l-122 121h91l75 -74l75 74h91l-122 -121h-88z" />
    <glyph glyph-name="breve" unicode="&#x2d8;" horiz-adv-x="606" 
d="M303 558q-27 0 -60.5 12.5t-61.5 45.5t-34 81h69q23 -73 87 -73t87 73h69q-6 -48 -34 -81t-61.5 -45.5t-60.5 -12.5z" />
    <glyph glyph-name="dotaccent" unicode="&#x2d9;" horiz-adv-x="525" 
d="M263 586q-20 0 -35 14.5t-15 35.5t15 35.5t35 14.5t35 -14.5t15 -35.5t-15 -35.5t-35 -14.5z" />
    <glyph glyph-name="ring" unicode="&#x2da;" horiz-adv-x="239" 
d="M120 517q-40 0 -69 29t-29 69t29 68.5t69 28.5t68.5 -28.5t28.5 -68.5t-28.5 -69t-68.5 -29zM120 568q18 0 32 14t14 33q0 18 -14 32t-32 14q-19 0 -33 -14t-14 -32t14.5 -32.5t32.5 -14.5z" />
    <glyph glyph-name="ogonek" unicode="&#x2db;" horiz-adv-x="526" 
d="M157 -109q0 25 17 54t58 55h64q-40 -25 -58 -50t-18 -45q0 -22 14.5 -33.5t35.5 -11.5q31 0 58 15l-13 -59q-28 -14 -57 -14t-54.5 14t-36 35t-10.5 40z" />
    <glyph glyph-name="tilde" unicode="&#x2dc;" horiz-adv-x="582" 
d="M140 620q3 29 17.5 51.5t34.5 31.5t38 9q27 0 63.5 -19.5t53.5 -19.5q36 0 46 41l49 -4q-5 -46 -28 -72t-64 -26q-28 0 -64.5 19.5t-53.5 19.5q-16 0 -27.5 -8.5t-15.5 -26.5z" />
    <glyph glyph-name="hungarumlaut" unicode="&#x2dd;" horiz-adv-x="585" 
d="M315 552l63 145h95l-103 -145h-55zM161 552l63 145h95l-103 -145h-55z" />
    <glyph glyph-name="mu" unicode="&#x3bc;" horiz-adv-x="525" 
d="M125 37v-230h-74v697h74v-302q0 -70 37 -107.5t100 -37.5q64 0 101 37.5t37 108.5v301h74v-302q0 -64 -24.5 -110.5t-72.5 -75t-118 -28.5q-35 0 -72 13.5t-62 35.5z" />
    <glyph glyph-name="pi" unicode="&#x3c0;" horiz-adv-x="585" 
d="M94 0q77 169 79 435h-3q-29 0 -56 -14t-41 -40l-60 35q10 19 32 40t56.5 34t67.5 13h399l-16 -68h-73v-315q0 -48 45 -48v-74h-1q-53 0 -85.5 33.5t-32.5 88.5v315h-158q-1 -84 -11.5 -174.5t-28 -156.5t-33.5 -104h-80z" />
    <glyph glyph-name="Wgrave" unicode="&#x1e80;" horiz-adv-x="920" 
d="M438 745l-93 145h99l53 -145h-59zM231 0l-204 697h79l155 -527l172 527h54l172 -527l155 527h79l-204 -697h-50l-179 539l-179 -539h-50z" />
    <glyph glyph-name="wgrave" unicode="&#x1e81;" horiz-adv-x="746" 
d="M373 552l-93 145h99l53 -145h-59zM197 0l-182 504h76l130 -364l126 364h52l125 -364l130 364h77l-182 -504h-49l-127 367l-127 -367h-49z" />
    <glyph glyph-name="Wacute" unicode="&#x1e82;" horiz-adv-x="920" 
d="M427 745l53 145h99l-93 -145h-59zM231 0l-204 697h79l155 -527l172 527h54l172 -527l155 527h79l-204 -697h-50l-179 539l-179 -539h-50z" />
    <glyph glyph-name="wacute" unicode="&#x1e83;" horiz-adv-x="746" 
d="M315 552l53 145h99l-93 -145h-59zM197 0l-182 504h76l130 -364l126 364h52l125 -364l130 364h77l-182 -504h-49l-127 367l-127 -367h-49z" />
    <glyph glyph-name="Wdieresis" unicode="&#x1e84;" horiz-adv-x="920" 
d="M563 744q-20 0 -35 14.5t-15 35.5t15 35.5t35 14.5t35 -14.5t15 -35.5t-15 -35.5t-35 -14.5zM357 744q-20 0 -35 14.5t-15 35.5t15 35.5t35 14.5t35 -14.5t15 -35.5t-15 -35.5t-35 -14.5zM231 0l-204 697h79l155 -527l172 527h54l172 -527l155 527h79l-204 -697h-50
l-179 539l-179 -539h-50z" />
    <glyph glyph-name="wdieresis" unicode="&#x1e85;" horiz-adv-x="746" 
d="M476 586q-20 0 -35 14.5t-15 35.5t15 35.5t35 14.5t35 -14.5t15 -35.5t-15 -35.5t-35 -14.5zM270 586q-20 0 -35 14.5t-15 35.5t15 35.5t35 14.5t35 -14.5t15 -35.5t-15 -35.5t-35 -14.5zM197 0l-182 504h76l130 -364l126 364h52l125 -364l130 364h77l-182 -504h-49
l-127 367l-127 -367h-49z" />
    <glyph glyph-name="Ygrave" unicode="&#x1ef2;" horiz-adv-x="622" 
d="M300 745l-93 145h99l53 -145h-59zM273 0v286l-245 411h86l199 -334l197 334h84l-243 -411v-286h-78z" />
    <glyph glyph-name="ygrave" unicode="&#x1ef3;" horiz-adv-x="502" 
d="M242 552l-93 145h99l53 -145h-59zM64 -132q21 -8 50 -8q26 0 43 11q22 16 40 61l22 57l-204 515h74l166 -425l160 425h74l-228 -590q-21 -55 -49 -85q-37 -38 -98 -38q-29 0 -50 9v68z" />
    <glyph glyph-name="endash" unicode="&#x2013;" horiz-adv-x="456" 
d="M41 229v69h374v-69h-374z" />
    <glyph glyph-name="emdash" unicode="&#x2014;" horiz-adv-x="720" 
d="M41 229v69h638v-69h-638z" />
    <glyph glyph-name="quoteleft" unicode="&#x2018;" horiz-adv-x="179" 
d="M4 445l131 252h63l-95 -252h-99z" />
    <glyph glyph-name="quoteright" unicode="&#x2019;" horiz-adv-x="187" 
d="M-4 445l95 252h99l-131 -252h-63z" />
    <glyph glyph-name="quotesinglbase" unicode="&#x201a;" horiz-adv-x="187" 
d="M-36 -128l90 239h99l-126 -239h-63z" />
    <glyph glyph-name="quotedblleft" unicode="&#x201c;" horiz-adv-x="345" 
d="M170 445l131 252h63l-95 -252h-99zM4 445l131 252h63l-95 -252h-99z" />
    <glyph glyph-name="quotedblright" unicode="&#x201d;" horiz-adv-x="353" 
d="M162 445l95 252h99l-131 -252h-63zM-4 445l95 252h99l-131 -252h-63z" />
    <glyph glyph-name="quotedblbase" unicode="&#x201e;" horiz-adv-x="341" 
d="M130 -128l90 239h99l-126 -239h-63zM-36 -128l90 239h99l-126 -239h-63z" />
    <glyph glyph-name="dagger" unicode="&#x2020;" horiz-adv-x="288" 
d="M109 301l5 239l-81 -3v65l79 -3l-3 98h70l-3 -98l79 3v-65l-81 3l5 -239h-70z" />
    <glyph glyph-name="daggerdbl" unicode="&#x2021;" horiz-adv-x="288" 
d="M109 301l3 98l-79 -3v65l81 -3v82l-81 -3v65l79 -3l-3 98h70l-3 -98l79 3v-65l-81 3v-82l81 3v-65l-79 3l3 -98h-70z" />
    <glyph glyph-name="bullet" unicode="&#x2022;" horiz-adv-x="262" 
d="M131 172q-15 0 -34 8t-33.5 28t-14.5 46q0 16 8.5 35.5t29 33t44.5 13.5q15 0 34 -8t33.5 -28t14.5 -46q0 -16 -8.5 -35.5t-29 -33t-44.5 -13.5z" />
    <glyph glyph-name="ellipsis" unicode="&#x2026;" horiz-adv-x="544" 
d="M400 43q0 21 15 35.5t35 14.5t35 -14.5t15 -35.5t-15 -35.5t-35 -14.5t-35 14.5t-15 35.5zM222 43q0 21 15 35.5t35 14.5t35 -14.5t15 -35.5t-15 -35.5t-35 -14.5t-35 14.5t-15 35.5zM44 43q0 21 15 35.5t35 14.5t35 -14.5t15 -35.5t-15 -35.5t-35 -14.5t-35 14.5
t-15 35.5z" />
    <glyph glyph-name="perthousand" unicode="&#x2030;" horiz-adv-x="1113" 
d="M192 400q-64 0 -110 46t-46 110t46 110t110 46t110 -46t46 -110t-46 -110t-110 -46zM104 0l451 697h77l-451 -697h-77zM192 461q17 0 38 9.5t36.5 33.5t15.5 52q0 18 -9 40t-32 38.5t-49 16.5q-17 0 -38 -9.5t-36.5 -33.5t-15.5 -52q0 -18 9 -40.5t31.5 -38.5t49.5 -16z
M765 141q0 64 46 110t110 46t110 -46t46 -110t-46 -110t-110 -46t-110 46t-46 110zM385 141q0 64 46 110t110 46t110 -46t46 -110t-46 -110t-110 -46t-110 46t-46 110zM831 141q0 -18 9 -40.5t31.5 -38.5t49.5 -16q17 0 38 9.5t36.5 33.5t15.5 52q0 18 -9 40t-32 38.5
t-49 16.5q-17 0 -38 -9.5t-36.5 -33.5t-15.5 -52zM451 141q0 -18 9 -40.5t31.5 -38.5t49.5 -16q17 0 38 9.5t36.5 33.5t15.5 52q0 18 -9 40t-32 38.5t-49 16.5q-17 0 -38 -9.5t-36.5 -33.5t-15.5 -52z" />
    <glyph glyph-name="guilsinglleft" unicode="&#x2039;" horiz-adv-x="258" 
d="M145 78l-110 175l110 175h78l-110 -175l110 -175h-78z" />
    <glyph glyph-name="guilsinglright" unicode="&#x203a;" horiz-adv-x="258" 
d="M35 78l110 175l-110 175h78l110 -175l-110 -175h-78z" />
    <glyph glyph-name="fraction" unicode="&#x2044;" horiz-adv-x="486" 
d="M-21 0l451 697h77l-451 -697h-77z" />
    <glyph glyph-name="uni2070" unicode="&#x2070;" horiz-adv-x="359" 
d="M179 320q-47 0 -83.5 34.5t-42.5 82.5q-2 15 -2 76t2 76q6 48 42.5 82t83.5 34q36 0 67 -19t45 -46.5t16 -50.5l1 -76l-1 -76q-2 -23 -16 -50.5t-45 -47t-67 -19.5zM179 375q28 0 49.5 19t23.5 47q2 14 2 72q0 57 -2 72q-2 28 -23.5 47t-49.5 19q-12 0 -27.5 -6.5
t-28.5 -23t-16 -36.5l-1 -72q0 -58 1 -72q2 -13 10.5 -28.5t25.5 -26.5t36 -11z" />
    <glyph glyph-name="uni2074" unicode="&#x2074;" horiz-adv-x="349" 
d="M234 328v73h-204v39l128 257h59l-121 -242h138v74h57v-201h-57z" />
    <glyph glyph-name="uni2075" unicode="&#x2075;" horiz-adv-x="332" 
d="M152 320q-40 0 -74.5 23.5t-54.5 61.5l50 24q12 -24 33.5 -39t45.5 -15q32 0 56 23.5t24 55.5q0 33 -24.5 55.5t-60.5 22.5q-31 0 -51 -17l-41 13l30 169h180v-53h-131l-12 -64q12 6 34 6q39 0 72 -22.5t46 -53.5t13 -56q0 -28 -14 -58.5t-47.5 -53t-73.5 -22.5z" />
    <glyph glyph-name="uni2076" unicode="&#x2076;" horiz-adv-x="353" 
d="M177 320q-54 0 -93 39t-39 94q0 13 5 34t40 73l92 137h68l-82 -117l16 1q29 0 56.5 -15t47.5 -44.5t20 -68.5q0 -28 -13.5 -58.5t-46 -52.5t-71.5 -22zM177 375q31 0 53.5 23t22.5 53q0 31 -22.5 53.5t-53.5 22.5q-32 0 -53 -21.5t-21 -54.5q0 -32 21.5 -54t52.5 -22z
" />
    <glyph glyph-name="uni2077" unicode="&#x2077;" horiz-adv-x="341" 
d="M83 328l157 316h-189v53h265v-26l-170 -343h-63z" />
    <glyph glyph-name="uni2078" unicode="&#x2078;" horiz-adv-x="356" 
d="M179 320q-25 0 -55 12.5t-51.5 43.5t-21.5 67q0 34 18.5 62t43.5 37q-14 9 -24.5 28t-10.5 36q0 19 10 42t35.5 40t55.5 17q19 0 42 -10t40 -34.5t17 -54.5q0 -17 -10.5 -36t-24.5 -28q25 -9 43.5 -37t18.5 -62q0 -23 -12.5 -52t-44 -50t-69.5 -21zM179 557
q18 0 30.5 14.5t12.5 33.5q0 18 -13 32t-30 14q-19 0 -32 -14t-13 -32q0 -19 13 -33.5t32 -14.5zM179 375q27 0 48 20.5t21 47.5q0 28 -20.5 48t-48.5 20q-29 0 -50 -20t-21 -48q0 -27 21 -47.5t50 -20.5z" />
    <glyph glyph-name="uni2079" unicode="&#x2079;" horiz-adv-x="358" 
d="M103 328l89 126l-19 -2q-47 0 -84.5 35.5t-37.5 87.5q0 25 13 55.5t45 52.5t70 22q24 0 54 -12.5t52 -44.5t22 -71q0 -22 -9 -46.5t-40 -71.5l-88 -131h-67zM179 503q34 0 54 21.5t20 52.5q0 30 -22 52t-52 22t-51.5 -22t-21.5 -52t21.5 -52t51.5 -22z" />
    <glyph glyph-name="uni2080" unicode="&#x2080;" horiz-adv-x="359" 
d="M53 109q-2 15 -2 76t2 76q6 48 42.5 82t83.5 34q36 0 67 -19t45 -46.5t16 -50.5l1 -76l-1 -76q-2 -23 -16 -50.5t-45 -47t-67 -19.5q-47 0 -83.5 34.5t-42.5 82.5zM107 113q2 -13 10.5 -28.5t25.5 -26.5t36 -11q28 0 49.5 19t23.5 47q2 14 2 72q0 57 -2 72
q-2 28 -23.5 47t-49.5 19q-12 0 -27.5 -6.5t-28.5 -23t-16 -36.5l-1 -72q0 -58 1 -72z" />
    <glyph glyph-name="uni2081" unicode="&#x2081;" horiz-adv-x="222" 
d="M88 0v316h-48v53h105v-369h-57z" />
    <glyph glyph-name="uni2082" unicode="&#x2082;" horiz-adv-x="325" 
d="M44 0v40l153 177q24 29 24 52q0 22 -16 38t-38 16t-38 -19t-16 -44h-56q0 22 11 49.5t38.5 47.5t60.5 20t61 -18.5t39 -43.5t11 -46q0 -22 -6 -41t-28 -45l-116 -129h159v-54h-243z" />
    <glyph glyph-name="uni2083" unicode="&#x2083;" horiz-adv-x="346" 
d="M26 83l50 19q10 -25 33.5 -40t54.5 -15q37 0 60.5 20.5t23.5 52.5t-24.5 54t-63.5 22q-13 0 -29 -2.5t-23 -5.5l-20 26l106 102h-133v53h224v-33l-101 -93q21 0 40 -6q34 -13 56.5 -45.5t22.5 -71.5q0 -27 -13 -56.5t-48 -50.5t-78 -21q-48 0 -85.5 25t-52.5 66z" />
    <glyph glyph-name="uni2084" unicode="&#x2084;" horiz-adv-x="349" 
d="M30 73v39l128 257h59l-121 -242h138v74h57v-201h-57v73h-204z" />
    <glyph glyph-name="uni2085" unicode="&#x2085;" horiz-adv-x="332" 
d="M23 77l50 24q12 -24 33.5 -39t45.5 -15q32 0 56 23.5t24 55.5q0 33 -24.5 55.5t-60.5 22.5q-31 0 -51 -17l-41 13l30 169h180v-53h-131l-12 -64q12 6 34 6q39 0 72 -22.5t46 -53.5t13 -56q0 -28 -14 -58.5t-47.5 -53t-73.5 -22.5t-74.5 23.5t-54.5 61.5z" />
    <glyph glyph-name="uni2086" unicode="&#x2086;" horiz-adv-x="353" 
d="M177 -8q-54 0 -93 39t-39 94q0 13 5 34t40 73l92 137h68l-82 -117l16 1q29 0 56.5 -15t47.5 -44.5t20 -68.5q0 -28 -13.5 -58.5t-46 -52.5t-71.5 -22zM177 47q31 0 53.5 23t22.5 53q0 31 -22.5 53.5t-53.5 22.5q-32 0 -53 -21.5t-21 -54.5q0 -32 21.5 -54t52.5 -22z" />
    <glyph glyph-name="uni2087" unicode="&#x2087;" horiz-adv-x="341" 
d="M83 0l157 316h-189v53h265v-26l-170 -343h-63z" />
    <glyph glyph-name="uni2088" unicode="&#x2088;" horiz-adv-x="356" 
d="M51 115q0 34 18.5 62t43.5 37q-14 9 -24.5 28t-10.5 36q0 19 10 42t35.5 40t55.5 17q19 0 42 -10t40 -34.5t17 -54.5q0 -17 -10.5 -36t-24.5 -28q25 -9 43.5 -37t18.5 -62q0 -23 -12.5 -52t-44 -50t-69.5 -21q-25 0 -55 12.5t-51.5 43.5t-21.5 67zM179 229
q18 0 30.5 14.5t12.5 33.5q0 18 -13 32t-30 14q-19 0 -32 -14t-13 -32q0 -19 13 -33.5t32 -14.5zM108 115q0 -27 21 -47.5t50 -20.5q27 0 48 20.5t21 47.5q0 28 -20.5 48t-48.5 20q-29 0 -50 -20t-21 -48z" />
    <glyph glyph-name="uni2089" unicode="&#x2089;" horiz-adv-x="346" 
d="M97 0l89 126l-19 -2q-47 0 -84.5 35.5t-37.5 87.5q0 25 13 55.5t45 52.5t70 22q24 0 54 -12.5t52 -44.5t22 -71q0 -22 -9 -46.5t-40 -71.5l-88 -131h-67zM173 175q34 0 54 21.5t20 52.5q0 30 -22 52t-52 22t-51.5 -22t-21.5 -52t21.5 -52t51.5 -22z" />
    <glyph glyph-name="Euro" unicode="&#x20ac;" horiz-adv-x="745" 
d="M8 240l30 69h81l-2 39q0 25 3 47h-91l30 69h74q33 110 120 178t197 68q71 0 134.5 -28t109.5 -78l-55 -49q-34 39 -83.5 61t-105.5 22q-82 0 -145 -47.5t-91 -126.5h272l-30 -69h-258q-3 -22 -3 -47l2 -39h225l-30 -69h-181q20 -61 57.5 -101.5t83.5 -60.5t98 -20
q59 0 110.5 23t86.5 64l56 -50q-47 -51 -113 -80t-140 -29q-55 0 -106.5 18t-94 52t-73 81.5t-45.5 102.5h-123z" />
    <glyph glyph-name="afii61289" unicode="&#x2113;" horiz-adv-x="470" 
d="M30 118l-26 50l81 59v265q0 70 18 118t53 75t87 27q61 0 97 -42t36 -112q0 -91 -54 -178t-161 -181v-10q1 -72 29 -104t77 -32q22 0 47.5 10.5t48 34t38.5 50.5l43 -42q-68 -121 -198 -121q-73 0 -116 48.5t-43 123.5zM159 282q50 50 84.5 102t47 96t12.5 76
q0 44 -18 65.5t-47 21.5q-33 0 -56 -34t-23 -100v-227z" />
    <glyph glyph-name="afii61352" unicode="&#x2116;" horiz-adv-x="1174" 
d="M92 0v697h68l379 -549v549h78v-697h-63l-384 555v-555h-78zM726 482q0 30 10.5 63.5t38 66.5t68.5 50t81 17t71.5 -13t57.5 -34t47.5 -60t21.5 -90q0 -30 -10.5 -63.5t-38 -66.5t-68.5 -50t-81 -17t-71.5 13t-57.5 34t-47.5 60t-21.5 90zM800 482q0 -38 21 -70.5t50 -45
t53 -12.5t53 12.5t50 45t21 70.5t-21 70.5t-50 45t-53 12.5t-53 -12.5t-50 -45t-21 -70.5zM739 145v69h375v-69h-375z" />
    <glyph glyph-name="trademark" unicode="&#x2122;" horiz-adv-x="842" 
d="M379 326v372h7l195 -199l195 199h7v-372h-75v204l-127 -140l-127 140v-204h-75zM140 326v299h-118v72h311v-72h-118v-299h-75z" />
    <glyph glyph-name="uni2126" unicode="&#x2126;" horiz-adv-x="780" 
d="M61 0v72h113q-59 49 -93 124t-34 162q0 73 27 138.5t74 113t110 74t132 26.5t132 -26.5t110 -74t74 -113t27 -138.5q0 -64 -19.5 -123.5t-49.5 -99.5t-58 -63h113v-72h-282q219 140 219 343q0 61 -20 115.5t-56 94.5t-85 62.5t-105 22.5t-105 -22.5t-85 -62.5t-56 -94.5
t-20 -115.5q0 -203 219 -343h-282z" />
    <glyph glyph-name="estimated" unicode="&#x212e;" horiz-adv-x="909" 
d="M200 102q51 -43 117.5 -68t137.5 -25q41 0 93.5 11.5t105.5 42t91 73.5h30q-56 -68 -140.5 -108t-180.5 -40q-61 0 -129.5 20t-130.5 67.5t-95.5 105t-44 105t-10.5 84.5q0 57 21.5 121t72.5 121.5t112.5 88.5t113 41t90.5 10q82 0 157.5 -29.5t132.5 -82.5t89 -123.5
t32 -146.5v-11h-665v-257zM200 380h508v259q-51 42 -116.5 66.5t-136.5 24.5t-137.5 -25t-117.5 -68v-257z" />
    <glyph glyph-name="onethird" unicode="&#x2153;" horiz-adv-x="745" 
d="M78 0l390 697h74l-390 -697h-74zM108 328v316h-48v53h105v-369h-57zM414 83l50 19q10 -25 33.5 -40t54.5 -15q37 0 60.5 20.5t23.5 52.5t-24.5 54t-63.5 22q-13 0 -29 -2.5t-23 -5.5l-20 26l106 102h-133v53h224v-33l-101 -93q21 0 40 -6q34 -13 56.5 -45.5t22.5 -71.5
q0 -27 -13 -56.5t-48 -50.5t-78 -21q-48 0 -85.5 25t-52.5 66z" />
    <glyph glyph-name="twothirds" unicode="&#x2154;" horiz-adv-x="808" 
d="M176 0l390 697h74l-390 -697h-74zM64 328v40l153 177q24 29 24 52q0 22 -16 38t-38 16t-38 -19t-16 -44h-56q0 22 11 49.5t38.5 47.5t60.5 20t61 -18.5t39 -43.5t11 -46q0 -22 -6 -41t-28 -45l-116 -129h159v-54h-243zM477 83l50 19q10 -25 33.5 -40t54.5 -15
q37 0 60.5 20.5t23.5 52.5t-24.5 54t-63.5 22q-13 0 -29 -2.5t-23 -5.5l-20 26l106 102h-133v53h224v-33l-101 -93q21 0 40 -6q34 -13 56.5 -45.5t22.5 -71.5q0 -27 -13 -56.5t-48 -50.5t-78 -21q-48 0 -85.5 25t-52.5 66z" />
    <glyph glyph-name="arrowleft" unicode="&#x2190;" horiz-adv-x="627" 
d="M253 29l-232 231l232 231l50 -50l-145 -145h442v-72h-443l146 -145z" />
    <glyph glyph-name="arrowup" unicode="&#x2191;" horiz-adv-x="647" 
d="M285 0v424l-130 -131l-50 50l218 219l218 -219l-50 -50l-130 131v-424h-76z" />
    <glyph glyph-name="arrowright" unicode="&#x2192;" horiz-adv-x="627" 
d="M26 224v72h442l-145 145l50 50l232 -231l-232 -231l-50 50l146 145h-443z" />
    <glyph glyph-name="arrowdown" unicode="&#x2193;" horiz-adv-x="647" 
d="M105 177l50 50l130 -131v408h76v-408l130 131l50 -50l-218 -219z" />
    <glyph glyph-name="arrowboth" unicode="&#x2194;" horiz-adv-x="895" 
d="M253 29l-232 231l232 231l50 -50l-145 -145h578l-145 145l50 50l232 -231l-232 -231l-50 50l146 145h-580l146 -145z" />
    <glyph glyph-name="arrowupdn" unicode="&#x2195;" horiz-adv-x="647" 
d="M126 124l50 50l109 -110v418l-109 -110l-50 50l197 198l197 -198l-50 -50l-109 110v-418l109 110l50 -50l-197 -198z" />
    <glyph glyph-name="uni2196" unicode="&#x2196;" horiz-adv-x="647" 
d="M119 137v328h328v-74h-204l308 -307l-51 -51l-305 305v-201h-76z" />
    <glyph glyph-name="uni2197" unicode="&#x2197;" horiz-adv-x="647" 
d="M96 84l308 307h-204v74h328v-328h-76v201l-305 -305z" />
    <glyph glyph-name="uni2198" unicode="&#x2198;" horiz-adv-x="647" 
d="M200 48v74h204l-308 307l51 51l305 -305v201h76v-328h-328z" />
    <glyph glyph-name="uni2199" unicode="&#x2199;" horiz-adv-x="647" 
d="M119 48v328h76v-201l305 305l51 -51l-308 -307h204v-74h-328z" />
    <glyph glyph-name="partialdiff" unicode="&#x2202;" horiz-adv-x="507" 
d="M36 208q0 44 16 86.5t44.5 75.5t68.5 52.5t85 19.5q40 0 79 -19t60 -54v1q0 86 -21 149.5t-56.5 93t-81.5 29.5q-29 0 -53 -9.5t-44 -34.5l-53 47q34 36 70 51.5t80 15.5q62 0 110.5 -31.5t77.5 -90.5q17 -36 29.5 -89.5t12.5 -120.5q0 -123 -20.5 -195.5t-54.5 -115.5
q-29 -38 -71.5 -61t-87.5 -23q-56 0 -97.5 27.5t-67 78t-25.5 117.5zM110 195q0 -25 9.5 -57.5t37 -57t69.5 -24.5q39 0 73.5 26.5t52.5 67.5t18 90q0 42 -19 74.5t-46.5 46t-54.5 13.5q-32 0 -66 -21t-54 -64t-20 -94z" />
    <glyph glyph-name="uni2206" unicode="&#x2206;" horiz-adv-x="624" 
d="M43 0v47l241 650h55l242 -650v-47h-538zM130 72h364l-182 492z" />
    <glyph glyph-name="product" unicode="&#x220f;" horiz-adv-x="655" 
d="M134 0v628h-103v69h593v-69h-103v-628h-74v628h-239v-628h-74z" />
    <glyph glyph-name="summation" unicode="&#x2211;" horiz-adv-x="572" 
d="M63 0v53l228 317l-212 274v53h430v-72h-338l204 -264l-211 -289h356v-72h-457z" />
    <glyph glyph-name="minus" unicode="&#x2212;" horiz-adv-x="384" 
d="M42 313v69h300v-69h-300z" />
    <glyph glyph-name="radical" unicode="&#x221a;" horiz-adv-x="712" 
d="M57 308l-22 52l152 64l171 -400l247 776h72l-286 -887h-58l-185 433z" />
    <glyph glyph-name="infinity" unicode="&#x221e;" horiz-adv-x="790" 
d="M208 174q-70 0 -115 43.5t-45 109.5q0 23 8.5 49t29 50t54 41t77.5 17q38 0 72.5 -18.5t60.5 -44t42 -42.5q57 61 103 83t87 22q70 0 115 -44t45 -113q0 -22 -8.5 -47.5t-29 -48.5t-54.5 -40t-78 -17q-25 0 -53.5 10t-56 32.5t-62.5 59.5q-58 -60 -104 -81t-88 -21z
M445 325q45 -48 75 -64.5t54 -16.5q18 0 39 8.5t36 29t15 45.5q0 38 -25 63t-63 25q-17 0 -38.5 -9.5t-43 -29.5t-49.5 -51zM215 244q25 0 55 17.5t81 68.5q-79 85 -134 85q-18 0 -39.5 -8.5t-36.5 -30.5t-15 -49q0 -36 25 -59.5t64 -23.5z" />
    <glyph glyph-name="integral" unicode="&#x222b;" horiz-adv-x="316" 
d="M20 -30q19 -7 42 -7q17 0 33 9t26 41t10 123q0 44 -6.5 194t-6.5 223q0 236 141 236q19 0 37 -4v-63q-12 5 -31 5q-38 0 -55 -42.5t-17 -137.5q0 -62 7 -220t7 -204q0 -77 -14.5 -126t-43.5 -74t-79 -25q-25 0 -50 9v63z" />
    <glyph glyph-name="approxequal" unicode="&#x2248;" horiz-adv-x="424" 
d="M28 378q4 29 20 51.5t38 31.5t42 9q36 0 85 -19.5t72 -19.5q42 0 56 41l49 -4q-13 -98 -102 -98q-38 0 -86.5 19.5t-71.5 19.5q-43 0 -53 -35zM34 243q4 29 20 51.5t38 31.5t42 9q36 0 85 -19.5t72 -19.5q42 0 56 41l49 -4q-13 -98 -102 -98q-38 0 -86.5 19.5t-71.5 19.5
q-43 0 -53 -35z" />
    <glyph glyph-name="notequal" unicode="&#x2260;" horiz-adv-x="426" 
d="M64 153l50 85h-72v69h112l56 95h-168v69h209l63 107l49 -29l-46 -78h67v-69h-108l-56 -95h164v-69h-204l-67 -114z" />
    <glyph glyph-name="lessequal" unicode="&#x2264;" horiz-adv-x="414" 
d="M44 329v54l318 196v-78l-239 -145l239 -144v-78zM20 0v69h342v-69h-342z" />
    <glyph glyph-name="greaterequal" unicode="&#x2265;" horiz-adv-x="414" 
d="M52 134v78l239 144l-239 145v78l318 -196v-54zM52 0v69h342v-69h-342z" />
    <glyph glyph-name="triagup" unicode="&#x25b2;" horiz-adv-x="539" 
d="M85 132l179 315l190 -315h-369z" />
    <glyph glyph-name="triagrt" unicode="&#x25ba;" horiz-adv-x="539" 
d="M136 74v369l315 -179z" />
    <glyph glyph-name="triagdn" unicode="&#x25bc;" horiz-adv-x="539" 
d="M264 72l-179 315h369z" />
    <glyph glyph-name="triaglf" unicode="&#x25c4;" horiz-adv-x="539" 
d="M88 264l315 179v-369z" />
    <glyph glyph-name="lozenge" unicode="&#x25ca;" horiz-adv-x="534" 
d="M252 0l-217 349l217 348h30l217 -348l-217 -349h-30zM267 105l149 244l-149 242l-149 -242z" />
    <glyph glyph-name="uni25E2" unicode="&#x25e2;" horiz-adv-x="539" 
d="M76 188l261 261l96 -349z" />
    <glyph glyph-name="uni25E3" unicode="&#x25e3;" horiz-adv-x="539" 
d="M106 100l96 349l261 -261z" />
    <glyph glyph-name="uni25E4" unicode="&#x25e4;" horiz-adv-x="539" 
d="M202 69l-96 349l357 -88z" />
    <glyph glyph-name="uni25E5" unicode="&#x25e5;" horiz-adv-x="539" 
d="M84 322l349 96l-88 -357z" />
    <glyph glyph-name="uniFB01" unicode="&#xfb01;" horiz-adv-x="500" 
d="M112 0v435h-81v69h81v42q0 53 12 84.5t37 52.5q19 14 47 21.5t76 7.5q29 0 49 -4v-70q-22 5 -57 5q-47 0 -68.5 -20.5t-21.5 -66.5v-52h234v-396q0 -28 8.5 -40.5t29.5 -12.5l26 2v-61q-18 -8 -47 -8q-91 0 -91 107v340h-160v-435h-74z" />
    <glyph glyph-name="uniFB02" unicode="&#xfb02;" horiz-adv-x="578" 
d="M112 0v435h-81v69h81v42q0 53 12 84.5t37 52.5q33 29 103 29q23 0 39 -4v-70q-19 5 -47 5q-36 0 -53 -20.5t-17 -66.5v-52h95v-69h-95v-435h-74zM371 127v570h74v-565q0 -41 14.5 -59.5t48.5 -18.5q25 0 36 2v-63q-14 -8 -46 -8q-69 0 -98 38t-29 104z" />
    <glyph glyph-name="uniFB03" unicode="&#xfb03;" horiz-adv-x="734" 
d="M112 0v435h-81v69h81v42q0 87 38.5 126.5t113.5 39.5q23 0 39 -4v-70q-19 5 -47 5q-36 0 -53 -20.5t-17 -66.5v-52h160v42q0 53 12 84.5t37 52.5q19 14 47 21.5t76 7.5q29 0 49 -4v-70q-22 5 -57 5q-47 0 -68.5 -20.5t-21.5 -66.5v-52h234v-396q0 -28 8.5 -40.5
t29.5 -12.5l26 2v-61q-18 -8 -47 -8q-91 0 -91 107v340h-160v-435h-74v435h-160v-435h-74z" />
    <glyph glyph-name="uniFB04" unicode="&#xfb04;" horiz-adv-x="802" 
d="M112 0v435h-81v69h81v42q0 87 38.5 126.5t113.5 39.5q23 0 39 -4v-70q-19 5 -47 5q-36 0 -53 -20.5t-17 -66.5v-52h160v42q0 87 38.5 126.5t113.5 39.5q23 0 39 -4v-70q-19 5 -47 5q-36 0 -53 -20.5t-17 -66.5v-52h95v-69h-95v-435h-74v435h-160v-435h-74zM595 127v570
h74v-565q0 -41 14.5 -59.5t48.5 -18.5q25 0 36 2v-63q-14 -8 -46 -8q-69 0 -98 38t-29 104z" />
    <glyph glyph-name="space.aalt" horiz-adv-x="30" 
 />
    <glyph glyph-name="a.ss01" horiz-adv-x="599" 
d="M35 252q0 56 20 105.5t55 85.5t82 56t98 20q36 0 72 -10t64 -32t43 -48v75h74v-504h-74v75q-15 -26 -43 -48t-64 -32t-72 -10q-51 0 -98 20t-82 56t-55 85.5t-20 105.5zM109 252q0 -30 9 -64t34 -67t62.5 -50t75.5 -17q49 0 94.5 25.5t69.5 73t24 99.5t-24 99.5t-69.5 73
t-94.5 25.5q-28 0 -59 -10t-61 -37.5t-45.5 -68.5t-15.5 -82z" />
    <glyph glyph-name="d.ss01" horiz-adv-x="600" 
d="M35 252q0 56 20 105.5t55 85.5t82 56t98 20q36 0 72 -10t64 -32t43 -48v268h74v-697h-74v75q-15 -26 -43 -48t-64 -32t-72 -10q-51 0 -98 20t-82 56t-55 85.5t-20 105.5zM109 252q0 -30 9 -64t34 -67t62.5 -50t75.5 -17q49 0 94.5 25.5t69.5 73t24 99.5t-24 99.5
t-69.5 73t-94.5 25.5q-28 0 -59 -10t-61 -37.5t-45.5 -68.5t-15.5 -82z" />
    <glyph glyph-name="h.ss01" horiz-adv-x="524" 
d="M57 0v697h74v-278q19 42 60 67.5t95 25.5q83 0 132 -52.5t49 -137.5v-322h-74v306q0 29 -11 62t-41 54t-73 21q-60 0 -98.5 -39.5t-38.5 -102.5v-301h-74z" />
    <glyph glyph-name="i.ss01" horiz-adv-x="190" 
d="M95 588q-20 0 -35 14.5t-15 35.5t15 35.5t35 14.5t35 -14.5t15 -35.5t-15 -35.5t-35 -14.5zM58 0v504h74v-504h-74z" />
    <glyph glyph-name="l.ss01" horiz-adv-x="190" 
d="M58 0v697h74v-697h-74z" />
    <glyph glyph-name="m.ss01" horiz-adv-x="802" 
d="M57 0v504h74v-85q18 42 55 67.5t87 25.5q52 0 90.5 -26.5t57.5 -73.5q22 47 64 73.5t97 26.5q77 0 122.5 -52.5t45.5 -137.5v-322h-74v306q0 62 -30.5 99.5t-83.5 37.5t-88.5 -40t-35.5 -102v-301h-74v306q0 63 -30 100t-82 37t-86.5 -39.5t-34.5 -102.5v-301h-74z" />
    <glyph glyph-name="n.ss01" horiz-adv-x="532" 
d="M57 0v504h74v-85q20 41 63 67t99 26q86 0 136.5 -52.5t50.5 -137.5v-322h-74v306q0 63 -35.5 100t-96.5 37q-63 0 -103 -39.5t-40 -102.5v-301h-74z" />
    <glyph glyph-name="r.ss04" horiz-adv-x="344" 
d="M57 0v363q0 78 43 117t131 39q36 0 67 -7v-70q-28 8 -68 8q-54 0 -76.5 -22t-22.5 -76v-352h-74z" />
    <glyph glyph-name="t.ss01" horiz-adv-x="308" 
d="M94 0v435h-64v69h64v193h74v-193h112v-69h-112v-435h-74z" />
    <glyph glyph-name="u.ss01" horiz-adv-x="525" 
d="M51 195v309h74v-302q0 -70 37 -107.5t100 -37.5q64 0 101 37.5t37 108.5v301h74v-302q0 -64 -24.5 -110.5t-72.5 -75t-118 -28.5q-68 0 -114.5 27.5t-70 72.5t-23.5 107z" />
    <glyph glyph-name="y.ss01" horiz-adv-x="520" 
d="M216 -3l-201 507h75l165 -418l174 418h76l-296 -697h-74z" />
    <glyph glyph-name="agrave.ss01" horiz-adv-x="599" 
d="M266 552l-93 145h99l53 -145h-59zM35 252q0 56 20 105.5t55 85.5t82 56t98 20q36 0 72 -10t64 -32t43 -48v75h74v-504h-74v75q-15 -26 -43 -48t-64 -32t-72 -10q-51 0 -98 20t-82 56t-55 85.5t-20 105.5zM109 252q0 -30 9 -64t34 -67t62.5 -50t75.5 -17q49 0 94.5 25.5
t69.5 73t24 99.5t-24 99.5t-69.5 73t-94.5 25.5q-28 0 -59 -10t-61 -37.5t-45.5 -68.5t-15.5 -82z" />
    <glyph glyph-name="aacute.ss01" horiz-adv-x="599" 
d="M261 552l53 145h99l-93 -145h-59zM35 252q0 56 20 105.5t55 85.5t82 56t98 20q36 0 72 -10t64 -32t43 -48v75h74v-504h-74v75q-15 -26 -43 -48t-64 -32t-72 -10q-51 0 -98 20t-82 56t-55 85.5t-20 105.5zM109 252q0 -30 9 -64t34 -67t62.5 -50t75.5 -17q49 0 94.5 25.5
t69.5 73t24 99.5t-24 99.5t-69.5 73t-94.5 25.5q-28 0 -59 -10t-61 -37.5t-45.5 -68.5t-15.5 -82z" />
    <glyph glyph-name="acircumflex.ss01" horiz-adv-x="599" 
d="M150 576l126 121h62l126 -121h-91l-66 66l-66 -66h-91zM35 252q0 56 20 105.5t55 85.5t82 56t98 20q36 0 72 -10t64 -32t43 -48v75h74v-504h-74v75q-15 -26 -43 -48t-64 -32t-72 -10q-51 0 -98 20t-82 56t-55 85.5t-20 105.5zM109 252q0 -30 9 -64t34 -67t62.5 -50
t75.5 -17q49 0 94.5 25.5t69.5 73t24 99.5t-24 99.5t-69.5 73t-94.5 25.5q-28 0 -59 -10t-61 -37.5t-45.5 -68.5t-15.5 -82z" />
    <glyph glyph-name="atilde.ss01" horiz-adv-x="599" 
d="M153 598q3 29 17.5 51.5t34.5 31.5t38 9q27 0 63.5 -19.5t53.5 -19.5q36 0 46 41l49 -4q-5 -46 -28 -72t-64 -26q-28 0 -64.5 19.5t-53.5 19.5q-16 0 -27.5 -8.5t-15.5 -26.5zM35 252q0 56 20 105.5t55 85.5t82 56t98 20q36 0 72 -10t64 -32t43 -48v75h74v-504h-74v75
q-15 -26 -43 -48t-64 -32t-72 -10q-51 0 -98 20t-82 56t-55 85.5t-20 105.5zM109 252q0 -30 9 -64t34 -67t62.5 -50t75.5 -17q49 0 94.5 25.5t69.5 73t24 99.5t-24 99.5t-69.5 73t-94.5 25.5q-28 0 -59 -10t-61 -37.5t-45.5 -68.5t-15.5 -82z" />
    <glyph glyph-name="adieresis.ss01" horiz-adv-x="599" 
d="M405 586q-20 0 -35 14.5t-15 35.5t15 35.5t35 14.5t35 -14.5t15 -35.5t-15 -35.5t-35 -14.5zM199 586q-20 0 -35 14.5t-15 35.5t15 35.5t35 14.5t35 -14.5t15 -35.5t-15 -35.5t-35 -14.5zM35 252q0 56 20 105.5t55 85.5t82 56t98 20q36 0 72 -10t64 -32t43 -48v75h74
v-504h-74v75q-15 -26 -43 -48t-64 -32t-72 -10q-51 0 -98 20t-82 56t-55 85.5t-20 105.5zM109 252q0 -30 9 -64t34 -67t62.5 -50t75.5 -17q49 0 94.5 25.5t69.5 73t24 99.5t-24 99.5t-69.5 73t-94.5 25.5q-28 0 -59 -10t-61 -37.5t-45.5 -68.5t-15.5 -82z" />
    <glyph glyph-name="amacron.ss01" horiz-adv-x="599" 
d="M160 601v69h294v-69h-294zM35 252q0 56 20 105.5t55 85.5t82 56t98 20q36 0 72 -10t64 -32t43 -48v75h74v-504h-74v75q-15 -26 -43 -48t-64 -32t-72 -10q-51 0 -98 20t-82 56t-55 85.5t-20 105.5zM109 252q0 -30 9 -64t34 -67t62.5 -50t75.5 -17q49 0 94.5 25.5t69.5 73
t24 99.5t-24 99.5t-69.5 73t-94.5 25.5q-28 0 -59 -10t-61 -37.5t-45.5 -68.5t-15.5 -82z" />
    <glyph glyph-name="abreve.ss01" horiz-adv-x="599" 
d="M291 558q-27 0 -60.5 12.5t-61.5 45.5t-34 81h69q23 -73 87 -73t87 73h69q-6 -48 -34 -81t-61.5 -45.5t-60.5 -12.5zM35 252q0 56 20 105.5t55 85.5t82 56t98 20q36 0 72 -10t64 -32t43 -48v75h74v-504h-74v75q-15 -26 -43 -48t-64 -32t-72 -10q-51 0 -98 20t-82 56
t-55 85.5t-20 105.5zM109 252q0 -30 9 -64t34 -67t62.5 -50t75.5 -17q49 0 94.5 25.5t69.5 73t24 99.5t-24 99.5t-69.5 73t-94.5 25.5q-28 0 -59 -10t-61 -37.5t-45.5 -68.5t-15.5 -82z" />
    <glyph glyph-name="aring.ss01" horiz-adv-x="599" 
d="M305 556q-40 0 -69 29t-29 69t29 68.5t69 28.5t68.5 -28.5t28.5 -68.5t-28.5 -69t-68.5 -29zM305 607q18 0 32 14t14 33q0 18 -14 32t-32 14q-19 0 -33 -14t-14 -32t14.5 -32.5t32.5 -14.5zM35 252q0 56 20 105.5t55 85.5t82 56t98 20q36 0 72 -10t64 -32t43 -48v75h74
v-504h-74v75q-15 -26 -43 -48t-64 -32t-72 -10q-51 0 -98 20t-82 56t-55 85.5t-20 105.5zM109 252q0 -30 9 -64t34 -67t62.5 -50t75.5 -17q49 0 94.5 25.5t69.5 73t24 99.5t-24 99.5t-69.5 73t-94.5 25.5q-28 0 -59 -10t-61 -37.5t-45.5 -68.5t-15.5 -82z" />
    <glyph glyph-name="aringacute.ss01" horiz-adv-x="599" 
d="M268 788l53 145h99l-93 -145h-59zM300 556q-40 0 -69 29t-29 69t29 68.5t69 28.5t68.5 -28.5t28.5 -68.5t-28.5 -69t-68.5 -29zM300 607q18 0 32 14t14 33q0 18 -14 32t-32 14q-19 0 -33 -14t-14 -32t14.5 -32.5t32.5 -14.5zM35 252q0 56 20 105.5t55 85.5t82 56t98 20
q36 0 72 -10t64 -32t43 -48v75h74v-504h-74v75q-15 -26 -43 -48t-64 -32t-72 -10q-51 0 -98 20t-82 56t-55 85.5t-20 105.5zM109 252q0 -30 9 -64t34 -67t62.5 -50t75.5 -17q49 0 94.5 25.5t69.5 73t24 99.5t-24 99.5t-69.5 73t-94.5 25.5q-28 0 -59 -10t-61 -37.5
t-45.5 -68.5t-15.5 -82z" />
    <glyph glyph-name="aogonek.ss01" horiz-adv-x="599" 
d="M35 252q0 56 20 105.5t55 85.5t82 56t98 20q36 0 72 -10t64 -32t43 -48v75h74v-500q-82 -52 -82 -99q0 -22 14.5 -33.5t35.5 -11.5q31 0 58 15l-13 -59q-28 -14 -57 -14t-54.5 14t-36 35t-10.5 40q0 32 20.5 59.5t50.5 46.5v1v77q-15 -26 -43 -48t-64 -32t-72 -10
q-51 0 -98 20t-82 56t-55 85.5t-20 105.5zM109 252q0 -30 9 -64t34 -67t62.5 -50t75.5 -17q49 0 94.5 25.5t69.5 73t24 99.5t-24 99.5t-69.5 73t-94.5 25.5q-28 0 -59 -10t-61 -37.5t-45.5 -68.5t-15.5 -82z" />
    <glyph glyph-name="dcaron.ss01" horiz-adv-x="777" 
d="M578 552l53 145h99l-93 -145h-59zM35 252q0 56 20 105.5t55 85.5t82 56t98 20q36 0 72 -10t64 -32t43 -48v268h74v-697h-74v75q-15 -26 -43 -48t-64 -32t-72 -10q-51 0 -98 20t-82 56t-55 85.5t-20 105.5zM109 252q0 -30 9 -64t34 -67t62.5 -50t75.5 -17q49 0 94.5 25.5
t69.5 73t24 99.5t-24 99.5t-69.5 73t-94.5 25.5q-28 0 -59 -10t-61 -37.5t-45.5 -68.5t-15.5 -82z" />
    <glyph glyph-name="dcroat.ss01" horiz-adv-x="600" 
d="M35 252q0 56 20 105.5t55 85.5t82 56t98 20q36 0 72 -10t64 -32t43 -48v146h-198v60h198v62h74v-62h57v-60h-57v-575h-74v75q-15 -26 -43 -48t-64 -32t-72 -10q-51 0 -98 20t-82 56t-55 85.5t-20 105.5zM109 252q0 -30 9 -64t34 -67t62.5 -50t75.5 -17q49 0 94.5 25.5
t69.5 73t24 99.5t-24 99.5t-69.5 73t-94.5 25.5q-28 0 -59 -10t-61 -37.5t-45.5 -68.5t-15.5 -82z" />
    <glyph glyph-name="hcircumflex.ss01" horiz-adv-x="524" 
d="M-63 721l126 121h62l126 -121h-91l-66 66l-66 -66h-91zM57 0v697h74v-278q19 42 60 67.5t95 25.5q83 0 132 -52.5t49 -137.5v-322h-74v306q0 29 -11 62t-41 54t-73 21q-60 0 -98.5 -39.5t-38.5 -102.5v-301h-74z" />
    <glyph glyph-name="hbar.ss01" horiz-adv-x="524" 
d="M57 0v573h-57v60h57v64h74v-64h198v-60h-198v-154q19 42 60 67.5t95 25.5q83 0 132 -52.5t49 -137.5v-322h-74v306q0 29 -11 62t-41 54t-74 21q-59 0 -97.5 -39.5t-38.5 -102.5v-301h-74z" />
    <glyph glyph-name="igrave.ss01" horiz-adv-x="190" 
d="M72 552l-93 145h99l53 -145h-59zM58 0v504h74v-504h-74z" />
    <glyph glyph-name="iacute.ss01" horiz-adv-x="190" 
d="M60 552l53 145h99l-93 -145h-59zM58 0v504h74v-504h-74z" />
    <glyph glyph-name="icircumflex.ss01" horiz-adv-x="190" 
d="M-37 576l101 121h62l101 -121h-86l-46 72l-46 -72h-86zM58 0v504h74v-504h-74z" />
    <glyph glyph-name="itilde.ss01" horiz-adv-x="190" 
d="M13 596l-48 4q5 39 25.5 64.5t52.5 25.5q20 0 53 -19.5t43 -19.5q29 0 37 41l47 -4q-10 -96 -79 -96q-20 0 -53 19.5t-44 19.5q-12 0 -21.5 -8t-12.5 -27zM58 0v504h74v-504h-74z" />
    <glyph glyph-name="idieresis.ss01" horiz-adv-x="190" 
d="M167 586q-20 0 -35 14.5t-15 35.5t15 35.5t35 14.5t35 -14.5t15 -35.5t-15 -35.5t-35 -14.5zM23 586q-20 0 -35 14.5t-15 35.5t15 35.5t35 14.5t35 -14.5t15 -35.5t-15 -35.5t-35 -14.5zM58 0v504h74v-504h-74z" />
    <glyph glyph-name="imacron.ss01" horiz-adv-x="190" 
d="M-24 601v69h238v-69h-238zM58 0v504h74v-504h-74z" />
    <glyph glyph-name="ibreve.ss01" horiz-adv-x="190" 
d="M95 564q-26 0 -55.5 12t-50 44.5t-22.5 76.5h69q2 -30 17 -48.5t42 -18.5t42 18.5t17 48.5h69q-1 -28 -13.5 -60t-43.5 -52.5t-71 -20.5zM58 0v504h74v-504h-74z" />
    <glyph glyph-name="iogonek.ss01" horiz-adv-x="190" 
d="M95 586q-20 0 -35 14.5t-15 35.5t15 35.5t35 14.5t35 -14.5t15 -35.5t-15 -35.5t-35 -14.5zM58 -4v508h74v-503q-41 -26 -59.5 -51t-18.5 -45q0 -22 14.5 -33.5t35.5 -11.5q31 0 58 15l-13 -59q-28 -14 -57 -14t-54.5 14t-36 35t-10.5 40q0 23 15 51t52 53v1z" />
    <glyph glyph-name="dotlessi.ss01" horiz-adv-x="190" 
d="M58 0v504h74v-504h-74z" />
    <glyph glyph-name="lacute.ss01" horiz-adv-x="190" 
d="M59 722l53 145h99l-93 -145h-59zM58 0v697h74v-697h-74z" />
    <glyph glyph-name="lcaron.ss01" horiz-adv-x="304" 
d="M171 552l53 145h99l-93 -145h-59zM58 0v697h74v-697h-74z" />
    <glyph glyph-name="lcommaaccent.ss01" horiz-adv-x="190" 
d="M58 0v697h74v-697h-74zM56 -48h99l-93 -145h-59z" />
    <glyph glyph-name="ldot.ss01" horiz-adv-x="314" 
d="M58 0v697h74v-697h-74zM221 318q-20 0 -35 14.5t-15 35.5t15 35.5t35 14.5t35 -14.5t15 -35.5t-15 -35.5t-35 -14.5z" />
    <glyph glyph-name="lslash.ss01" horiz-adv-x="218" 
d="M72 0v310l-68 -40v77l68 40v310h74v-266l85 51v-77l-85 -51v-354h-74z" />
    <glyph glyph-name="nacute.ss01" horiz-adv-x="532" 
d="M257 552l53 145h99l-93 -145h-59zM57 0v504h74v-85q20 41 63 67t99 26q86 0 136.5 -52.5t50.5 -137.5v-322h-74v306q0 63 -35.5 100t-96.5 37q-63 0 -103 -39.5t-40 -102.5v-301h-74z" />
    <glyph glyph-name="ncaron.ss01" horiz-adv-x="532" 
d="M245 576l-126 121h91l66 -66l66 66h91l-126 -121h-62zM57 0v504h74v-85q20 41 63 67t99 26q86 0 136.5 -52.5t50.5 -137.5v-322h-74v306q0 63 -35.5 100t-96.5 37q-63 0 -103 -39.5t-40 -102.5v-301h-74z" />
    <glyph glyph-name="ntilde.ss01" horiz-adv-x="532" 
d="M128 598q3 29 17.5 51.5t34.5 31.5t38 9q27 0 63.5 -19.5t53.5 -19.5q36 0 46 41l49 -4q-5 -46 -28 -72t-64 -26q-28 0 -64.5 19.5t-53.5 19.5q-16 0 -27.5 -8.5t-15.5 -26.5zM57 0v504h74v-85q20 41 63 67t99 26q86 0 136.5 -52.5t50.5 -137.5v-322h-74v306
q0 63 -35.5 100t-96.5 37q-63 0 -103 -39.5t-40 -102.5v-301h-74z" />
    <glyph glyph-name="ncommaaccent.ss01" horiz-adv-x="532" 
d="M57 0v504h74v-85q20 41 63 67t99 26q86 0 136.5 -52.5t50.5 -137.5v-322h-74v306q0 63 -35.5 100t-96.5 37q-63 0 -103 -39.5t-40 -102.5v-301h-74zM226 -48h99l-93 -145h-59z" />
    <glyph glyph-name="racute.ss04" horiz-adv-x="344" 
d="M129 552l53 145h99l-93 -145h-59zM57 0v363q0 78 43 117t131 39q36 0 67 -7v-70q-28 8 -68 8q-54 0 -76.5 -22t-22.5 -76v-352h-74z" />
    <glyph glyph-name="rcommaaccent.ss04" horiz-adv-x="344" 
d="M57 0v363q0 78 43 117t131 39q36 0 67 -7v-70q-28 8 -68 8q-54 0 -76.5 -22t-22.5 -76v-352h-74zM57 -48h99l-93 -145h-59z" />
    <glyph glyph-name="rcaron.ss04" horiz-adv-x="344" 
d="M160 576l-126 121h91l66 -66l66 66h91l-126 -121h-62zM57 0v363q0 78 43 117t131 39q36 0 67 -7v-70q-28 8 -68 8q-54 0 -76.5 -22t-22.5 -76v-352h-74z" />
    <glyph glyph-name="tcaron.ss01" horiz-adv-x="330" 
d="M213 552l52 145h92l-85 -145h-59zM94 0v435h-64v69h64v193h74v-193h112v-69h-112v-435h-74z" />
    <glyph glyph-name="tcommaaccent.ss01" horiz-adv-x="308" 
d="M94 0v435h-64v69h64v193h74v-193h112v-69h-112v-435h-74zM94 -48h99l-93 -145h-59z" />
    <glyph glyph-name="tbar.ss01" horiz-adv-x="308" 
d="M94 0v294h-64v69h64v72h-64v69h64v193h74v-193h112v-69h-112v-72h112v-69h-112v-294h-74z" />
    <glyph glyph-name="ugrave.ss01" horiz-adv-x="525" 
d="M237 552l-93 145h99l53 -145h-59zM51 195v309h74v-302q0 -70 37 -107.5t100 -37.5q64 0 101 37.5t37 108.5v301h74v-302q0 -64 -24.5 -110.5t-72.5 -75t-118 -28.5q-68 0 -114.5 27.5t-70 72.5t-23.5 107z" />
    <glyph glyph-name="uacute.ss01" horiz-adv-x="525" 
d="M228 552l53 145h99l-93 -145h-59zM51 195v309h74v-302q0 -70 37 -107.5t100 -37.5q64 0 101 37.5t37 108.5v301h74v-302q0 -64 -24.5 -110.5t-72.5 -75t-118 -28.5q-68 0 -114.5 27.5t-70 72.5t-23.5 107z" />
    <glyph glyph-name="ucircumflex.ss01" horiz-adv-x="525" 
d="M105 576l126 121h62l126 -121h-91l-66 66l-66 -66h-91zM51 195v309h74v-302q0 -70 37 -107.5t100 -37.5q64 0 101 37.5t37 108.5v301h74v-302q0 -64 -24.5 -110.5t-72.5 -75t-118 -28.5q-68 0 -114.5 27.5t-70 72.5t-23.5 107z" />
    <glyph glyph-name="utilde.ss01" horiz-adv-x="525" 
d="M112 598q3 29 17.5 51.5t34.5 31.5t38 9q27 0 63.5 -19.5t53.5 -19.5q36 0 46 41l49 -4q-5 -46 -28 -72t-64 -26q-28 0 -64.5 19.5t-53.5 19.5q-16 0 -27.5 -8.5t-15.5 -26.5zM51 195v309h74v-302q0 -70 37 -107.5t100 -37.5q64 0 101 37.5t37 108.5v301h74v-302
q0 -64 -24.5 -110.5t-72.5 -75t-118 -28.5q-68 0 -114.5 27.5t-70 72.5t-23.5 107z" />
    <glyph glyph-name="udieresis.ss01" horiz-adv-x="525" 
d="M366 586q-20 0 -35 14.5t-15 35.5t15 35.5t35 14.5t35 -14.5t15 -35.5t-15 -35.5t-35 -14.5zM160 586q-20 0 -35 14.5t-15 35.5t15 35.5t35 14.5t35 -14.5t15 -35.5t-15 -35.5t-35 -14.5zM51 195v309h74v-302q0 -70 37 -107.5t100 -37.5q64 0 101 37.5t37 108.5v301h74
v-302q0 -64 -24.5 -110.5t-72.5 -75t-118 -28.5q-68 0 -114.5 27.5t-70 72.5t-23.5 107z" />
    <glyph glyph-name="umacron.ss01" horiz-adv-x="525" 
d="M116 601v69h294v-69h-294zM51 195v309h74v-302q0 -70 37 -107.5t100 -37.5q64 0 101 37.5t37 108.5v301h74v-302q0 -64 -24.5 -110.5t-72.5 -75t-118 -28.5q-68 0 -114.5 27.5t-70 72.5t-23.5 107z" />
    <glyph glyph-name="ubreve.ss01" horiz-adv-x="525" 
d="M263 558q-27 0 -60.5 12.5t-61.5 45.5t-34 81h69q23 -73 87 -73t87 73h69q-6 -48 -34 -81t-61.5 -45.5t-60.5 -12.5zM51 195v309h74v-302q0 -70 37 -107.5t100 -37.5q64 0 101 37.5t37 108.5v301h74v-302q0 -64 -24.5 -110.5t-72.5 -75t-118 -28.5q-68 0 -114.5 27.5
t-70 72.5t-23.5 107z" />
    <glyph glyph-name="uring.ss01" horiz-adv-x="525" 
d="M263 517q-40 0 -69 29t-29 69t29 68.5t69 28.5t68.5 -28.5t28.5 -68.5t-28.5 -69t-68.5 -29zM263 568q18 0 32 14t14 33q0 18 -14 32t-32 14q-19 0 -33 -14t-14 -32t14.5 -32.5t32.5 -14.5zM51 195v309h74v-302q0 -70 37 -107.5t100 -37.5q64 0 101 37.5t37 108.5v301h74
v-302q0 -64 -24.5 -110.5t-72.5 -75t-118 -28.5q-68 0 -114.5 27.5t-70 72.5t-23.5 107z" />
    <glyph glyph-name="uhungarumlaut.ss01" horiz-adv-x="525" 
d="M307 552l63 145h95l-103 -145h-55zM153 552l63 145h95l-103 -145h-55zM51 195v309h74v-302q0 -70 37 -107.5t100 -37.5q64 0 101 37.5t37 108.5v301h74v-302q0 -64 -24.5 -110.5t-72.5 -75t-118 -28.5q-68 0 -114.5 27.5t-70 72.5t-23.5 107z" />
    <glyph glyph-name="uogonek.ss01" horiz-adv-x="525" 
d="M51 195v309h74v-302q0 -70 37 -107.5t100 -37.5q64 0 101 37.5t37 108.5v301h74v-302q0 -67 -29.5 -116t-85.5 -86q-76 -51 -76 -95q0 -22 14.5 -33.5t35.5 -11.5q31 0 58 15l-13 -59q-28 -14 -57 -14t-54.5 14t-36 35t-10.5 40q0 54 59 98l-20 -1q-68 0 -114.5 27.5
t-70 72.5t-23.5 107z" />
    <glyph glyph-name="ygrave.ss01" horiz-adv-x="516" 
d="M242 552l-93 145h99l53 -145h-59zM216 -3l-201 507h75l164 -420l175 420h72l-294 -697h-72z" />
    <glyph glyph-name="yacute.ss01" horiz-adv-x="516" 
d="M223 552l53 145h99l-93 -145h-59zM216 -3l-201 507h75l164 -420l175 420h72l-294 -697h-72z" />
    <glyph glyph-name="ycircumflex.ss01" horiz-adv-x="516" 
d="M101 576l126 121h62l126 -121h-91l-66 66l-66 -66h-91zM216 -3l-201 507h75l164 -420l175 420h72l-294 -697h-72z" />
    <glyph glyph-name="ydieresis.ss01" horiz-adv-x="516" 
d="M361 586q-20 0 -35 14.5t-15 35.5t15 35.5t35 14.5t35 -14.5t15 -35.5t-15 -35.5t-35 -14.5zM155 586q-20 0 -35 14.5t-15 35.5t15 35.5t35 14.5t35 -14.5t15 -35.5t-15 -35.5t-35 -14.5zM216 -3l-201 507h75l164 -420l175 420h72l-294 -697h-72z" />
    <glyph glyph-name="uniFB01.aalt" horiz-adv-x="478" 
d="M112 0v435h-81v69h81v42q0 53 12 84.5t37 52.5q19 14 47 21.5t76 7.5q29 0 49 -4v-70q-22 5 -57 5q-47 0 -68.5 -20.5t-21.5 -66.5v-52h234v-504h-74v435h-160v-435h-74z" />
    <glyph glyph-name="glyph331" horiz-adv-x="503" 
d="M112 0v435h-81v69h81v42q0 53 12 84.5t37 52.5q33 29 103 29q23 0 39 -4v-70q-19 5 -47 5q-36 0 -53 -20.5t-17 -66.5v-52h95v-69h-95v-435h-74zM371 0v697h74v-697h-74z" />
    <glyph glyph-name="uniFB03.aalt" horiz-adv-x="712" 
d="M112 0v435h-81v69h81v42q0 87 38.5 126.5t113.5 39.5q23 0 39 -4v-70q-19 5 -47 5q-36 0 -53 -20.5t-17 -66.5v-52h160v42q0 53 12 84.5t37 52.5q19 14 47 21.5t76 7.5q29 0 49 -4v-70q-22 5 -57 5q-47 0 -68.5 -20.5t-21.5 -66.5v-52h234v-504h-74v435h-160v-435h-74
v435h-160v-435h-74z" />
    <glyph glyph-name="glyph333" horiz-adv-x="727" 
d="M112 0v435h-81v69h81v42q0 87 38.5 126.5t113.5 39.5q23 0 39 -4v-70q-19 5 -47 5q-36 0 -53 -20.5t-17 -66.5v-52h160v42q0 87 38.5 126.5t113.5 39.5q23 0 39 -4v-70q-19 5 -47 5q-36 0 -53 -20.5t-17 -66.5v-52h95v-69h-95v-435h-74v435h-160v-435h-74zM595 0v697h74
v-697h-74z" />
    <glyph glyph-name="zero.oldstyle" horiz-adv-x="552" 
d="M41 201l-1 52l1 51q5 44 25 84t52 69t73 45.5t85 16.5t85 -16.5t73 -45.5t52 -69t24 -84l2 -51l-2 -52q-3 -33 -17.5 -69.5t-43.5 -68.5t-73.5 -54.5t-99.5 -22.5q-44 0 -85 16.5t-73 45.5t-52 69t-25 84zM116 207q6 -62 52.5 -104.5t107.5 -42.5t107.5 42.5t52.5 104.5
l2 46l-2 45q-6 62 -52.5 104.5t-107.5 42.5t-107.5 -42.5t-52.5 -104.5q-2 -13 -2 -45q0 -33 2 -46z" />
    <glyph glyph-name="one.oldstyle" horiz-adv-x="354" 
d="M187 0v404l-112 -80l-43 62l162 118h71v-504h-78z" />
    <glyph glyph-name="two.oldstyle" horiz-adv-x="481" 
d="M30 0v54l275 206q50 38 50 92q0 18 -10.5 40t-37.5 37.5t-61 15.5q-51 0 -87.5 -36.5t-36.5 -87.5h-74q0 29 10.5 62.5t35 63t63.5 51t89 21.5q78 0 130.5 -48.5t52.5 -118.5q0 -92 -75 -148l-180 -132h282v-72h-426z" />
    <glyph glyph-name="three.oldstyle" horiz-adv-x="512" 
d="M15 11l67 31q19 -42 61 -65.5t101 -23.5q70 0 112.5 34t42.5 91q0 59 -43.5 94t-118.5 35q-32 0 -84 -12l-28 50l210 187h-266v72h387v-52l-207 -181l21 1q52 0 101 -24t75.5 -70.5t26.5 -99.5q0 -44 -17 -81t-47.5 -63.5t-73 -40.5t-91.5 -14q-81 0 -141.5 35t-87.5 97z
" />
    <glyph glyph-name="four.oldstyle" horiz-adv-x="555" 
d="M43 0v52l223 452h84l-214 -432h271v152h78v-417h-78v193h-364z" />
    <glyph glyph-name="five.oldstyle" horiz-adv-x="520" 
d="M30 12l68 32q15 -31 41.5 -52.5t56.5 -29.5t56 -8q62 0 104.5 41t42.5 102q0 58 -43 100t-102 42q-36 0 -70 -12.5t-57 -32.5l-55 13l54 297h323v-72h-257l-26 -138q41 19 90 19q50 0 91.5 -18t71 -48t45 -68t15.5 -76q0 -50 -17 -91.5t-48 -71t-73 -45t-89 -15.5
q-77 0 -134.5 35.5t-87.5 96.5z" />
    <glyph glyph-name="six.oldstyle" horiz-adv-x="530" 
d="M40 209q0 30 9 59.5t23 55.5t27.5 47.5t32.5 50.5t26 39l159 236h92l-182 -268q18 5 48 5q31 0 66.5 -12t72 -44t56 -78.5t19.5 -90.5q0 -45 -18 -86t-49 -72t-72.5 -48.5t-85.5 -17.5t-85 17.5t-72.5 49t-49 72.5t-17.5 85zM114 209q0 -62 44 -106t106 -44t106.5 44
t44.5 106t-44.5 106.5t-106.5 44.5t-106 -44.5t-44 -106.5z" />
    <glyph glyph-name="seven.oldstyle" horiz-adv-x="494" 
d="M95 -193l274 625h-338v72h429v-54l-283 -643h-82z" />
    <glyph glyph-name="eight.oldstyle" horiz-adv-x="542" 
d="M38 211q0 70 35.5 120t88.5 72q-32 22 -51.5 56t-19.5 73q0 45 24 88.5t67.5 67.5t88.5 24t88.5 -24t67.5 -67.5t24 -88.5q0 -39 -19.5 -73t-51.5 -56q53 -22 88.5 -72t35.5 -120q0 -45 -18 -86.5t-50 -73t-75 -49t-90 -17.5t-90 17.5t-75 49t-50 73t-18 86.5zM271 426
q42 0 72.5 31.5t30.5 74.5t-30.5 74.5t-72.5 31.5t-72.5 -31.5t-30.5 -74.5t30.5 -74.5t72.5 -31.5zM116 211q0 -23 8 -48.5t27.5 -48t50 -39t69.5 -16.5q31 0 66.5 15t62 53t26.5 84q0 23 -8 48.5t-27.5 48t-50 39t-69.5 16.5q-31 0 -66.5 -15t-62 -53t-26.5 -84z" />
    <glyph glyph-name="nine.oldstyle" horiz-adv-x="529" 
d="M120 0l182 268q-18 -5 -48 -5q-31 0 -66.5 12t-72 44t-56 78.5t-19.5 90.5q0 45 18 86t49 72t72.5 48.5t85.5 17.5t85 -17.5t72.5 -49t49 -72.5t17.5 -85q0 -26 -9.5 -60t-31 -72t-62.5 -98l-174 -258h-92zM265 337q62 0 106 44.5t44 106.5t-44 106t-106 44t-106.5 -44
t-44.5 -106t44.5 -106.5t106.5 -44.5z" />
    <glyph glyph-name="zero.tnum" horiz-adv-x="528" 
d="M43 193q-3 34 -3 156q0 121 3 155q2 21 9.5 47t24 53t43 51.5t65 40.5t79.5 16q31 0 66 -10.5t71.5 -39.5t58 -72t25.5 -86q3 -34 3 -155q0 -122 -3 -156q-2 -21 -9.5 -47t-24 -53t-43 -51.5t-65 -40.5t-79.5 -16q-31 0 -66 10.5t-71.5 39.5t-58 72t-25.5 86zM117 198
q3 -28 19 -60.5t51.5 -55.5t76.5 -23t76.5 23t51.5 55.5t19 60.5q3 30 3 151q0 120 -3 150q-3 28 -19 60.5t-51.5 55.5t-76.5 23t-76.5 -23t-51.5 -55.5t-19 -60.5q-3 -30 -3 -150q0 -121 3 -151z" />
    <glyph glyph-name="one.tnum" horiz-adv-x="528" 
d="M303 0v604l-195 -126l-40 64l240 155h73v-697h-78z" />
    <glyph glyph-name="two.tnum" horiz-adv-x="528" 
d="M42 0v51l303 353q46 53 46 111q0 51 -36.5 87t-87.5 36t-87 -36.5t-36 -87.5h-77q0 29 10.5 62.5t39 67t70 51t81.5 17.5q87 0 144 -57t57 -141q0 -82 -72 -165l-239 -277h328v-72h-444z" />
    <glyph glyph-name="three.tnum" horiz-adv-x="528" 
d="M22 130l67 31q18 -47 62 -74.5t104 -27.5q25 0 52.5 7.5t54 29.5t40 55t13.5 68q0 69 -47.5 113t-127.5 44q-44 0 -89 -16l-28 50l221 215h-268v72h386v-52l-215 -206l23 2q33 0 70 -11t74 -41.5t56 -76.5t19 -93q0 -50 -17.5 -94t-49.5 -75t-75 -48t-92 -17
q-82 0 -144.5 39t-88.5 106z" />
    <glyph glyph-name="four.tnum" horiz-adv-x="528" 
d="M34 155v52l242 490h84l-233 -470h271v152h78v-379h-78v155h-364z" />
    <glyph glyph-name="five.tnum" horiz-adv-x="528" 
d="M20 127l67 32q20 -45 62 -72.5t91 -27.5q66 0 112.5 47.5t46.5 118.5q0 69 -43.5 118.5t-105.5 49.5q-68 0 -118 -38l-55 13l51 329h314v-72h-248l-23 -170q35 12 83 12q38 0 77.5 -13.5t76 -48t54 -83t17.5 -91.5q0 -54 -18 -100t-51 -78.5t-77 -50t-93 -17.5
q-33 0 -76 13t-83 48t-61 81z" />
    <glyph glyph-name="six.tnum" horiz-adv-x="530" 
d="M40 213q0 20 6.5 47.5t23.5 60.5t43.5 77t33.5 56l143 243h87l-163 -277q21 11 61 11q41 0 80 -16.5t69.5 -46.5t48 -70t17.5 -84q0 -47 -17.5 -89t-48.5 -73.5t-72 -49t-86 -17.5q-33 0 -71 12t-76.5 44t-58.5 79t-20 93zM119 210q0 -40 17.5 -73t51 -55.5t78.5 -22.5
q61 0 105.5 45t44.5 106t-44.5 105.5t-105.5 44.5q-63 0 -105 -43t-42 -107z" />
    <glyph glyph-name="seven.tnum" horiz-adv-x="528" 
d="M103 0l308 625h-383v72h476v-54l-315 -643h-86z" />
    <glyph glyph-name="eight.tnum" horiz-adv-x="528" 
d="M38 211q0 70 35.5 120t88.5 72q-32 22 -51.5 56t-19.5 73q0 45 23 88.5t65 67.5t85 24t85 -24t65 -67.5t23 -88.5q0 -39 -19.5 -73t-51.5 -56q53 -22 88.5 -72t35.5 -120q0 -33 -11.5 -71t-43.5 -76.5t-78.5 -58.5t-92.5 -20t-87.5 17.5t-72.5 49t-48.5 73t-17.5 86.5z
M264 426q18 0 40.5 10.5t39 37.5t16.5 58t-16.5 58t-39 37.5t-40.5 10.5t-40.5 -10.5t-39 -37.5t-16.5 -58t16.5 -58t39 -37.5t40.5 -10.5zM116 211q0 -46 23 -81t55.5 -53t69.5 -18t69.5 18t55.5 53t23 81t-23 81t-55.5 53t-69.5 18t-69.5 -18t-55.5 -53t-23 -81z" />
    <glyph glyph-name="nine.tnum" horiz-adv-x="528" 
d="M153 0l163 277q-21 -11 -61 -11q-41 0 -80 16.5t-69.5 46.5t-48 70t-17.5 84q0 47 17.5 89t48.5 73.5t72 49t86 17.5q33 0 71 -12t76.5 -44t58.5 -79t20 -93q0 -20 -6.5 -47.5t-23.5 -60.5t-43.5 -77t-33.5 -56l-143 -243h-87zM264 337q63 0 105 43t42 107q0 40 -17.5 73
t-51 55.5t-78.5 22.5q-61 0 -105.5 -45t-44.5 -106t44.5 -105.5t105.5 -44.5z" />
    <glyph glyph-name="four.ss05" horiz-adv-x="565" 
d="M27 124v54l363 519h56v-501h85v-72h-85v-124h-78v124h-341zM123 196h245v346z" />
    <glyph glyph-name="four.ss05.oldstyle" horiz-adv-x="527" 
d="M22 0v54l330 450h56v-432h78v-72h-78v-193h-78v193h-308zM120 72h210v284z" />
    <glyph glyph-name="four.ss05.tnum" horiz-adv-x="528" 
d="M20 124v54l333 519h56v-501h72v-72h-72v-124h-78v124h-311zM113 196h218v338z" />
    <glyph glyph-name="uni2074.aalt" horiz-adv-x="364" 
d="M34 390v38l191 269h50v-253h44v-54h-44v-62h-57v62h-184zM111 444h107v149z" />
    <glyph glyph-name="uni2084.aalt" horiz-adv-x="364" 
d="M34 62v38l191 269h50v-253h44v-54h-44v-62h-57v62h-184zM111 116h107v149z" />
    <glyph glyph-name="onequarter.aalt" horiz-adv-x="674" 
d="M78 0l390 697h74l-390 -697h-74zM108 328v316h-48v53h105v-369h-57zM334 62v38l191 269h50v-253h44v-54h-44v-62h-57v62h-184zM411 116h107v149z" />
    <glyph glyph-name="threequarters.aalt" horiz-adv-x="772" 
d="M176 0l390 697h74l-390 -697h-74zM174 320q-48 0 -85.5 25t-52.5 66l50 19q10 -25 33.5 -40t54.5 -15q37 0 60.5 20.5t23.5 52.5t-24.5 54t-63.5 22q-13 0 -29 -2.5t-23 -5.5l-20 26l106 102h-133v53h224v-33l-101 -93q21 0 40 -6q34 -13 56.5 -45.5t22.5 -71.5
q0 -27 -13 -56.5t-48 -50.5t-78 -21zM432 62v38l191 269h50v-253h44v-54h-44v-62h-57v62h-184zM509 116h107v149z" />
    <glyph glyph-name="parenleft_P_parenright.dlig" horiz-adv-x="812" 
d="M42 348q0 73 28.5 139.5t79 116.5t117 78.5t139.5 28.5t139.5 -28.5t117 -78.5t79 -116.5t28.5 -139.5t-28.5 -139.5t-79 -117t-117 -79t-139.5 -28.5t-139.5 28.5t-117 79t-79 117t-28.5 139.5zM86 348q0 -65 25 -124t69.5 -104t103 -70t122.5 -25t122.5 25t103 70
t69.5 104t25 124t-25 124t-69.5 103.5t-103 69.5t-122.5 25t-122.5 -25t-103 -69.5t-69.5 -103.5t-25 -124zM291 119v439h143q57 0 97.5 -40.5t40.5 -97.5q0 -59 -40.5 -98.5t-97.5 -39.5h-75v-163h-68zM359 347h74q31 0 51 20.5t20 52.5q0 31 -20 51.5t-51 20.5h-74v-145z
" />
    <glyph glyph-name="colon.aalt" horiz-adv-x="188" 
d="M94 430q-20 0 -35 14.5t-15 35.5t15 35.5t35 14.5t35 -14.5t15 -35.5t-15 -35.5t-35 -14.5zM94 154q-20 0 -35 14.5t-15 35.5t15 35.5t35 14.5t35 -14.5t15 -35.5t-15 -35.5t-35 -14.5z" />
    <glyph glyph-name="semicolon.aalt" horiz-adv-x="238" 
d="M124 430q-20 0 -35 14.5t-15 35.5t15 35.5t35 14.5t35 -14.5t15 -35.5t-15 -35.5t-35 -14.5zM-5 0l84 223h99l-117 -223h-66z" />
    <glyph glyph-name="bullet.case" horiz-adv-x="262" 
d="M131 266q-15 0 -34 8t-33.5 28t-14.5 46q0 16 8.5 35.5t29 33t44.5 13.5q15 0 34 -8t33.5 -28t14.5 -46q0 -16 -8.5 -35.5t-29 -33t-44.5 -13.5z" />
    <glyph glyph-name="periodcentered.aalt" horiz-adv-x="188" 
d="M94 297q-20 0 -35 14.5t-15 35.5t15 35.5t35 14.5t35 -14.5t15 -35.5t-15 -35.5t-35 -14.5z" />
    <glyph glyph-name="guilsinglleft.aalt" horiz-adv-x="258" 
d="M145 174l-110 175l110 175h78l-110 -175l110 -175h-78z" />
    <glyph glyph-name="guilsinglright.aalt" horiz-adv-x="258" 
d="M35 174l110 175l-110 175h78l110 -175l-110 -175h-78z" />
    <glyph glyph-name="guillemotleft.aalt" horiz-adv-x="414" 
d="M301 174l-110 175l110 175h78l-110 -175l110 -175h-78zM145 174l-110 175l110 175h78l-110 -175l110 -175h-78z" />
    <glyph glyph-name="guillemotright.aalt" horiz-adv-x="414" 
d="M191 174l110 175l-110 175h78l110 -175l-110 -175h-78zM35 174l110 175l-110 175h78l110 -175l-110 -175h-78z" />
    <glyph glyph-name="slash.case" horiz-adv-x="422" 
d="M21 -81l315 859h68l-314 -859h-69z" />
    <glyph glyph-name="backslash.aalt" horiz-adv-x="422" 
d="M335 -81l-314 859h68l315 -859h-69z" />
    <glyph glyph-name="hyphen.aalt" horiz-adv-x="384" 
d="M42 314v69h300v-69h-300z" />
    <glyph glyph-name="endash.aalt" horiz-adv-x="456" 
d="M41 314v69h374v-69h-374z" />
    <glyph glyph-name="emdash.aalt" horiz-adv-x="720" 
d="M41 314v69h638v-69h-638z" />
    <glyph glyph-name="parenleft.aalt" horiz-adv-x="294" 
d="M273 -138q-111 98 -168.5 220t-57.5 260t57.5 260t168.5 220l37 -40q-94 -92 -141.5 -200t-47.5 -240t47.5 -240t141.5 -200z" />
    <glyph glyph-name="parenright.aalt" horiz-adv-x="294" 
d="M-16 -98q94 92 141.5 200t47.5 240t-47.5 240t-141.5 200l37 40q111 -98 168.5 -220t57.5 -260t-57.5 -260t-168.5 -220z" />
    <glyph glyph-name="bracketleft.aalt" horiz-adv-x="307" 
d="M84 -96v890h225v-72h-147v-746h147v-72h-225z" />
    <glyph glyph-name="bracketright.aalt" horiz-adv-x="307" 
d="M-2 -24h147v746h-147v72h225v-890h-225v72z" />
    <glyph glyph-name="braceleft.aalt" horiz-adv-x="318" 
d="M113 33v190q0 65 -40 89q-6 3 -19 8t-26 6v48q6 0 19 3.5t26 10.5q40 24 40 89v190q0 26 11.5 56t41 51t67.5 21h45v-59h-37q-27 0 -40.5 -20.5t-13.5 -48.5v-179q0 -76 -34 -110q-17 -17 -40 -28q8 -4 20.5 -12.5t19.5 -15.5q34 -34 34 -110v-179q0 -28 13.5 -48.5
t40.5 -20.5h37v-59h-45q-38 0 -67.5 21t-41 51t-11.5 56z" />
    <glyph glyph-name="braceright.aalt" horiz-adv-x="318" 
d="M40 -36h37q27 0 40.5 20.5t13.5 48.5v179q0 76 34 110q7 7 19.5 15.5t20.5 12.5q-22 11 -40 28q-34 34 -34 110v179q0 28 -13.5 48.5t-40.5 20.5h-37v59h45q38 0 67.5 -21t41 -51t11.5 -56v-190q0 -65 40 -89q6 -3 19 -8t26 -6v-48q-6 0 -19 -3.5t-26 -10.5
q-40 -24 -40 -89v-190q0 -26 -11.5 -56t-41 -51t-67.5 -21h-45v59z" />
    <glyph glyph-name="exclamdown.aalt" horiz-adv-x="240" 
d="M120 612q-20 0 -35 14.5t-15 35.5t15 35.5t35 14.5t35 -14.5t15 -35.5t-15 -35.5t-35 -14.5zM73 0l16 542h62l16 -542h-94z" />
    <glyph glyph-name="questiondown.aalt" horiz-adv-x="396" 
d="M204 612q-20 0 -35 14.5t-15 35.5t15 35.5t35 14.5t35 -14.5t15 -35.5t-15 -35.5t-35 -14.5zM35 129q0 46 13 76.5t38 55t87 70.5q38 28 51 48.5t13 38.5q0 51 -56 51q-40 0 -71 -18v77q30 13 71 13q60 0 97 -34t37 -89q0 -74 -89 -138q-50 -35 -70.5 -53.5t-31.5 -41
t-11 -53.5q0 -13 8 -32.5t30.5 -31t53.5 -11.5q75 0 142 65v-88q-61 -49 -142 -49q-23 0 -53.5 6t-59.5 27t-43 52.5t-14 58.5z" />
    <glyph glyph-name="at.aalt" horiz-adv-x="803" 
d="M38 348q0 68 26.5 134t69 111t89.5 72t94 37t84 10q70 0 136.5 -26t117.5 -73.5t80.5 -111.5t29.5 -136q0 -101 -40.5 -156t-111.5 -55q-38 0 -65 17.5t-40 49.5q-21 -25 -49.5 -39t-60.5 -14q-72 0 -122 50.5t-50 124.5t50 124.5t122 50.5q62 0 100 -44v35h68v-229
q0 -31 11 -47t36 -16q44 0 64 38t20 110q0 57 -23 109t-64 91.5t-95.5 61.5t-113.5 22t-113 -23.5t-95 -65t-64 -97t-23 -115.5t23 -115t64 -96.5t95 -65t113 -23.5q34 0 71 10.5t67 28.5l32 -60q-78 -42 -170 -42q-68 0 -134 27t-117.5 76t-81.5 116.5t-30 143.5zM293 343
q0 -22 10 -47.5t36 -43.5t59 -18q20 0 45 10.5t42.5 38t17.5 60.5q0 34 -17.5 61.5t-42 38t-45.5 10.5t-46 -10.5t-42 -37.5t-17 -62z" />
    <glyph glyph-name="A.c2sc" horiz-adv-x="612" 
d="M32 0l247 558h54l247 -558h-81l-57 128h-272l-57 -128h-81zM201 198h210l-105 241z" />
    <glyph glyph-name="b.aalt" horiz-adv-x="491" 
d="M79 0v558h180q65 0 108.5 -41.5t43.5 -104.5q0 -38 -18 -66.5t-49 -42.5q52 -12 80 -48t28 -86q0 -73 -50.5 -121t-126.5 -48h-196zM156 330h93q36 0 60.5 23t24.5 56t-24.5 55.5t-59.5 22.5h-94v-157zM156 70h114q21 0 46 9.5t42 34t17 55.5q0 18 -10 39.5t-36 37
t-59 15.5h-114v-191z" />
    <glyph glyph-name="C.aalt" horiz-adv-x="570" 
d="M39 278q0 61 22.5 115t62.5 93.5t93.5 61t112.5 21.5q30 0 69 -8.5t79 -31.5t66 -55l-52 -46q-29 33 -71 51.5t-91 18.5q-92 0 -153.5 -63t-61.5 -157t61.5 -157t153.5 -63q49 0 92 20t72 54l53 -47q-17 -21 -47.5 -44t-76.5 -38t-93 -15q-59 0 -112.5 21.5t-93.5 61
t-62.5 93t-22.5 114.5z" />
    <glyph glyph-name="D.c2sc" horiz-adv-x="624" 
d="M79 -1v560h196q70 0 128 -20.5t97.5 -58t60.5 -89.5t21 -113q0 -60 -20.5 -112t-60 -89t-97.5 -57.5t-128 -20.5h-197zM158 71h112q58 0 103 15t74 43t43 66t14 83q0 70 -29.5 116t-80.5 69t-125 23h-111v-415z" />
    <glyph glyph-name="e.aalt" horiz-adv-x="457" 
d="M79 0v558h324v-71h-247v-158h231v-70h-231v-189h253v-70h-330z" />
    <glyph glyph-name="f.aalt" horiz-adv-x="420" 
d="M79 0v558h298v-71h-221v-162h200v-70h-200v-255h-77z" />
    <glyph glyph-name="g.aalt" horiz-adv-x="600" 
d="M39 279q0 61 22.5 114.5t63 93t94 61t112.5 21.5q57 0 112 -22t89 -59l-46 -52q-30 29 -70.5 46t-84.5 17q-45 0 -85 -16.5t-69.5 -46.5t-45.5 -70.5t-16 -86.5q0 -34 10.5 -71.5t40.5 -75t75 -56t90 -18.5q41 0 78.5 14t65.5 39v127h-164v71h239v-224q-41 -45 -98 -71
t-121 -26q-59 0 -112.5 21.5t-94 61t-63 93.5t-22.5 115z" />
    <glyph glyph-name="H.c2sc" horiz-adv-x="630" 
d="M79 0v558h77v-227h318v227h77v-558h-77v261h-318v-261h-77z" />
    <glyph glyph-name="I.c2sc" horiz-adv-x="241" 
d="M82 0v558h77v-558h-77z" />
    <glyph glyph-name="j.aalt" horiz-adv-x="297" 
d="M26 -5v73q20 -9 44 -9q22 0 38.5 10.5t23 32.5t6.5 53v403h77v-400q0 -56 -11 -91.5t-43 -57.5t-91 -22q-25 0 -44 8z" />
    <glyph glyph-name="k.aalt" horiz-adv-x="553" 
d="M79 0v558h77v-276l268 276h98l-235 -244l242 -314h-93l-201 261l-79 -81v-180h-77z" />
    <glyph glyph-name="L.c2sc" horiz-adv-x="428" 
d="M79 0v558h77v-488h238v-70h-315z" />
    <glyph glyph-name="M.c2sc" horiz-adv-x="742" 
d="M79 0v558h72l220 -349l220 349h72v-558h-76v413l-216 -339l-216 339v-413h-76z" />
    <glyph glyph-name="N.c2sc" horiz-adv-x="650" 
d="M79 0v558h68l347 -424v424h77v-558h-63l-352 430v-430h-77z" />
    <glyph glyph-name="O.c2sc" horiz-adv-x="661" 
d="M37 278q0 61 23 115.5t63.5 94t94.5 61t113 21.5t113 -21.5t94.5 -61t63 -93.5t22.5 -116q0 -61 -23 -115t-63.5 -93.5t-94 -61t-112.5 -21.5t-113 21.5t-94.5 61t-63.5 93.5t-23 115zM115 278q0 -57 27.5 -110t79.5 -81t109 -28q45 0 84.5 16.5t68.5 46.5t45 70t16 86
q0 94 -61 156.5t-153 62.5q-57 0 -109 -28t-79.5 -80.5t-27.5 -110.5z" />
    <glyph glyph-name="p.aalt" horiz-adv-x="498" 
d="M79 0v558h198q26 0 56 -8.5t61.5 -32t48 -59.5t16.5 -73q0 -36 -14.5 -68.5t-40 -55.5t-58.5 -36t-69 -13h-121v-212h-77zM156 283h118q20 0 45.5 9.5t44 34.5t18.5 58t-18.5 58t-43.5 34.5t-46 9.5h-118v-204z" />
    <glyph glyph-name="q.aalt" horiz-adv-x="662" 
d="M39 278q0 61 22.5 115t63 93.5t94 61t112.5 21.5t112.5 -21.5t94 -61t63 -93.5t22.5 -115q0 -58 -20.5 -110t-57.5 -91l59 -72l-54 -44l-59 72q-71 -45 -160 -45q-59 0 -112.5 21.5t-94 61t-63 93t-22.5 114.5zM114 278q0 -46 16 -86.5t45.5 -70.5t70 -46.5t85.5 -16.5
q30 0 60 8.5t54 22.5l-84 102l54 44l83 -101q23 29 36 66.5t13 77.5q0 58 -27.5 111t-79.5 81t-109 28q-45 0 -85.5 -16.5t-70 -46t-45.5 -70.5t-16 -87z" />
    <glyph glyph-name="R.c2sc" horiz-adv-x="526" 
d="M79 0v558h208q74 0 127 -49.5t53 -120.5q0 -26 -10.5 -58t-38 -61t-62.5 -43l142 -226h-88l-131 213h-4h-119v-213h-77zM156 283h123q22 0 48.5 10t44.5 36t18 59q0 19 -10 42.5t-36.5 40t-59.5 16.5h-128v-204z" />
    <glyph glyph-name="S.aalt" horiz-adv-x="469" 
d="M36 123l66 31q14 -31 37 -54t50.5 -31.5t51.5 -8.5q38 0 62 11t37 31t13 48q0 32 -18.5 53t-47 34.5t-62.5 27.5q-91 37 -124 71.5t-33 90.5q0 62 47 103t117 41q56 0 96.5 -24.5t64.5 -72.5l-66 -33q-14 31 -37 45t-59 14t-61 -19t-25 -52q0 -27 17.5 -45t42.5 -30
t57 -25q65 -27 99.5 -50t51.5 -53.5t17 -74.5q0 -24 -8 -51.5t-29.5 -51.5t-59 -41t-93.5 -17q-69 0 -123.5 33.5t-80.5 99.5z" />
    <glyph glyph-name="T.c2sc" horiz-adv-x="442" 
d="M183 0v487h-157v71h390v-71h-157v-487h-76z" />
    <glyph glyph-name="U.c2sc" horiz-adv-x="605" 
d="M75 201v357h76v-349q0 -75 40.5 -113t110.5 -38q71 0 111 38t40 114v348h77v-348q0 -53 -17.5 -95t-49 -70t-74 -42t-91.5 -14q-47 0 -88 13.5t-71.5 40.5t-47 67t-16.5 91z" />
    <glyph glyph-name="v.aalt" horiz-adv-x="583" 
d="M263 0l-232 558h82l178 -427l178 427h83l-234 -558h-55z" />
    <glyph glyph-name="w.aalt" horiz-adv-x="812" 
d="M214 0l-190 558h79l138 -401l138 401h54l138 -401l138 401h79l-190 -558h-50l-142 414l-142 -414h-50z" />
    <glyph glyph-name="x.aalt" horiz-adv-x="565" 
d="M36 0l197 289l-184 269h85l149 -218l147 218h83l-183 -270l199 -288h-87l-163 235l-161 -235h-82z" />
    <glyph glyph-name="Y.c2sc" horiz-adv-x="543" 
d="M234 0v225l-209 333h85l164 -258l161 258h83l-207 -333v-225h-77z" />
    <glyph glyph-name="z.aalt" horiz-adv-x="553" 
d="M55 0v48l348 439h-314v71h418v-52l-344 -436h352v-70h-460z" />
    <glyph glyph-name="Agrave.c2sc" horiz-adv-x="612" 
d="M313 596l-82 116h97l42 -116h-57zM32 0l247 558h54l247 -558h-81l-57 128h-272l-57 -128h-81zM201 198h210l-105 241z" />
    <glyph glyph-name="Aacute.c2sc" horiz-adv-x="612" 
d="M239 596l42 116h98l-83 -116h-57zM32 0l247 558h54l247 -558h-81l-57 128h-272l-57 -128h-81zM201 198h210l-105 241z" />
    <glyph glyph-name="Acircumflex.c2sc" horiz-adv-x="612" 
d="M158 615l119 97h56l119 -97h-91l-56 50l-56 -50h-91zM32 0l247 558h54l247 -558h-81l-57 128h-272l-57 -128h-81zM201 198h210l-105 241z" />
    <glyph glyph-name="Atilde.c2sc" horiz-adv-x="612" 
d="M175 606q4 35 25.5 58t54.5 23q23 0 53.5 -14t42.5 -14q14 0 23 6t14 23l48 -4q-10 -85 -82 -85q-24 0 -54 14.5t-43 14.5q-27 0 -35 -26zM32 0l247 558h54l247 -558h-81l-57 128h-272l-57 -128h-81zM201 198h210l-105 241z" />
    <glyph glyph-name="Adieresis.c2sc" horiz-adv-x="612" 
d="M392 588q-19 0 -33.5 14t-14.5 34t14.5 34t33.5 14t33.5 -14t14.5 -34t-14.5 -34t-33.5 -14zM217 588q-19 0 -33.5 14t-14.5 34t14.5 34t33.5 14t33.5 -14t14.5 -34t-14.5 -34t-33.5 -14zM32 0l247 558h54l247 -558h-81l-57 128h-272l-57 -128h-81zM201 198h210l-105 241
z" />
    <glyph glyph-name="Amacron.c2sc" horiz-adv-x="612" 
d="M180 615v68h250v-68h-250zM32 0l247 558h54l247 -558h-81l-57 128h-272l-57 -128h-81zM201 198h210l-105 241z" />
    <glyph glyph-name="Abreve.c2sc" horiz-adv-x="612" 
d="M305 601q-38 0 -72 19.5t-50 48.5t-19 55h67q22 -59 74 -59t74 59h68q-5 -34 -23 -61t-48.5 -44.5t-70.5 -17.5zM32 0l247 558h54l247 -558h-81l-57 128h-272l-57 -128h-81zM201 198h210l-105 241z" />
    <glyph glyph-name="Aring.c2sc" horiz-adv-x="612" 
d="M32 0l249 524q-28 8 -46 31.5t-18 51.5q0 16 9 36.5t31.5 35t48.5 14.5t48.5 -14.5t31.5 -35t9 -36.5q0 -29 -18.5 -52.5t-46.5 -31.5l250 -523h-84l-62 128h-259l-62 -128h-81zM306 570q16 0 27.5 11t11.5 26t-11.5 26t-27.5 11t-28 -11t-12 -26t12 -26t28 -11zM205 198
h198l-99 214z" />
    <glyph glyph-name="Aringacute.c2sc" horiz-adv-x="612" 
d="M285 738l42 116h98l-82 -116h-58zM32 0l249 524q-28 8 -46 31.5t-18 51.5q0 16 9 36.5t31.5 35t48.5 14.5t48.5 -14.5t31.5 -35t9 -36.5q0 -29 -18.5 -52.5t-46.5 -31.5l250 -523h-84l-62 128h-259l-62 -128h-81zM306 570q16 0 27.5 11t11.5 26t-11.5 26t-27.5 11
t-28 -11t-12 -26t12 -26t28 -11zM205 198h198l-99 214z" />
    <glyph glyph-name="Aogonek.c2sc" horiz-adv-x="612" 
d="M32 0l247 558h54l247 -558q-22 -5 -45.5 -28t-23.5 -45q0 -16 12 -24.5t29 -8.5q23 0 49 12l-13 -57q-24 -11 -48 -11q-36 0 -63.5 20.5t-27.5 55.5q0 43 53 80l-1 2l-59 132h-272l-57 -128h-81zM201 198h210l-105 241z" />
    <glyph glyph-name="ae.aalt" horiz-adv-x="758" 
d="M-9 0l454 558h259v-71h-202v-158h186v-70h-186v-189h208v-70h-285v132h-229l-108 -132h-97zM251 202h174v218z" />
    <glyph glyph-name="aeacute.aalt" horiz-adv-x="758" 
d="M404 596l43 116h97l-82 -116h-58zM-9 0l454 558h259v-71h-202v-158h186v-70h-186v-189h208v-70h-285v132h-229l-108 -132h-97zM251 202h174v218z" />
    <glyph glyph-name="Cacute.aalt" horiz-adv-x="570" 
d="M297 596l39 116h96l-78 -116h-57zM39 278q0 61 22.5 115t62.5 93.5t93.5 61t112.5 21.5q30 0 69 -8.5t79 -31.5t66 -55l-52 -46q-29 33 -71 51.5t-91 18.5q-92 0 -153.5 -63t-61.5 -157t61.5 -157t153.5 -63q49 0 92 20t72 54l53 -47q-17 -21 -47.5 -44t-76.5 -38
t-93 -15q-59 0 -112.5 21.5t-93.5 61t-62.5 93t-22.5 114.5z" />
    <glyph glyph-name="Ccircumflex.aalt" horiz-adv-x="570" 
d="M185 615l119 97h56l119 -97h-91l-56 50l-56 -50h-91zM39 278q0 61 22.5 115t62.5 93.5t93.5 61t112.5 21.5q30 0 69 -8.5t79 -31.5t66 -55l-52 -46q-29 33 -71 51.5t-91 18.5q-92 0 -153.5 -63t-61.5 -157t61.5 -157t153.5 -63q49 0 92 20t72 54l53 -47
q-17 -21 -47.5 -44t-76.5 -38t-93 -15q-59 0 -112.5 21.5t-93.5 61t-62.5 93t-22.5 114.5z" />
    <glyph glyph-name="Ccaron.aalt" horiz-adv-x="570" 
d="M303 615l-119 97h91l56 -50l56 50h91l-119 -97h-56zM39 278q0 61 22.5 115t62.5 93.5t93.5 61t112.5 21.5q30 0 69 -8.5t79 -31.5t66 -55l-52 -46q-29 33 -71 51.5t-91 18.5q-92 0 -153.5 -63t-61.5 -157t61.5 -157t153.5 -63q49 0 92 20t72 54l53 -47q-17 -21 -47.5 -44
t-76.5 -38t-93 -15q-59 0 -112.5 21.5t-93.5 61t-62.5 93t-22.5 114.5z" />
    <glyph glyph-name="Cdotaccent.aalt" horiz-adv-x="570" 
d="M325 607q-19 0 -33.5 14t-14.5 34t14.5 34t33.5 14q18 0 33 -14t15 -34t-15 -34t-33 -14zM39 278q0 61 22.5 115t62.5 93.5t93.5 61t112.5 21.5q30 0 69 -8.5t79 -31.5t66 -55l-52 -46q-29 33 -71 51.5t-91 18.5q-92 0 -153.5 -63t-61.5 -157t61.5 -157t153.5 -63
q49 0 92 20t72 54l53 -47q-17 -21 -47.5 -44t-76.5 -38t-93 -15q-59 0 -112.5 21.5t-93.5 61t-62.5 93t-22.5 114.5z" />
    <glyph glyph-name="Ccedilla.aalt" horiz-adv-x="570" 
d="M39 278q0 61 22.5 115t62.5 93.5t93.5 61t112.5 21.5q30 0 69 -8.5t79 -31.5t66 -55l-52 -46q-29 33 -71 51.5t-91 18.5q-92 0 -153.5 -63t-61.5 -157t61.5 -157t153.5 -63q49 0 92 20t72 54l53 -47q-17 -21 -47.5 -44t-76.5 -38t-93 -15l-21 1l-10 -21q21 -1 36.5 -18
t15.5 -44q0 -72 -93 -72q-17 0 -36 6t-27 12l18 38q24 -13 44 -13q14 0 25 7.5t11 21.5q0 15 -10 23.5t-48 10.5l22 55q-46 12 -86.5 38t-70 63t-45.5 84t-16 98z" />
    <glyph glyph-name="Dcaron.c2sc" horiz-adv-x="625" 
d="M253 615l-119 97h91l56 -50l56 50h91l-119 -97h-56zM79 -1v560h197q70 0 127.5 -20.5t97.5 -58t61 -89.5t21 -113q0 -60 -21 -112t-60.5 -89t-97.5 -57.5t-128 -20.5h-197zM158 71h113q43 0 85.5 10t79 38t52.5 71t16 88q0 70 -29.5 116t-80.5 69t-124 23h-112v-415z" />
    <glyph glyph-name="Dcroat.c2sc" horiz-adv-x="619" 
d="M79 0v251h-57v70h57v237h195q70 0 128 -20.5t97.5 -58t60 -89.5t20.5 -112t-20.5 -111.5t-60 -89t-97 -57.5t-127.5 -20h-196zM156 70h113q44 0 86.5 10.5t75.5 35t53 65t20 97.5q0 46 -14.5 84.5t-43.5 66t-74 43t-104 15.5h-112v-166h123v-70h-123v-181z" />
    <glyph glyph-name="egrave.aalt" horiz-adv-x="457" 
d="M227 596l-82 116h97l42 -116h-57zM79 0v558h324v-71h-247v-158h231v-70h-231v-189h253v-70h-330z" />
    <glyph glyph-name="eacute.aalt" horiz-adv-x="457" 
d="M206 596l42 116h98l-82 -116h-58zM79 0v558h324v-71h-247v-158h231v-70h-231v-189h253v-70h-330z" />
    <glyph glyph-name="ecircumflex.aalt" horiz-adv-x="457" 
d="M91 615l119 97h56l119 -97h-91l-56 50l-56 -50h-91zM79 0v558h324v-71h-247v-158h231v-70h-231v-189h253v-70h-330z" />
    <glyph glyph-name="ecaron.aalt" horiz-adv-x="457" 
d="M214 615l-119 97h91l56 -50l56 50h91l-119 -97h-56zM79 0v558h324v-71h-247v-158h231v-70h-231v-189h253v-70h-330z" />
    <glyph glyph-name="edieresis.aalt" horiz-adv-x="457" 
d="M334 607q-19 0 -34 14t-15 34t15 34t34 14t33.5 -14t14.5 -34t-14.5 -34t-33.5 -14zM159 607q-19 0 -34 14t-15 34t15 34t34 14t33.5 -14t14.5 -34t-14.5 -34t-33.5 -14zM79 0v558h324v-71h-247v-158h231v-70h-231v-189h253v-70h-330z" />
    <glyph glyph-name="emacron.aalt" horiz-adv-x="457" 
d="M117 615v68h250v-68h-250zM79 0v558h324v-71h-247v-158h231v-70h-231v-189h253v-70h-330z" />
    <glyph glyph-name="ebreve.aalt" horiz-adv-x="457" 
d="M240 601q-40 0 -70.5 17.5t-48.5 44.5t-23 61h68q22 -59 74 -59t74 59h68q-5 -34 -23 -61t-48.5 -44.5t-70.5 -17.5zM79 0v558h324v-71h-247v-158h231v-70h-231v-189h253v-70h-330z" />
    <glyph glyph-name="edotaccent.aalt" horiz-adv-x="457" 
d="M244 607q-19 0 -33.5 14t-14.5 34t14.5 34t33.5 14t34 -14t15 -34t-15 -34t-34 -14zM79 0v558h324v-71h-247v-158h231v-70h-231v-189h253v-70h-330z" />
    <glyph glyph-name="eogonek.aalt" horiz-adv-x="457" 
d="M79 0v558h324v-71h-247v-158h231v-70h-231v-189h253v-70q-31 -18 -47 -37.5t-16 -35.5t12.5 -24.5t28.5 -8.5q23 0 49 12l-12 -57q-25 -11 -49 -11q-36 0 -63.5 20.5t-27.5 55.5q0 20 14.5 43t48.5 43h-268z" />
    <glyph glyph-name="gcircumflex.aalt" horiz-adv-x="599" 
d="M186 615l119 97h56l119 -97h-91l-56 50l-56 -50h-91zM39 279q0 61 22.5 114.5t63 93t94 61t112.5 21.5q57 0 112 -22t89 -59l-46 -52q-30 29 -70.5 46t-84.5 17q-45 0 -85 -16.5t-69.5 -46.5t-45.5 -70.5t-16 -86.5q0 -34 10.5 -71.5t40.5 -75t75 -56t90 -18.5
q41 0 78.5 14t65.5 39v127h-164v71h239v-224q-41 -45 -98 -71t-121 -26q-59 0 -112.5 21.5t-94 61t-63 93.5t-22.5 115z" />
    <glyph glyph-name="gbreve.aalt" horiz-adv-x="599" 
d="M328 601q-37 0 -70 19.5t-48.5 48.5t-18.5 55h67q22 -59 70 -59q49 0 69 59h68q-5 -34 -22.5 -61t-47 -44.5t-67.5 -17.5zM39 279q0 61 22.5 114.5t63 93t94 61t112.5 21.5q57 0 112 -22t89 -59l-46 -52q-30 29 -70.5 46t-84.5 17q-45 0 -85 -16.5t-69.5 -46.5
t-45.5 -70.5t-16 -86.5q0 -34 10.5 -71.5t40.5 -75t75 -56t90 -18.5q41 0 78.5 14t65.5 39v127h-164v71h239v-224q-41 -45 -98 -71t-121 -26q-59 0 -112.5 21.5t-94 61t-63 93.5t-22.5 115z" />
    <glyph glyph-name="gdotaccent.aalt" horiz-adv-x="599" 
d="M332 607q-19 0 -33.5 14t-14.5 34t14.5 34t33.5 14q18 0 32.5 -14t14.5 -34t-14.5 -34t-32.5 -14zM39 279q0 61 22.5 114.5t63 93t94 61t112.5 21.5q57 0 112 -22t89 -59l-46 -52q-30 29 -70.5 46t-84.5 17q-45 0 -85 -16.5t-69.5 -46.5t-45.5 -70.5t-16 -86.5
q0 -34 10.5 -71.5t40.5 -75t75 -56t90 -18.5q41 0 78.5 14t65.5 39v127h-164v71h239v-224q-41 -45 -98 -71t-121 -26q-59 0 -112.5 21.5t-94 61t-63 93.5t-22.5 115z" />
    <glyph glyph-name="Gcommaaccent.aalt" horiz-adv-x="599" 
d="M39 279q0 61 22.5 114.5t63 93t94 61t112.5 21.5q57 0 112 -22t89 -59l-46 -52q-30 29 -70.5 46t-84.5 17q-45 0 -85 -16.5t-69.5 -46.5t-45.5 -70.5t-16 -86.5q0 -34 10.5 -71.5t40.5 -75t75 -56t90 -18.5q41 0 78.5 14t65.5 39v127h-164v71h239v-224q-41 -45 -98 -71
t-121 -26q-59 0 -112.5 21.5t-94 61t-63 93.5t-22.5 115zM245 -154l39 116h97l-78 -116h-58z" />
    <glyph glyph-name="Hcircumflex.c2sc" horiz-adv-x="630" 
d="M167 615l119 97h56l119 -97h-91l-56 50l-56 -50h-91zM79 0v558h77v-227h318v227h77v-558h-77v261h-318v-261h-77z" />
    <glyph glyph-name="Hbar.c2sc" horiz-adv-x="630" 
d="M79 0v399h-50v66h50v93h77v-93h318v93h77v-93h50v-66h-50v-399h-77v261h-318v-261h-77zM156 331h318v68h-318v-68z" />
    <glyph glyph-name="Igrave.c2sc" horiz-adv-x="241" 
d="M95 596l-82 116h97l42 -116h-57zM82 0v558h77v-558h-77z" />
    <glyph glyph-name="Iacute.c2sc" horiz-adv-x="241" 
d="M87 596l42 116h98l-83 -116h-57zM82 0v558h77v-558h-77z" />
    <glyph glyph-name="Icircumflex.c2sc" horiz-adv-x="241" 
d="M-22 615l115 97h56l115 -97h-87l-56 50l-56 -50h-87zM82 0v558h77v-558h-77z" />
    <glyph glyph-name="Itilde.c2sc" horiz-adv-x="241" 
d="M37 602l-48 4q4 35 25.5 58t54.5 23q22 0 53 -14t44 -14q28 0 37 29l48 -4q-11 -85 -82 -85q-23 0 -54 14.5t-44 14.5q-27 0 -34 -26zM82 0v558h77v-558h-77z" />
    <glyph glyph-name="Idieresis.c2sc" horiz-adv-x="241" 
d="M196 607q-19 0 -33.5 14t-14.5 34t14.5 34t33.5 14t34 -14t15 -34t-15 -34t-34 -14zM45 607q-19 0 -33.5 14t-14.5 34t14.5 34t33.5 14t33.5 -14t14.5 -34t-14.5 -34t-33.5 -14zM82 0v558h77v-558h-77z" />
    <glyph glyph-name="Imacron.c2sc" horiz-adv-x="241" 
d="M-4 615v68h250v-68h-250zM82 0v558h77v-558h-77z" />
    <glyph glyph-name="Ibreve.c2sc" horiz-adv-x="241" 
d="M121 601q-40 0 -70.5 17.5t-48.5 44.5t-23 61h68q22 -59 74 -59t74 59h67q-3 -26 -19 -55t-50 -48.5t-72 -19.5zM82 0v558h77v-558h-77z" />
    <glyph glyph-name="Idotaccent.c2sc" horiz-adv-x="241" 
d="M121 607q-19 0 -34 14t-15 34t15 34t34 14t33.5 -14t14.5 -34t-14.5 -34t-33.5 -14zM82 0v558h77v-558h-77z" />
    <glyph glyph-name="Iogonek.c2sc" horiz-adv-x="241" 
d="M82 -7v565h77v-558q-8 -2 -23 -11.5t-29 -27.5t-14 -34t12 -24.5t28 -8.5q23 0 49 12l-12 -57q-25 -11 -48 -11q-36 0 -63.5 20.5t-27.5 55.5q0 45 51 78v1z" />
    <glyph glyph-name="ij.aalt" horiz-adv-x="474" 
d="M94 -3v72q19 -4 53 -7.5t58 -3.5q37 0 59 12.5t34 38t12 95.5v354h77v-344q0 -78 -15.5 -125.5t-55 -75t-109.5 -27.5t-113 11zM96 141v417h77v-417h-77z" />
    <glyph glyph-name="jcircumflex.aalt" horiz-adv-x="297" 
d="M30 615l115 97h56l115 -97h-87l-56 50l-56 -50h-87zM26 -5v73q20 -9 44 -9q22 0 38.5 10.5t23 32.5t6.5 53v403h77v-400q0 -56 -11 -91.5t-43 -57.5t-91 -22q-25 0 -44 8z" />
    <glyph glyph-name="kcommaaccent.aalt" horiz-adv-x="544" 
d="M79 0v558h77v-276l268 276h98l-235 -244l242 -314h-93l-201 261l-79 -81v-180h-77zM186 -154l43 116h97l-82 -116h-58z" />
    <glyph glyph-name="Lacute.c2sc" horiz-adv-x="428" 
d="M96 596l43 116h97l-82 -116h-58zM79 0v558h77v-488h238v-70h-315z" />
    <glyph glyph-name="Lcaron.c2sc" horiz-adv-x="428" 
d="M79 0v558h77v-488h238v-70h-315zM214 442l42 116h98l-83 -116h-57z" />
    <glyph glyph-name="Lcommaaccent.c2sc" horiz-adv-x="428" 
d="M79 0v558h77v-488h238v-70h-315zM155 -154l42 116h98l-82 -116h-58z" />
    <glyph glyph-name="Ldot.c2sc" horiz-adv-x="428" 
d="M79 0v558h77v-488h238v-70h-315zM278 246q-19 0 -33.5 14t-14.5 34t14.5 33.5t33.5 13.5t33.5 -13.5t14.5 -33.5t-14.5 -34t-33.5 -14z" />
    <glyph glyph-name="Lslash.c2sc" horiz-adv-x="427" 
d="M79 0v217l-57 -29v74l57 29v267h77v-225l118 61v-74l-118 -60v-190h238v-70h-315z" />
    <glyph glyph-name="Nacute.c2sc" horiz-adv-x="650" 
d="M282 596l43 116h97l-82 -116h-58zM79 0v558h68l347 -424v424h77v-558h-63l-352 430v-430h-77z" />
    <glyph glyph-name="Ncaron.c2sc" horiz-adv-x="650" 
d="M297 615l-119 97h91l56 -50l56 50h91l-119 -97h-56zM79 0v558h68l347 -424v424h77v-558h-63l-352 430v-430h-77z" />
    <glyph glyph-name="Ntilde.c2sc" horiz-adv-x="650" 
d="M191 606q4 35 25.5 58t54.5 23q23 0 53.5 -14t42.5 -14q14 0 23 6t14 23l48 -4q-10 -85 -82 -85q-24 0 -54 14.5t-43 14.5q-27 0 -35 -26zM79 0v558h68l347 -424v424h77v-558h-63l-352 430v-430h-77z" />
    <glyph glyph-name="Ncommaaccent.c2sc" horiz-adv-x="650" 
d="M79 0v558h68l347 -424v424h77v-558h-63l-352 430v-430h-77zM252 -154l42 116h97l-82 -116h-57z" />
    <glyph glyph-name="ograve.aalt" horiz-adv-x="661" 
d="M305 596l-78 116h97l39 -116h-58zM37 278q0 61 23 115.5t63.5 94t94.5 61t113 21.5t113 -21.5t94.5 -61t63 -93.5t22.5 -116q0 -61 -23 -115t-63.5 -93.5t-94 -61t-112.5 -21.5t-113 21.5t-94.5 61t-63.5 93.5t-23 115zM115 278q0 -57 27.5 -110t79.5 -81t109 -28
q45 0 84.5 16.5t68.5 46.5t45 70t16 86q0 94 -61 156.5t-153 62.5q-57 0 -109 -28t-79.5 -80.5t-27.5 -110.5z" />
    <glyph glyph-name="oacute.aalt" horiz-adv-x="661" 
d="M290 596l38 116h97l-78 -116h-57zM37 278q0 61 23 115.5t63.5 94t94.5 61t113 21.5t113 -21.5t94.5 -61t63 -93.5t22.5 -116q0 -61 -23 -115t-63.5 -93.5t-94 -61t-112.5 -21.5t-113 21.5t-94.5 61t-63.5 93.5t-23 115zM115 278q0 -57 27.5 -110t79.5 -81t109 -28
q45 0 84.5 16.5t68.5 46.5t45 70t16 86q0 94 -61 156.5t-153 62.5q-57 0 -109 -28t-79.5 -80.5t-27.5 -110.5z" />
    <glyph glyph-name="ocircumflex.aalt" horiz-adv-x="661" 
d="M179 615l119 97h56l119 -97h-91l-56 50l-56 -50h-91zM37 278q0 61 23 115.5t63.5 94t94.5 61t113 21.5t113 -21.5t94.5 -61t63 -93.5t22.5 -116q0 -61 -23 -115t-63.5 -93.5t-94 -61t-112.5 -21.5t-113 21.5t-94.5 61t-63.5 93.5t-23 115zM115 278q0 -57 27.5 -110
t79.5 -81t109 -28q45 0 84.5 16.5t68.5 46.5t45 70t16 86q0 94 -61 156.5t-153 62.5q-57 0 -109 -28t-79.5 -80.5t-27.5 -110.5z" />
    <glyph glyph-name="otilde.aalt" horiz-adv-x="661" 
d="M207 606q4 35 24.5 58t52.5 23q21 0 49.5 -14t39.5 -14q26 0 34 29l48 -4q-10 -85 -79 -85q-22 0 -50.5 14.5t-39.5 14.5q-25 0 -32 -26zM37 278q0 61 23 115.5t63.5 94t94.5 61t113 21.5t113 -21.5t94.5 -61t63 -93.5t22.5 -116q0 -61 -23 -115t-63.5 -93.5t-94 -61
t-112.5 -21.5t-113 21.5t-94.5 61t-63.5 93.5t-23 115zM115 278q0 -57 27.5 -110t79.5 -81t109 -28q45 0 84.5 16.5t68.5 46.5t45 70t16 86q0 94 -61 156.5t-153 62.5q-57 0 -109 -28t-79.5 -80.5t-27.5 -110.5z" />
    <glyph glyph-name="odieresis.aalt" horiz-adv-x="661" 
d="M414 588q-19 0 -33.5 14t-14.5 34t14.5 34t33.5 14q18 0 32.5 -14t14.5 -34t-14.5 -34t-32.5 -14zM249 588q-19 0 -33.5 14t-14.5 34t14.5 34t33.5 14t33.5 -14t14.5 -34t-14.5 -34t-33.5 -14zM37 278q0 61 23 115.5t63.5 94t94.5 61t113 21.5t113 -21.5t94.5 -61
t63 -93.5t22.5 -116q0 -61 -23 -115t-63.5 -93.5t-94 -61t-112.5 -21.5t-113 21.5t-94.5 61t-63.5 93.5t-23 115zM115 278q0 -57 27.5 -110t79.5 -81t109 -28q45 0 84.5 16.5t68.5 46.5t45 70t16 86q0 94 -61 156.5t-153 62.5q-57 0 -109 -28t-79.5 -80.5t-27.5 -110.5z" />
    <glyph glyph-name="omacron.aalt" horiz-adv-x="661" 
d="M213 616v68h235v-68h-235zM37 278q0 61 23 115.5t63.5 94t94.5 61t113 21.5t113 -21.5t94.5 -61t63 -93.5t22.5 -116q0 -61 -23 -115t-63.5 -93.5t-94 -61t-112.5 -21.5t-113 21.5t-94.5 61t-63.5 93.5t-23 115zM115 278q0 -57 27.5 -110t79.5 -81t109 -28
q45 0 84.5 16.5t68.5 46.5t45 70t16 86q0 94 -61 156.5t-153 62.5q-57 0 -109 -28t-79.5 -80.5t-27.5 -110.5z" />
    <glyph glyph-name="obreve.aalt" horiz-adv-x="661" 
d="M329 601q-38 0 -72 19.5t-50 48.5t-19 55h67q22 -59 74 -59t74 59h68q-5 -34 -23 -61t-48.5 -44.5t-70.5 -17.5zM37 278q0 61 23 115.5t63.5 94t94.5 61t113 21.5t113 -21.5t94.5 -61t63 -93.5t22.5 -116q0 -61 -23 -115t-63.5 -93.5t-94 -61t-112.5 -21.5t-113 21.5
t-94.5 61t-63.5 93.5t-23 115zM115 278q0 -57 27.5 -110t79.5 -81t109 -28q45 0 84.5 16.5t68.5 46.5t45 70t16 86q0 94 -61 156.5t-153 62.5q-57 0 -109 -28t-79.5 -80.5t-27.5 -110.5z" />
    <glyph glyph-name="ohungarumlaut.aalt" horiz-adv-x="661" 
d="M365 596l47 116h93l-87 -116h-53zM242 596l46 116h93l-86 -116h-53zM37 278q0 61 23 115.5t63.5 94t94.5 61t113 21.5t113 -21.5t94.5 -61t63 -93.5t22.5 -116q0 -61 -23 -115t-63.5 -93.5t-94 -61t-112.5 -21.5t-113 21.5t-94.5 61t-63.5 93.5t-23 115zM115 278
q0 -57 27.5 -110t79.5 -81t109 -28q45 0 84.5 16.5t68.5 46.5t45 70t16 86q0 94 -61 156.5t-153 62.5q-57 0 -109 -28t-79.5 -80.5t-27.5 -110.5z" />
    <glyph glyph-name="Oslash.aalt" horiz-adv-x="662" 
d="M90 3l43 59q-44 39 -69 95.5t-25 120.5q0 61 22.5 115t63 93.5t94 61t112.5 21.5q41 0 80.5 -11.5t70.5 -28.5l45 62l56 -42l-46 -62q40 -39 63 -93.5t23 -115.5t-22.5 -114.5t-63 -93t-94 -61t-112.5 -21.5q-36 0 -73.5 9t-68.5 25l-44 -60zM176 120l264 352
q-49 26 -109 26q-45 0 -85.5 -16.5t-70 -46t-45.5 -70.5t-16 -87t16.5 -87.5t45.5 -70.5zM232 80q47 -22 99 -22q45 0 85 16.5t69.5 46.5t45.5 70.5t16 86.5q0 87 -54 151z" />
    <glyph glyph-name="Oslashacute.aalt" horiz-adv-x="662" 
d="M304 596l39 116h97l-79 -116h-57zM90 3l43 59q-44 39 -69 95.5t-25 120.5q0 61 22.5 115t63 93.5t94 61t112.5 21.5q41 0 80.5 -11.5t70.5 -28.5l45 62l56 -42l-46 -62q40 -39 63 -93.5t23 -115.5t-22.5 -114.5t-63 -93t-94 -61t-112.5 -21.5q-36 0 -73.5 9t-68.5 25
l-44 -60zM176 120l264 352q-49 26 -109 26q-45 0 -85.5 -16.5t-70 -46t-45.5 -70.5t-16 -87t16.5 -87.5t45.5 -70.5zM232 80q47 -22 99 -22q45 0 85 16.5t69.5 46.5t45.5 70.5t16 86.5q0 87 -54 151z" />
    <glyph glyph-name="oe.aalt" horiz-adv-x="894" 
d="M41 278q0 61 23 115t64.5 93.5t96.5 61t116 21.5q70 0 127.5 -26.5t92.5 -72.5v88h279v-71h-202v-158h186v-70h-186v-189h208v-70h-285v87q-35 -46 -92.5 -72.5t-127.5 -26.5q-61 0 -116 21.5t-96.5 61t-64.5 93t-23 114.5zM116 278q0 -46 17 -86.5t47.5 -70.5t72 -46.5
t88.5 -16.5q35 0 73 11t75.5 41.5t56.5 76t19 91.5q0 58 -28.5 111t-82.5 81t-113 28q-47 0 -88.5 -16.5t-72 -46t-47.5 -70.5t-17 -87z" />
    <glyph glyph-name="Racute.c2sc" horiz-adv-x="526" 
d="M210 596l42 116h97l-82 -116h-57zM79 0v558h208q74 0 127 -49.5t53 -120.5q0 -26 -10.5 -58t-38 -61t-62.5 -43l142 -226h-88l-131 213h-4h-119v-213h-77zM156 283h123q22 0 48.5 10t44.5 36t18 59q0 19 -10 42.5t-36.5 40t-59.5 16.5h-128v-204z" />
    <glyph glyph-name="Rcaron.c2sc" horiz-adv-x="526" 
d="M224 615l-119 97h91l56 -50l56 50h91l-119 -97h-56zM79 0v558h208q74 0 127 -49.5t53 -120.5q0 -26 -10.5 -58t-38 -61t-62.5 -43l142 -226h-88l-131 213h-4h-119v-213h-77zM156 283h123q22 0 48.5 10t44.5 36t18 59q0 19 -10 42.5t-36.5 40t-59.5 16.5h-128v-204z" />
    <glyph glyph-name="Rcommaaccent.c2sc" horiz-adv-x="526" 
d="M79 0v558h208q74 0 127 -49.5t53 -120.5q0 -26 -10.5 -58t-38 -61t-62.5 -43l142 -226h-88l-131 213h-4h-119v-213h-77zM156 283h123q22 0 48.5 10t44.5 36t18 59q0 19 -10 42.5t-36.5 40t-59.5 16.5h-128v-204zM194 -154l42 116h98l-82 -116h-58z" />
    <glyph glyph-name="Sacute.aalt" horiz-adv-x="469" 
d="M209 596l42 116h98l-83 -116h-57zM36 123l66 31q14 -31 37 -54t50.5 -31.5t51.5 -8.5q38 0 62 11t37 31t13 48q0 32 -18.5 53t-47 34.5t-62.5 27.5q-91 37 -124 71.5t-33 90.5q0 62 47 103t117 41q56 0 96.5 -24.5t64.5 -72.5l-66 -33q-14 31 -37 45t-59 14t-61 -19
t-25 -52q0 -27 17.5 -45t42.5 -30t57 -25q65 -27 99.5 -50t51.5 -53.5t17 -74.5q0 -24 -8 -51.5t-29.5 -51.5t-59 -41t-93.5 -17q-69 0 -123.5 33.5t-80.5 99.5z" />
    <glyph glyph-name="Scircumflex.aalt" horiz-adv-x="469" 
d="M89 615l119 97h56l119 -97h-91l-56 50l-56 -50h-91zM36 123l66 31q14 -31 37 -54t50.5 -31.5t51.5 -8.5q38 0 62 11t37 31t13 48q0 32 -18.5 53t-47 34.5t-62.5 27.5q-91 37 -124 71.5t-33 90.5q0 62 47 103t117 41q56 0 96.5 -24.5t64.5 -72.5l-66 -33q-14 31 -37 45
t-59 14t-61 -19t-25 -52q0 -27 17.5 -45t42.5 -30t57 -25q65 -27 99.5 -50t51.5 -53.5t17 -74.5q0 -24 -8 -51.5t-29.5 -51.5t-59 -41t-93.5 -17q-69 0 -123.5 33.5t-80.5 99.5z" />
    <glyph glyph-name="Scaron.aalt" horiz-adv-x="469" 
d="M208 615l-119 97h91l56 -50l56 50h91l-119 -97h-56zM36 123l66 31q14 -31 37 -54t50.5 -31.5t51.5 -8.5q38 0 62 11t37 31t13 48q0 32 -18.5 53t-47 34.5t-62.5 27.5q-91 37 -124 71.5t-33 90.5q0 62 47 103t117 41q56 0 96.5 -24.5t64.5 -72.5l-66 -33q-14 31 -37 45
t-59 14t-61 -19t-25 -52q0 -27 17.5 -45t42.5 -30t57 -25q65 -27 99.5 -50t51.5 -53.5t17 -74.5q0 -24 -8 -51.5t-29.5 -51.5t-59 -41t-93.5 -17q-69 0 -123.5 33.5t-80.5 99.5z" />
    <glyph glyph-name="Scommaaccent.aalt" horiz-adv-x="469" 
d="M36 123l66 31q14 -31 37 -54t50.5 -31.5t51.5 -8.5q38 0 62 11t37 31t13 48q0 32 -18.5 53t-47 34.5t-62.5 27.5q-91 37 -124 71.5t-33 90.5q0 62 47 103t117 41q56 0 96.5 -24.5t64.5 -72.5l-66 -33q-14 31 -37 45t-59 14t-61 -19t-25 -52q0 -27 17.5 -45t42.5 -30
t57 -25q65 -27 99.5 -50t51.5 -53.5t17 -74.5q0 -24 -8 -51.5t-29.5 -51.5t-59 -41t-93.5 -17q-69 0 -123.5 33.5t-80.5 99.5zM140 -154l42 116h100l-82 -116h-60z" />
    <glyph glyph-name="Scedilla.c2sc" horiz-adv-x="469" 
d="M36 123l66 31q14 -31 37 -54t50.5 -31.5t51.5 -8.5q38 0 62 11t37 31t13 48q0 32 -18.5 53t-47 34.5t-62.5 27.5q-91 37 -124 71.5t-33 90.5q0 62 47 103t117 41q56 0 96.5 -24.5t64.5 -72.5l-66 -33q-14 31 -37 45t-59 14t-61 -19t-25 -52q0 -27 17.5 -45t42.5 -30
t57 -25q65 -27 99.5 -50t51.5 -53.5t17 -74.5q0 -50 -24.5 -86t-65 -55t-95.5 -20l-11 -22q22 -1 38.5 -18.5t16.5 -43.5q0 -72 -96 -72q-16 0 -36.5 6t-29.5 12l19 38q26 -13 46 -13q15 0 26.5 7.5t11.5 21.5q0 15 -10.5 23.5t-51.5 10.5l24 54q-53 9 -94 42t-62 87z" />
    <glyph glyph-name="germandbls.aalt" horiz-adv-x="948" 
d="M510 123l66 31q14 -31 37 -54t50.5 -31.5t51.5 -8.5q38 0 62 11t37 31t13 48q0 32 -18.5 53t-47 34.5t-62.5 27.5q-91 37 -124 71.5t-33 90.5q0 62 47 103t117 41q56 0 96.5 -24.5t64.5 -72.5l-66 -33q-14 31 -37 45t-59 14t-61 -19t-25 -52q0 -27 17.5 -45t42.5 -30
t57 -25q65 -27 99.5 -50t51.5 -53.5t17 -74.5q0 -24 -8 -51.5t-29.5 -51.5t-59 -41t-93.5 -17q-69 0 -123.5 33.5t-80.5 99.5zM36 123l66 31q14 -31 37 -54t50.5 -31.5t51.5 -8.5q38 0 62 11t37 31t13 48q0 32 -18.5 53t-47 34.5t-62.5 27.5q-91 37 -124 71.5t-33 90.5
q0 62 47 103t117 41q56 0 96.5 -24.5t64.5 -72.5l-66 -33q-14 31 -37 45t-59 14t-61 -19t-25 -52q0 -27 17.5 -45t42.5 -30t57 -25q65 -27 99.5 -50t51.5 -53.5t17 -74.5q0 -24 -8 -51.5t-29.5 -51.5t-59 -41t-93.5 -17q-69 0 -123.5 33.5t-80.5 99.5z" />
    <glyph glyph-name="Tcaron.c2sc" horiz-adv-x="442" 
d="M192 615l-119 97h91l56 -50l56 50h91l-119 -97h-56zM183 0v487h-157v71h390v-71h-157v-487h-76z" />
    <glyph glyph-name="Tcommaaccent.c2sc" horiz-adv-x="442" 
d="M183 0v487h-157v71h390v-71h-157v-487h-76zM131 -154l43 116h97l-82 -116h-58z" />
    <glyph glyph-name="Tbar.c2sc" horiz-adv-x="442" 
d="M183 0v277h-87v67h87v143h-157v71h390v-71h-157v-143h87v-67h-87v-277h-76z" />
    <glyph glyph-name="Ugrave.c2sc" horiz-adv-x="601" 
d="M280 596l-82 116h97l42 -116h-57zM75 201v357h76v-349q0 -75 40.5 -113t110.5 -38q71 0 111 38t40 114v348h77v-348q0 -53 -17.5 -95t-49 -70t-74 -42t-91.5 -14q-47 0 -88 13.5t-71.5 40.5t-47 67t-16.5 91z" />
    <glyph glyph-name="Uacute.c2sc" horiz-adv-x="601" 
d="M271 596l42 116h97l-82 -116h-57zM75 201v357h76v-349q0 -75 40.5 -113t110.5 -38q71 0 111 38t40 114v348h77v-348q0 -53 -17.5 -95t-49 -70t-74 -42t-91.5 -14q-47 0 -88 13.5t-71.5 40.5t-47 67t-16.5 91z" />
    <glyph glyph-name="Ucircumflex.c2sc" horiz-adv-x="601" 
d="M156 615l119 97h56l119 -97h-91l-56 50l-56 -50h-91zM75 201v357h76v-349q0 -75 40.5 -113t110.5 -38q71 0 111 38t40 114v348h77v-348q0 -53 -17.5 -95t-49 -70t-74 -42t-91.5 -14q-47 0 -88 13.5t-71.5 40.5t-47 67t-16.5 91z" />
    <glyph glyph-name="Utilde.c2sc" horiz-adv-x="601" 
d="M177 606q4 35 25.5 58t54.5 23q23 0 53.5 -14t42.5 -14q14 0 23 6t14 23l48 -4q-10 -85 -82 -85q-24 0 -54 14.5t-43 14.5q-27 0 -35 -26zM75 201v357h76v-349q0 -75 40.5 -113t110.5 -38q71 0 111 38t40 114v348h77v-348q0 -53 -17.5 -95t-49 -70t-74 -42t-91.5 -14
q-47 0 -88 13.5t-71.5 40.5t-47 67t-16.5 91z" />
    <glyph glyph-name="Udieresis.c2sc" horiz-adv-x="601" 
d="M392 588q-19 0 -33.5 14t-14.5 34t14.5 34t33.5 14t33.5 -14t14.5 -34t-14.5 -34t-33.5 -14zM217 588q-19 0 -33.5 14t-14.5 34t14.5 34t33.5 14t33.5 -14t14.5 -34t-14.5 -34t-33.5 -14zM75 201v357h76v-349q0 -75 40.5 -113t110.5 -38q71 0 111 38t40 114v348h77v-348
q0 -53 -17.5 -95t-49 -70t-74 -42t-91.5 -14q-47 0 -88 13.5t-71.5 40.5t-47 67t-16.5 91z" />
    <glyph glyph-name="Umacron.c2sc" horiz-adv-x="601" 
d="M176 615v68h250v-68h-250zM75 201v357h76v-349q0 -75 40.5 -113t110.5 -38q71 0 111 38t40 114v348h77v-348q0 -53 -17.5 -95t-49 -70t-74 -42t-91.5 -14q-47 0 -88 13.5t-71.5 40.5t-47 67t-16.5 91z" />
    <glyph glyph-name="Ubreve.c2sc" horiz-adv-x="601" 
d="M301 601q-38 0 -72 19.5t-50 48.5t-19 55h67q22 -59 74 -59t74 59h68q-5 -34 -23 -61t-48.5 -44.5t-70.5 -17.5zM75 201v357h76v-349q0 -75 40.5 -113t110.5 -38q71 0 111 38t40 114v348h77v-348q0 -53 -17.5 -95t-49 -70t-74 -42t-91.5 -14q-47 0 -88 13.5t-71.5 40.5
t-47 67t-16.5 91z" />
    <glyph glyph-name="Uring.c2sc" horiz-adv-x="601" 
d="M302 569q-36 0 -62.5 26t-26.5 61q0 16 9 36.5t31.5 35t48.5 14.5t48.5 -14.5t31.5 -35t9 -36.5q0 -17 -8.5 -37t-31 -35t-49.5 -15zM302 618q16 0 28 11.5t12 26.5t-12 26t-28 11t-27.5 -11t-11.5 -26t12 -26.5t27 -11.5zM75 201v357h76v-349q0 -75 40.5 -113t110.5 -38
q71 0 111 38t40 114v348h77v-348q0 -53 -17.5 -95t-49 -70t-74 -42t-91.5 -14q-47 0 -88 13.5t-71.5 40.5t-47 67t-16.5 91z" />
    <glyph glyph-name="Uhungarumlaut.c2sc" horiz-adv-x="601" 
d="M324 596l47 116h93l-87 -116h-53zM201 596l46 116h93l-86 -116h-53zM75 201v357h76v-349q0 -75 40.5 -113t110.5 -38q71 0 111 38t40 114v348h77v-348q0 -53 -17.5 -95t-49 -70t-74 -42t-91.5 -14q-47 0 -88 13.5t-71.5 40.5t-47 67t-16.5 91z" />
    <glyph glyph-name="Uogonek.c2sc" horiz-adv-x="605" 
d="M75 201v357h76v-349q0 -75 40.5 -113t110.5 -38q71 0 111 38t40 114v348h77v-348q0 -59 -21.5 -104.5t-60.5 -72.5q-2 -2 -30.5 -18.5t-48.5 -34.5t-26 -31t-6 -22q0 -16 12.5 -24.5t28.5 -8.5q23 0 49 12l-12 -57q-25 -11 -49 -11q-35 0 -62.5 20.5t-27.5 55.5
q0 42 46 75h-24q-47 0 -88 13.5t-71.5 40.5t-47 67t-16.5 91z" />
    <glyph glyph-name="wgrave.aalt" horiz-adv-x="812" 
d="M397 596l-82 116h97l43 -116h-58zM214 0l-190 558h79l138 -401l138 401h54l138 -401l138 401h79l-190 -558h-50l-142 414l-142 -414h-50z" />
    <glyph glyph-name="wacute.aalt" horiz-adv-x="812" 
d="M356 596l42 116h98l-82 -116h-58zM214 0l-190 558h79l138 -401l138 401h54l138 -401l138 401h79l-190 -558h-50l-142 414l-142 -414h-50z" />
    <glyph glyph-name="wcircumflex.aalt" horiz-adv-x="812" 
d="M258 615l119 97h56l119 -97h-91l-56 50l-56 -50h-91zM214 0l-190 558h79l138 -401l138 401h54l138 -401l138 401h79l-190 -558h-50l-142 414l-142 -414h-50z" />
    <glyph glyph-name="wdieresis.aalt" horiz-adv-x="812" 
d="M493 588q-19 0 -33.5 14t-14.5 34t14.5 34t33.5 14t33.5 -14t14.5 -34t-14.5 -34t-33.5 -14zM318 588q-19 0 -33.5 14t-14.5 34t14.5 34t33.5 14t33.5 -14t14.5 -34t-14.5 -34t-33.5 -14zM214 0l-190 558h79l138 -401l138 401h54l138 -401l138 401h79l-190 -558h-50
l-142 414l-142 -414h-50z" />
    <glyph glyph-name="Ygrave.c2sc" horiz-adv-x="544" 
d="M259 596l-82 116h97l43 -116h-58zM234 0v225l-209 333h85l164 -258l161 258h83l-207 -333v-225h-77z" />
    <glyph glyph-name="Yacute.c2sc" horiz-adv-x="544" 
d="M241 596l43 116h97l-82 -116h-58zM234 0v225l-209 333h85l164 -258l161 258h83l-207 -333v-225h-77z" />
    <glyph glyph-name="Ycircumflex.c2sc" horiz-adv-x="544" 
d="M124 615l119 97h56l119 -97h-91l-56 50l-56 -50h-91zM234 0v225l-209 333h85l164 -258l161 258h83l-207 -333v-225h-77z" />
    <glyph glyph-name="Ydieresis.c2sc" horiz-adv-x="544" 
d="M358 587q-19 0 -33.5 14t-14.5 34t14.5 34t33.5 14t34 -14t15 -34t-15 -34t-34 -14zM183 587q-19 0 -33.5 14t-14.5 34t14.5 34t33.5 14t34 -14t15 -34t-15 -34t-34 -14zM234 0v225l-209 333h85l164 -258l161 258h83l-207 -333v-225h-77z" />
    <glyph glyph-name="zacute.aalt" horiz-adv-x="553" 
d="M265 596l42 116h98l-82 -116h-58zM55 0v48l348 439h-314v71h418v-52l-344 -436h352v-70h-460z" />
    <glyph glyph-name="zcaron.aalt" horiz-adv-x="553" 
d="M283 615l-119 97h91l56 -50l56 50h91l-119 -97h-56zM55 0v48l348 439h-314v71h418v-52l-344 -436h352v-70h-460z" />
    <glyph glyph-name="zdotaccent.aalt" horiz-adv-x="553" 
d="M311 607q-19 0 -33.5 14t-14.5 34t14.5 34t33.5 14t34 -14t15 -34t-15 -34t-34 -14zM55 0v48l348 439h-314v71h418v-52l-344 -436h352v-70h-460z" />
    <glyph glyph-name="eng.aalt" horiz-adv-x="650" 
d="M79 0v558h67l349 -443v443h76v-543q0 -52 -9 -91t-39.5 -65.5t-86.5 -26.5q-29 0 -53 7v72q4 -3 20 -6t33 -3q26 0 42.5 22.5t16.5 75.5v1l-339 428v-429h-77z" />
    <glyph glyph-name="eth.aalt" horiz-adv-x="619" 
d="M79 0v251h-57v70h57v237h195q70 0 128 -20.5t97.5 -58t60 -89.5t20.5 -112t-20.5 -111.5t-60 -89t-97 -57.5t-127.5 -20h-196zM156 70h113q44 0 86.5 10.5t75.5 35t53 65t20 97.5q0 46 -14.5 84.5t-43.5 66t-74 43t-104 15.5h-112v-166h123v-70h-123v-181z" />
    <glyph glyph-name="thorn.aalt" horiz-adv-x="431" 
d="M79 0v558h77v-117h53q90 0 138 -46t48 -119t-46 -117.5t-133 -44.5h-60v-114h-77zM156 185h53q54 0 81.5 24.5t27.5 69.5q0 43 -27.5 67t-82.5 24h-52v-185z" />
    <glyph glyph-name="arrowleft.aalt" horiz-adv-x="647" 
d="M253 117l-232 231l232 231l50 -50l-145 -145h462v-72h-463l146 -145z" />
    <glyph glyph-name="arrowup.aalt" horiz-adv-x="647" 
d="M285 70v442l-130 -131l-50 50l218 219l218 -219l-50 -50l-130 131v-442h-76z" />
    <glyph glyph-name="arrowright.aalt" horiz-adv-x="647" 
d="M26 312v72h462l-145 145l50 50l232 -231l-232 -231l-50 50l146 145h-463z" />
    <glyph glyph-name="arrowdown.aalt" horiz-adv-x="647" 
d="M105 265l50 50l130 -131v442h76v-442l130 131l50 -50l-218 -219z" />
    <glyph glyph-name="arrowboth.aalt" horiz-adv-x="924" 
d="M253 117l-232 231l232 231l50 -50l-145 -145h608l-145 145l50 50l232 -231l-232 -231l-50 50l146 145h-610l146 -145z" />
    <glyph glyph-name="arrowupdn.aalt" horiz-adv-x="647" 
d="M105 185l50 50l130 -131v498l-130 -131l-50 50l218 219l218 -219l-50 -50l-130 131v-498l130 131l50 -50l-218 -219z" />
    <glyph glyph-name="uni2196.aalt" horiz-adv-x="647" 
d="M119 225v328h328v-74h-204l334 -333l-51 -51l-331 331v-201h-76z" />
    <glyph glyph-name="uni2197.aalt" horiz-adv-x="647" 
d="M121 95l-51 51l334 333h-204v74h328v-328h-76v201z" />
    <glyph glyph-name="uni2198.aalt" horiz-adv-x="647" 
d="M200 136v74h204l-334 333l51 51l331 -331v201h76v-328h-328z" />
    <glyph glyph-name="uni2199.aalt" horiz-adv-x="647" 
d="M119 136v328h76v-201l331 331l51 -51l-334 -333h204v-74h-328z" />
    <glyph glyph-name="triagup.aalt" horiz-adv-x="539" 
d="M85 229l179 315l190 -315h-369z" />
    <glyph glyph-name="triagrt.aalt" horiz-adv-x="539" 
d="M136 171v369l315 -179z" />
    <glyph glyph-name="triagdn.aalt" horiz-adv-x="539" 
d="M264 169l-179 315h369z" />
    <glyph glyph-name="triaglf.aalt" horiz-adv-x="539" 
d="M88 361l315 179v-369z" />
    <glyph glyph-name="uni25E2.aalt" horiz-adv-x="539" 
d="M76 285l261 261l96 -349z" />
    <glyph glyph-name="uni25E3.aalt" horiz-adv-x="539" 
d="M106 197l96 349l261 -261z" />
    <glyph glyph-name="uni25E4.aalt" horiz-adv-x="539" 
d="M202 166l-96 349l357 -88z" />
    <glyph glyph-name="uni25E5.aalt" horiz-adv-x="539" 
d="M345 158l-261 261l349 96z" />
    <glyph glyph-name="A.swash" 
d="M129 0l264 625h-84q-63 0 -105 -21t-64.5 -59t-22.5 -85q0 -49 27.5 -90t70.5 -61l-29 -66q-30 13 -64 41.5t-57.5 76.5t-23.5 99q0 68 34 122.5t96 86.5q55 28 138 28h175l295 -697h-84l-72 172h-338l-72 -172h-84zM315 244h278l-139 332z" />
    <glyph glyph-name="glyph687" 
d="M35 0l295 697h175q83 0 138 -28q62 -32 96 -86.5t34 -122.5q0 -51 -23.5 -99t-57.5 -76.5t-64 -41.5l-29 66q43 20 70.5 61t27.5 90q0 47 -22.5 85t-64.5 59t-105 21h-84l264 -625h-84l-72 172h-338l-72 -172h-84zM221 244h278l-139 332z" />
    <glyph glyph-name="A.swash.ss01" horiz-adv-x="1065" 
d="M45 213q0 36 13 77t48 82.5t85.5 63t98.5 21.5q55 0 103.5 -20t79.5 -57l-31 -71q-28 36 -68.5 56t-83.5 20q-25 0 -52.5 -9t-56.5 -33t-44 -60t-15 -70q0 -41 22 -81.5t61.5 -62.5t80.5 -22q50 0 83 20t54.5 52.5t46.5 92.5l205 485h60l295 -697h-84l-72 172h-338l-3 -7
q-49 -110 -105.5 -150t-141.5 -40q-48 0 -92 18.5t-77.5 51.5t-52.5 77t-19 91zM566 244h278l-139 332z" />
    <glyph glyph-name="glyph689" horiz-adv-x="1065" 
d="M35 0l295 697h60l205 -485q25 -60 46.5 -92.5t47 -48t48 -20t42.5 -4.5q41 0 80.5 22t61.5 62.5t22 81.5q0 26 -9 54.5t-33 58t-58.5 44.5t-67.5 15q-43 0 -83.5 -20t-68.5 -56l-31 71q31 37 79.5 57t103.5 20q48 0 93 -19t79 -52.5t53.5 -78.5t19.5 -94q0 -47 -19 -91
t-52.5 -77t-77.5 -51.5t-92 -18.5q-85 0 -141.5 40t-105.5 150l-3 7h-338l-72 -172h-84zM221 244h278l-139 332z" />
    <glyph glyph-name="B.swash" horiz-adv-x="840" 
d="M340 0v625h-31q-63 0 -105 -21t-64.5 -59t-22.5 -85q0 -22 7 -46.5t23 -47.5t42 -42t61 -26l-15 -70q-82 15 -138 81.5t-56 150.5q0 68 34 122.5t96 86.5q55 28 138 28h244q79 0 133 -51t54 -127q0 -49 -24 -86.5t-65 -53.5q69 -14 104.5 -61.5t35.5 -111.5
q0 -43 -16 -81t-44.5 -66t-68 -43.5t-83.5 -15.5h-239zM418 72h156q59 0 99 38.5t40 95.5q0 55 -40 92.5t-100 37.5h-155v-264zM418 406h130q36 0 64 18t39 44t11 48q0 34 -18.5 61t-45 37.5t-49.5 10.5h-131v-219z" />
    <glyph glyph-name="D.swash" horiz-adv-x="974" 
d="M340 0v625h-31q-63 0 -105 -21t-64.5 -59t-22.5 -85q0 -22 7 -46.5t23 -47.5t42 -42t61 -26l-15 -70q-82 15 -138 81.5t-56 150.5q0 68 34 122.5t96 86.5q55 28 138 28h255q82 0 149.5 -25.5t114.5 -72t71.5 -111t24.5 -140.5t-24.5 -140.5t-71 -111t-114 -71.5
t-149.5 -25h-225zM418 72h141q70 0 125 20t90.5 57t53.5 88t18 111q0 61 -18 112t-54 88t-90.5 57t-125.5 20h-140v-553z" />
    <glyph glyph-name="E.swash" horiz-adv-x="797" 
d="M340 0v625h-31q-63 0 -105 -21t-64.5 -59t-22.5 -85q0 -22 7 -46.5t23 -47.5t42 -42t61 -26l-15 -70q-82 15 -138 81.5t-56 150.5q0 68 34 122.5t96 86.5q55 28 138 28h425v-72h-316v-221h297v-72h-297v-260h323v-72h-401z" />
    <glyph glyph-name="glyph693" horiz-adv-x="833" 
d="M92 0v697h394v-72h-316v-221h297v-72h-297v-260h294q51 0 94.5 3.5t70.5 17.5q19 8 40 27t34 50t13 65q0 44 -22 82.5t-53.5 57.5t-57.5 24l15 70q62 -12 106 -49.5t66 -84.5t22 -100q0 -42 -14.5 -81.5t-46 -75t-80.5 -54.5q-25 -11 -63.5 -17.5t-123.5 -6.5h-372z" />
    <glyph glyph-name="F.swash" horiz-adv-x="754" 
d="M340 0v625h-31q-63 0 -105 -21t-64.5 -59t-22.5 -85q0 -22 7 -46.5t23 -47.5t42 -42t61 -26l-15 -70q-82 15 -138 81.5t-56 150.5q0 68 34 122.5t96 86.5q55 28 138 28h395v-72h-286v-225h261v-72h-261v-328h-78z" />
    <glyph glyph-name="G.swash" horiz-adv-x="740" 
d="M47 348q0 76 28 143t78 116t117 76t140 27q33 0 75.5 -7.5t86.5 -29.5t79 -54l-49 -54q-38 35 -87.5 54t-104.5 19q-60 0 -112.5 -22t-91 -61.5t-60 -93t-21.5 -113.5t21.5 -114t60 -93t91 -61t112.5 -22q54 0 103.5 18.5t87.5 51.5v180h-213v72h291v-335
q0 -120 -11 -169q-23 -74 -81.5 -115.5t-143.5 -41.5q-88 0 -149 52.5t-77 137.5l73 17q12 -60 52.5 -97.5t100.5 -37.5q56 0 95.5 27t54.5 76q2 10 5 32.5t3 117.5v1q-38 -29 -88 -44t-103 -15q-73 0 -140 27t-117 76t-78 116t-28 143z" />
    <glyph glyph-name="H.swash" horiz-adv-x="975" 
d="M340 0v625h-31q-63 0 -105 -21t-64.5 -59t-22.5 -85q0 -22 7 -46.5t23 -47.5t42 -42t61 -26l-15 -70q-82 15 -138 81.5t-56 150.5q0 68 34 122.5t96 86.5q55 28 138 28h109v-291h387v291h78v-697h-78v334h-387v-334h-78z" />
    <glyph glyph-name="glyph697" horiz-adv-x="1022" 
d="M92 0v697h78v-291h387v291h78v-625h31q63 0 105 21t64.5 59t22.5 85q0 22 -7 46.5t-23 47.5t-42 42t-61 26l15 70q82 -15 138 -81.5t56 -150.5q0 -68 -34 -122.5t-96 -86.5q-55 -28 -138 -28h-109v334h-387v-334h-78z" />
    <glyph glyph-name="I.swash" horiz-adv-x="514" 
d="M340 0v625h-31q-63 0 -105 -21t-64.5 -59t-22.5 -85q0 -22 7 -46.5t23 -47.5t42 -42t61 -26l-15 -70q-82 15 -138 81.5t-56 150.5q0 68 34 122.5t96 86.5q55 28 138 28h109v-697h-78z" />
    <glyph glyph-name="I.swash.ss01" horiz-adv-x="622" 
d="M448 0v426q0 43 -2.5 73t-18.5 62q-19 38 -57 60.5t-85 22.5q-67 0 -115 -48t-48 -115q0 -40 21.5 -78.5t61 -59.5t80.5 -21q30 0 60 11l25 -66q-46 -17 -85 -17q-49 0 -93.5 17.5t-77 49.5t-51 74.5t-18.5 89.5q0 46 18.5 89t52 76t77.5 51.5t92 18.5q103 0 172 -67
q39 -39 54 -91t15 -122v-436h-78z" />
    <glyph glyph-name="J.swash" horiz-adv-x="505" 
d="M134 64q18 -6 43 -10.5t45 -4.5q63 0 90.5 34.5t27.5 115.5v426h-31q-63 0 -105 -21t-64.5 -59t-22.5 -85q0 -22 7 -46.5t23 -47.5t42 -42t61 -26l-15 -70q-82 15 -138 81.5t-56 150.5q0 68 34 122.5t96 86.5q55 28 138 28h109v-495q0 -91 -21 -138t-64.5 -67.5
t-105.5 -20.5q-55 0 -93 14v74z" />
    <glyph glyph-name="glyph701" horiz-adv-x="563" 
d="M14 69q25 -10 53 -10q41 0 59.5 30t18.5 100v508h109q83 0 138 -28q62 -32 96 -86.5t34 -122.5q0 -84 -56 -150.5t-138 -81.5l-15 70q27 5 58 24t53 56.5t22 81.5q0 47 -22.5 85t-64.5 59t-105 21h-31v-433q0 -71 -12 -113t-45 -67.5t-94 -25.5q-29 0 -58 9v74z" />
    <glyph glyph-name="J.swash.ss01" horiz-adv-x="593" 
d="M45 201q0 80 54 142t136 79l25 -69q-27 -4 -59.5 -21.5t-55.5 -53.5t-23 -77q0 -64 43.5 -108.5t109.5 -44.5q46 0 82.5 23t54.5 61q8 21 12 43.5t4 90.5v359h-262v72h340v-441q0 -90 -17.5 -137.5t-44.5 -75.5q-64 -67 -169 -67q-49 0 -92 17.5t-73.5 49t-47.5 72.5
t-17 86z" />
    <glyph glyph-name="K.swash" horiz-adv-x="886" 
d="M340 0v625h-31q-63 0 -105 -21t-64.5 -59t-22.5 -85q0 -22 7 -46.5t23 -47.5t42 -42t61 -26l-15 -70q-82 15 -138 81.5t-56 150.5q0 68 34 122.5t96 86.5q55 28 138 28h109v-370l335 370h96l-278 -304l286 -393h-94l-244 336l-101 -110v-226h-78z" />
    <glyph glyph-name="glyph704" horiz-adv-x="953" 
d="M92 0v697h78v-370l335 370h96l-278 -304l159 -219q38 -52 68 -81.5t61 -41.5t63 -12q40 0 78 22t58.5 62t20.5 82q0 25 -8.5 53t-28 53t-50.5 43t-70 18q-23 0 -48.5 -8t-44.5 -21l-43 58q61 43 136 43q47 0 90 -18.5t75.5 -51.5t50.5 -77t18 -92q0 -47 -18 -90.5
t-49.5 -76.5t-75 -52t-91.5 -19q-23 0 -50.5 4.5t-54.5 16.5t-59 38t-92 108l-147 202l-101 -110v-226h-78z" />
    <glyph glyph-name="L.swash" horiz-adv-x="744" 
d="M340 0v625h-31q-63 0 -105 -21t-64.5 -59t-22.5 -85q0 -22 7 -46.5t23 -47.5t42 -42t61 -26l-15 -70q-82 15 -138 81.5t-56 150.5q0 68 34 122.5t96 86.5q55 28 138 28h109v-625h287v-72h-365z" />
    <glyph glyph-name="glyph706" horiz-adv-x="618" 
d="M92 0v466q0 53 17.5 101.5t52.5 82.5q32 32 76.5 49t94.5 17q36 0 75.5 -12t78 -45t57.5 -80.5t19 -92.5q0 -83 -56 -147.5t-139 -79.5l-13 71q26 5 57 23.5t52.5 55t21.5 77.5q0 32 -10 57.5t-26.5 46t-46.5 37.5t-70 17q-72 0 -117.5 -49.5t-45.5 -128.5v-394h361v-72
h-439z" />
    <glyph glyph-name="M.swash" horiz-adv-x="1107" 
d="M340 0v625h-31q-63 0 -105 -21t-64.5 -59t-22.5 -85q0 -22 7 -46.5t23 -47.5t42 -42t61 -26l-15 -70q-82 15 -138 81.5t-56 150.5q0 68 34 122.5t96 86.5q55 28 138 28h103l266 -442l266 442h71v-697h-77v543l-260 -426l-261 425v-542h-77z" />
    <glyph glyph-name="glyph708" horiz-adv-x="1107" 
d="M92 0v697h72l266 -442l266 442h71v-625h31q63 0 105 21t64.5 59t22.5 85q0 22 -7 46.5t-23 47.5t-42 42t-61 26l15 70q82 -15 138 -81.5t56 -150.5q0 -68 -34 -122.5t-96 -86.5q-55 -28 -138 -28h-108v543l-260 -426l-261 425v-542h-77z" />
    <glyph glyph-name="M.swash.ss01" horiz-adv-x="1156" 
d="M389 0v514q0 67 -28 97t-74 30q-26 0 -54.5 -8.5t-53 -29t-41 -53.5t-16.5 -76q0 -59 38 -105t95 -58l-20 -69q-84 17 -137 83t-53 149q0 49 18.5 93.5t51.5 76.5q34 32 79.5 50.5t97.5 18.5q89 0 150 -42.5t116 -134.5l169 -281l266 442h71v-697h-77v543l-260 -426
l-234 382q-20 31 -27 40v-539h-77z" />
    <glyph glyph-name="glyph710" horiz-adv-x="1156" 
d="M92 0v697h71l266 -442l169 281q55 92 116 134.5t150 42.5q52 0 97.5 -18.5t79.5 -50.5q33 -32 51.5 -76.5t18.5 -93.5q0 -83 -53 -149t-137 -83l-20 69q57 12 95 58t38 105q0 25 -8 53t-30.5 56.5t-57 43t-69.5 14.5q-46 0 -74 -30t-28 -97v-514h-77v539q-7 -9 -27 -40
l-234 -382l-260 426v-543h-77z" />
    <glyph glyph-name="N.swash" horiz-adv-x="999" 
d="M340 0v625h-31q-63 0 -105 -21t-64.5 -59t-22.5 -85q0 -22 7 -46.5t23 -47.5t42 -42t61 -26l-15 -70q-82 15 -138 81.5t-56 150.5q0 68 34 122.5t96 86.5q55 28 138 28h99l421 -558v558h78v-697h-63l-426 564v-564h-78z" />
    <glyph glyph-name="glyph712" horiz-adv-x="999" 
d="M92 0v697h68l421 -558v558h109q82 0 137 -28q62 -32 96.5 -86.5t34.5 -122.5q0 -84 -56 -150.5t-138 -81.5l-15 70q27 5 58 24t53 56.5t22 81.5q0 47 -22.5 85t-64.5 59t-105 21h-31v-625h-63l-426 564v-564h-78z" />
    <glyph glyph-name="N.swash.ss01" horiz-adv-x="1048" 
d="M389 0v517q0 124 -102 124q-24 0 -52 -8.5t-56 -32.5t-42.5 -58.5t-14.5 -67.5q0 -59 38 -105t95 -58l-19 -69q-39 7 -74 28.5t-61 53t-41 70.5t-15 80q0 49 20 94.5t54 77.5q33 31 78 49t95 18q27 0 59 -5t63 -18.5t65.5 -40.5t98.5 -112l300 -398v558h78v-697h-63
l-374 494l-52 67v-561h-78z" />
    <glyph glyph-name="glyph714" horiz-adv-x="1107" 
d="M92 0v697h68l421 -558v312q0 70 15 122t54 91q69 67 172 67q48 0 92 -18.5t77.5 -51.5t52 -76t18.5 -89q0 -47 -18.5 -89.5t-51 -74.5t-77 -49.5t-93.5 -17.5q-39 0 -85 17l25 66q30 -11 60 -11q41 0 80.5 21t61 59.5t21.5 78.5q0 67 -48 115t-115 48q-47 0 -85 -23
t-57 -61q-10 -21 -15.5 -44t-5.5 -90v-441h-63l-426 564v-564h-78z" />
    </font>
</defs>
</svg>
